<mxfile host="Electron" modified="2025-04-30T00:05:51.586Z" agent="Mozilla/5.0 (Windows NT 10.0; Win64; x64) AppleWebKit/537.36 (KHTML, like Gecko) draw.io/24.2.5 Chrome/120.0.6099.109 Electron/28.1.0 Safari/537.36" etag="svepYVXO0J_JcGeuAq-d" version="24.2.5" type="device">
  <diagram name="Page-1" id="GDLJ2GTyAZkGRkAv89nQ">
    <mxGraphModel dx="2787" dy="1036" grid="1" gridSize="10" guides="1" tooltips="1" connect="1" arrows="1" fold="1" page="1" pageScale="1" pageWidth="850" pageHeight="1100" math="0" shadow="0">
      <root>
        <mxCell id="0" />
        <mxCell id="1" parent="0" />
        <mxCell id="Xeo_94hPjWmz_vQG5gyQ-1" value="" style="endArrow=none;dashed=1;html=1;dashPattern=1 3;strokeWidth=2;rounded=0;" edge="1" parent="1">
          <mxGeometry width="50" height="50" relative="1" as="geometry">
            <mxPoint x="790" y="1470" as="sourcePoint" />
            <mxPoint x="790" y="10" as="targetPoint" />
          </mxGeometry>
        </mxCell>
        <mxCell id="Xeo_94hPjWmz_vQG5gyQ-2" value="Function Name" style="rounded=0;whiteSpace=wrap;html=1;" vertex="1" parent="1">
          <mxGeometry x="410" y="200" width="130" height="60" as="geometry" />
        </mxCell>
        <mxCell id="Xeo_94hPjWmz_vQG5gyQ-3" value="Energy In" style="endArrow=classic;html=1;rounded=0;entryX=0.006;entryY=0.164;entryDx=0;entryDy=0;align=right;entryPerimeter=0;" edge="1" parent="1" target="Xeo_94hPjWmz_vQG5gyQ-2">
          <mxGeometry x="0.5556" width="50" height="50" relative="1" as="geometry">
            <mxPoint x="320" y="210" as="sourcePoint" />
            <mxPoint x="400" y="210" as="targetPoint" />
            <mxPoint as="offset" />
          </mxGeometry>
        </mxCell>
        <mxCell id="Xeo_94hPjWmz_vQG5gyQ-4" value="Material In" style="endArrow=classic;html=1;rounded=0;entryX=0;entryY=0.25;entryDx=0;entryDy=0;strokeWidth=3;align=right;" edge="1" parent="1">
          <mxGeometry x="0.5556" width="50" height="50" relative="1" as="geometry">
            <mxPoint x="320" y="229.5" as="sourcePoint" />
            <mxPoint x="410" y="229.5" as="targetPoint" />
            <mxPoint as="offset" />
          </mxGeometry>
        </mxCell>
        <mxCell id="Xeo_94hPjWmz_vQG5gyQ-5" value="Signal In" style="endArrow=classic;html=1;rounded=0;entryX=0;entryY=0.25;entryDx=0;entryDy=0;dashed=1;align=right;" edge="1" parent="1">
          <mxGeometry x="0.5556" width="50" height="50" relative="1" as="geometry">
            <mxPoint x="320" y="250" as="sourcePoint" />
            <mxPoint x="410" y="250" as="targetPoint" />
            <mxPoint as="offset" />
          </mxGeometry>
        </mxCell>
        <mxCell id="Xeo_94hPjWmz_vQG5gyQ-6" value="Energy Out" style="endArrow=classic;html=1;rounded=0;entryX=0;entryY=0.25;entryDx=0;entryDy=0;align=left;" edge="1" parent="1">
          <mxGeometry x="-0.7778" width="50" height="50" relative="1" as="geometry">
            <mxPoint x="540" y="210" as="sourcePoint" />
            <mxPoint x="630" y="210" as="targetPoint" />
            <mxPoint as="offset" />
          </mxGeometry>
        </mxCell>
        <mxCell id="Xeo_94hPjWmz_vQG5gyQ-7" value="Material Out" style="endArrow=classic;html=1;rounded=0;entryX=0;entryY=0.25;entryDx=0;entryDy=0;strokeWidth=3;align=left;" edge="1" parent="1">
          <mxGeometry x="-0.7778" width="50" height="50" relative="1" as="geometry">
            <mxPoint x="540" y="229.5" as="sourcePoint" />
            <mxPoint x="630" y="229.5" as="targetPoint" />
            <mxPoint as="offset" />
          </mxGeometry>
        </mxCell>
        <mxCell id="Xeo_94hPjWmz_vQG5gyQ-8" value="Signal Out" style="endArrow=classic;html=1;rounded=0;entryX=0;entryY=0.25;entryDx=0;entryDy=0;dashed=1;align=left;" edge="1" parent="1">
          <mxGeometry x="-0.7778" width="50" height="50" relative="1" as="geometry">
            <mxPoint x="540" y="250" as="sourcePoint" />
            <mxPoint x="630" y="250" as="targetPoint" />
            <mxPoint as="offset" />
          </mxGeometry>
        </mxCell>
        <mxCell id="Xeo_94hPjWmz_vQG5gyQ-9" value="" style="endArrow=none;dashed=1;html=1;dashPattern=1 3;strokeWidth=2;rounded=0;" edge="1" parent="1">
          <mxGeometry width="50" height="50" relative="1" as="geometry">
            <mxPoint x="189" y="1460" as="sourcePoint" />
            <mxPoint x="189" y="10" as="targetPoint" />
          </mxGeometry>
        </mxCell>
        <mxCell id="Xeo_94hPjWmz_vQG5gyQ-10" value="&lt;b style=&quot;font-size: 20px;&quot;&gt;&quot;Functional Basis&quot; EMS Model&lt;/b&gt;" style="text;html=1;strokeColor=none;fillColor=none;align=center;verticalAlign=middle;whiteSpace=wrap;rounded=0;fontSize=20;" vertex="1" parent="1">
          <mxGeometry x="375" y="10" width="200" height="30" as="geometry" />
        </mxCell>
        <mxCell id="Xeo_94hPjWmz_vQG5gyQ-11" value="" style="endArrow=none;dashed=1;html=1;dashPattern=1 3;strokeWidth=2;rounded=0;" edge="1" parent="1">
          <mxGeometry width="50" height="50" relative="1" as="geometry">
            <mxPoint x="230" y="450" as="sourcePoint" />
            <mxPoint x="750" y="450" as="targetPoint" />
          </mxGeometry>
        </mxCell>
        <mxCell id="Xeo_94hPjWmz_vQG5gyQ-12" value="Function A" style="rounded=0;whiteSpace=wrap;html=1;" vertex="1" parent="1">
          <mxGeometry x="280" y="570" width="120" height="40" as="geometry" />
        </mxCell>
        <mxCell id="Xeo_94hPjWmz_vQG5gyQ-13" value="Energy" style="edgeStyle=orthogonalEdgeStyle;rounded=0;orthogonalLoop=1;jettySize=auto;html=1;exitX=0.5;exitY=1;exitDx=0;exitDy=0;" edge="1" parent="1" source="Xeo_94hPjWmz_vQG5gyQ-14" target="Xeo_94hPjWmz_vQG5gyQ-15">
          <mxGeometry x="0.2" relative="1" as="geometry">
            <mxPoint as="offset" />
          </mxGeometry>
        </mxCell>
        <mxCell id="Xeo_94hPjWmz_vQG5gyQ-14" value="Function B" style="rounded=0;whiteSpace=wrap;html=1;" vertex="1" parent="1">
          <mxGeometry x="460" y="570" width="120" height="40" as="geometry" />
        </mxCell>
        <mxCell id="Xeo_94hPjWmz_vQG5gyQ-15" value="Function C" style="rounded=0;whiteSpace=wrap;html=1;" vertex="1" parent="1">
          <mxGeometry x="460" y="640" width="120" height="40" as="geometry" />
        </mxCell>
        <mxCell id="Xeo_94hPjWmz_vQG5gyQ-16" value="Signal In" style="endArrow=classic;html=1;rounded=0;entryX=0;entryY=0.25;entryDx=0;entryDy=0;dashed=1;align=right;" edge="1" parent="1">
          <mxGeometry x="0.5556" width="50" height="50" relative="1" as="geometry">
            <mxPoint x="210" y="580" as="sourcePoint" />
            <mxPoint x="280" y="579.5" as="targetPoint" />
            <mxPoint as="offset" />
          </mxGeometry>
        </mxCell>
        <mxCell id="Xeo_94hPjWmz_vQG5gyQ-17" value="Material In" style="endArrow=classic;html=1;rounded=0;entryX=0;entryY=0.25;entryDx=0;entryDy=0;strokeWidth=3;align=right;" edge="1" parent="1">
          <mxGeometry x="-0.4815" width="50" height="50" relative="1" as="geometry">
            <mxPoint x="210" y="660" as="sourcePoint" />
            <mxPoint x="460" y="660" as="targetPoint" />
            <mxPoint as="offset" />
          </mxGeometry>
        </mxCell>
        <mxCell id="Xeo_94hPjWmz_vQG5gyQ-18" value="Material Out" style="endArrow=classic;html=1;rounded=0;entryX=0;entryY=0.25;entryDx=0;entryDy=0;strokeWidth=3;align=left;" edge="1" parent="1">
          <mxGeometry x="-0.7778" width="50" height="50" relative="1" as="geometry">
            <mxPoint x="580" y="669.5" as="sourcePoint" />
            <mxPoint x="670" y="669.5" as="targetPoint" />
            <mxPoint as="offset" />
          </mxGeometry>
        </mxCell>
        <mxCell id="Xeo_94hPjWmz_vQG5gyQ-19" value="Signal" style="endArrow=classic;html=1;rounded=0;entryX=0;entryY=0.5;entryDx=0;entryDy=0;dashed=1;align=right;edgeStyle=orthogonalEdgeStyle;" edge="1" parent="1" source="Xeo_94hPjWmz_vQG5gyQ-12" target="Xeo_94hPjWmz_vQG5gyQ-14">
          <mxGeometry x="0.3333" width="50" height="50" relative="1" as="geometry">
            <mxPoint x="420" y="540" as="sourcePoint" />
            <mxPoint x="510" y="540" as="targetPoint" />
            <mxPoint as="offset" />
          </mxGeometry>
        </mxCell>
        <mxCell id="Xeo_94hPjWmz_vQG5gyQ-20" value="Energy In" style="endArrow=classic;html=1;rounded=0;entryX=0;entryY=0.75;entryDx=0;entryDy=0;align=right;edgeStyle=orthogonalEdgeStyle;" edge="1" parent="1" target="Xeo_94hPjWmz_vQG5gyQ-14">
          <mxGeometry x="-0.5821" width="50" height="50" relative="1" as="geometry">
            <mxPoint x="210" y="630" as="sourcePoint" />
            <mxPoint x="300" y="520" as="targetPoint" />
            <mxPoint as="offset" />
            <Array as="points">
              <mxPoint x="420" y="630" />
              <mxPoint x="420" y="600" />
            </Array>
          </mxGeometry>
        </mxCell>
        <mxCell id="Xeo_94hPjWmz_vQG5gyQ-21" value="Signal Out" style="endArrow=classic;html=1;rounded=0;dashed=1;align=left;exitX=1;exitY=0.25;exitDx=0;exitDy=0;edgeStyle=orthogonalEdgeStyle;" edge="1" parent="1" source="Xeo_94hPjWmz_vQG5gyQ-12">
          <mxGeometry x="0.4576" width="50" height="50" relative="1" as="geometry">
            <mxPoint x="480" y="510" as="sourcePoint" />
            <mxPoint x="670" y="560" as="targetPoint" />
            <mxPoint as="offset" />
            <Array as="points">
              <mxPoint x="440" y="580" />
              <mxPoint x="440" y="560" />
            </Array>
          </mxGeometry>
        </mxCell>
        <mxCell id="Xeo_94hPjWmz_vQG5gyQ-22" value="Energy Out" style="endArrow=classic;html=1;rounded=0;entryX=0;entryY=0.25;entryDx=0;entryDy=0;align=left;" edge="1" parent="1">
          <mxGeometry x="-0.7778" width="50" height="50" relative="1" as="geometry">
            <mxPoint x="580" y="650" as="sourcePoint" />
            <mxPoint x="670" y="650" as="targetPoint" />
            <mxPoint as="offset" />
          </mxGeometry>
        </mxCell>
        <mxCell id="Xeo_94hPjWmz_vQG5gyQ-23" style="edgeStyle=orthogonalEdgeStyle;rounded=0;orthogonalLoop=1;jettySize=auto;html=1;exitX=0;exitY=0.5;exitDx=0;exitDy=0;entryX=1;entryY=0.5;entryDx=0;entryDy=0;endArrow=none;endFill=0;startArrow=diamondThin;startFill=0;" edge="1" parent="1" source="Xeo_94hPjWmz_vQG5gyQ-32" target="Xeo_94hPjWmz_vQG5gyQ-40">
          <mxGeometry relative="1" as="geometry" />
        </mxCell>
        <mxCell id="Xeo_94hPjWmz_vQG5gyQ-24" style="edgeStyle=orthogonalEdgeStyle;rounded=0;orthogonalLoop=1;jettySize=auto;html=1;exitX=0.25;exitY=0;exitDx=0;exitDy=0;entryX=1;entryY=0.5;entryDx=0;entryDy=0;startArrow=diamondThin;startFill=0;endArrow=none;endFill=0;" edge="1" parent="1" target="Xeo_94hPjWmz_vQG5gyQ-39">
          <mxGeometry relative="1" as="geometry">
            <Array as="points">
              <mxPoint x="1098" y="140" />
              <mxPoint x="1100" y="140" />
              <mxPoint x="1100" y="130" />
            </Array>
            <mxPoint x="1097.5" y="160" as="sourcePoint" />
          </mxGeometry>
        </mxCell>
        <mxCell id="Xeo_94hPjWmz_vQG5gyQ-25" style="edgeStyle=orthogonalEdgeStyle;rounded=0;orthogonalLoop=1;jettySize=auto;html=1;exitX=1;exitY=0.75;exitDx=0;exitDy=0;entryX=0;entryY=0.5;entryDx=0;entryDy=0;startArrow=diamondThin;startFill=0;endArrow=none;endFill=0;" edge="1" parent="1" source="Xeo_94hPjWmz_vQG5gyQ-32" target="Xeo_94hPjWmz_vQG5gyQ-48">
          <mxGeometry relative="1" as="geometry">
            <Array as="points">
              <mxPoint x="1250" y="265" />
            </Array>
            <mxPoint x="1220.3900000000003" y="280.00000000000006" as="sourcePoint" />
            <mxPoint x="1250.0000000000055" y="278.7" as="targetPoint" />
          </mxGeometry>
        </mxCell>
        <mxCell id="Xeo_94hPjWmz_vQG5gyQ-26" style="edgeStyle=orthogonalEdgeStyle;rounded=0;orthogonalLoop=1;jettySize=auto;html=1;exitX=1.006;exitY=0.142;exitDx=0;exitDy=0;entryX=0;entryY=0.5;entryDx=0;entryDy=0;startArrow=diamondThin;startFill=0;endArrow=none;endFill=0;exitPerimeter=0;" edge="1" parent="1" source="Xeo_94hPjWmz_vQG5gyQ-32" target="Xeo_94hPjWmz_vQG5gyQ-50">
          <mxGeometry relative="1" as="geometry">
            <Array as="points">
              <mxPoint x="1230" y="180" />
              <mxPoint x="1230" y="150" />
            </Array>
          </mxGeometry>
        </mxCell>
        <mxCell id="Xeo_94hPjWmz_vQG5gyQ-27" style="edgeStyle=orthogonalEdgeStyle;rounded=0;orthogonalLoop=1;jettySize=auto;html=1;exitX=0.25;exitY=1;exitDx=0;exitDy=0;entryX=1;entryY=0.75;entryDx=0;entryDy=0;dashed=1;endArrow=open;endFill=0;" edge="1" parent="1" source="Xeo_94hPjWmz_vQG5gyQ-32" target="Xeo_94hPjWmz_vQG5gyQ-38">
          <mxGeometry relative="1" as="geometry">
            <Array as="points">
              <mxPoint x="1123" y="350" />
              <mxPoint x="1000" y="350" />
              <mxPoint x="1000" y="335" />
            </Array>
          </mxGeometry>
        </mxCell>
        <mxCell id="Xeo_94hPjWmz_vQG5gyQ-28" value="Material&lt;br&gt;Used" style="edgeLabel;html=1;align=center;verticalAlign=middle;resizable=0;points=[];" vertex="1" connectable="0" parent="Xeo_94hPjWmz_vQG5gyQ-27">
          <mxGeometry x="-0.2727" y="-1" relative="1" as="geometry">
            <mxPoint x="31" y="-39" as="offset" />
          </mxGeometry>
        </mxCell>
        <mxCell id="Xeo_94hPjWmz_vQG5gyQ-29" style="edgeStyle=orthogonalEdgeStyle;rounded=0;orthogonalLoop=1;jettySize=auto;html=1;exitX=0.75;exitY=0;exitDx=0;exitDy=0;entryX=0.25;entryY=0;entryDx=0;entryDy=0;dashed=1;endArrow=open;endFill=0;" edge="1" parent="1" source="Xeo_94hPjWmz_vQG5gyQ-32" target="Xeo_94hPjWmz_vQG5gyQ-45">
          <mxGeometry relative="1" as="geometry" />
        </mxCell>
        <mxCell id="Xeo_94hPjWmz_vQG5gyQ-30" value="Changed&lt;br&gt;Heat Out" style="edgeLabel;html=1;align=center;verticalAlign=middle;resizable=0;points=[];" vertex="1" connectable="0" parent="Xeo_94hPjWmz_vQG5gyQ-29">
          <mxGeometry x="0.1148" y="1" relative="1" as="geometry">
            <mxPoint x="-70" y="11" as="offset" />
          </mxGeometry>
        </mxCell>
        <mxCell id="Xeo_94hPjWmz_vQG5gyQ-31" value="Updated&lt;br&gt;Status" style="edgeStyle=orthogonalEdgeStyle;rounded=0;orthogonalLoop=1;jettySize=auto;html=1;exitX=0;exitY=0.25;exitDx=0;exitDy=0;dashed=1;endArrow=open;endFill=0;" edge="1" parent="1" source="Xeo_94hPjWmz_vQG5gyQ-32" target="Xeo_94hPjWmz_vQG5gyQ-34">
          <mxGeometry x="0.5349" relative="1" as="geometry">
            <Array as="points">
              <mxPoint x="1080" y="195" />
              <mxPoint x="1080" y="180" />
              <mxPoint x="910" y="180" />
            </Array>
            <mxPoint as="offset" />
          </mxGeometry>
        </mxCell>
        <mxCell id="Xeo_94hPjWmz_vQG5gyQ-32" value="Function Name&lt;div&gt;&amp;lt;Physical, Logical&amp;gt;&lt;/div&gt;" style="rounded=0;whiteSpace=wrap;html=1;" vertex="1" parent="1">
          <mxGeometry x="1090" y="160" width="130" height="140" as="geometry" />
        </mxCell>
        <mxCell id="Xeo_94hPjWmz_vQG5gyQ-33" style="edgeStyle=orthogonalEdgeStyle;rounded=0;orthogonalLoop=1;jettySize=auto;html=1;exitX=1;exitY=0.5;exitDx=0;exitDy=0;entryX=0;entryY=0.5;entryDx=0;entryDy=0;startArrow=diamondThin;startFill=0;endArrow=none;endFill=0;" edge="1" parent="1">
          <mxGeometry relative="1" as="geometry">
            <Array as="points">
              <mxPoint x="990" y="129.74" />
              <mxPoint x="990" y="129.74" />
            </Array>
            <mxPoint x="970" y="129.74" as="sourcePoint" />
            <mxPoint x="1020.0000000000055" y="129.74" as="targetPoint" />
          </mxGeometry>
        </mxCell>
        <mxCell id="Xeo_94hPjWmz_vQG5gyQ-34" value="Control Function&lt;br&gt;Name" style="rounded=0;whiteSpace=wrap;html=1;" vertex="1" parent="1">
          <mxGeometry x="860" y="100" width="110" height="60" as="geometry" />
        </mxCell>
        <mxCell id="Xeo_94hPjWmz_vQG5gyQ-35" style="edgeStyle=orthogonalEdgeStyle;rounded=0;orthogonalLoop=1;jettySize=auto;html=1;exitX=1;exitY=0.5;exitDx=0;exitDy=0;entryX=0;entryY=0.5;entryDx=0;entryDy=0;endArrow=none;endFill=0;startArrow=diamondThin;startFill=0;" edge="1" parent="1" source="Xeo_94hPjWmz_vQG5gyQ-36" target="Xeo_94hPjWmz_vQG5gyQ-40">
          <mxGeometry relative="1" as="geometry" />
        </mxCell>
        <mxCell id="Xeo_94hPjWmz_vQG5gyQ-36" value="Provide Energy" style="rounded=0;whiteSpace=wrap;html=1;" vertex="1" parent="1">
          <mxGeometry x="860" y="200" width="110" height="60" as="geometry" />
        </mxCell>
        <mxCell id="Xeo_94hPjWmz_vQG5gyQ-37" style="edgeStyle=orthogonalEdgeStyle;rounded=0;orthogonalLoop=1;jettySize=auto;html=1;exitX=1;exitY=0.5;exitDx=0;exitDy=0;endArrow=none;endFill=0;startArrow=diamondThin;startFill=0;" edge="1" parent="1" source="Xeo_94hPjWmz_vQG5gyQ-38" target="Xeo_94hPjWmz_vQG5gyQ-42">
          <mxGeometry relative="1" as="geometry" />
        </mxCell>
        <mxCell id="Xeo_94hPjWmz_vQG5gyQ-38" value="Supply Material" style="rounded=0;whiteSpace=wrap;html=1;" vertex="1" parent="1">
          <mxGeometry x="860" y="290" width="110" height="60" as="geometry" />
        </mxCell>
        <mxCell id="Xeo_94hPjWmz_vQG5gyQ-39" value="External Signals" style="ellipse;whiteSpace=wrap;html=1;aspect=fixed;" vertex="1" parent="1">
          <mxGeometry x="1020" y="105" width="50" height="50" as="geometry" />
        </mxCell>
        <mxCell id="Xeo_94hPjWmz_vQG5gyQ-40" value="External Energy&lt;br&gt;In" style="ellipse;whiteSpace=wrap;html=1;aspect=fixed;" vertex="1" parent="1">
          <mxGeometry x="1000" y="200" width="60" height="60" as="geometry" />
        </mxCell>
        <mxCell id="Xeo_94hPjWmz_vQG5gyQ-41" style="edgeStyle=orthogonalEdgeStyle;rounded=0;orthogonalLoop=1;jettySize=auto;html=1;entryX=1;entryY=0.5;entryDx=0;entryDy=0;exitX=0;exitY=0.5;exitDx=0;exitDy=0;endArrow=none;endFill=0;startArrow=diamondThin;startFill=0;" edge="1" parent="1" source="Xeo_94hPjWmz_vQG5gyQ-68" target="Xeo_94hPjWmz_vQG5gyQ-42">
          <mxGeometry relative="1" as="geometry">
            <Array as="points">
              <mxPoint x="1100" y="320" />
            </Array>
            <mxPoint x="1100" y="350" as="sourcePoint" />
          </mxGeometry>
        </mxCell>
        <mxCell id="Xeo_94hPjWmz_vQG5gyQ-42" value="External Material&lt;br&gt;In" style="ellipse;whiteSpace=wrap;html=1;aspect=fixed;" vertex="1" parent="1">
          <mxGeometry x="1024" y="294" width="52" height="52" as="geometry" />
        </mxCell>
        <mxCell id="Xeo_94hPjWmz_vQG5gyQ-43" style="edgeStyle=orthogonalEdgeStyle;rounded=0;orthogonalLoop=1;jettySize=auto;html=1;exitX=0;exitY=0.75;exitDx=0;exitDy=0;entryX=1;entryY=0.25;entryDx=0;entryDy=0;dashed=1;endArrow=open;endFill=0;" edge="1" parent="1" source="Xeo_94hPjWmz_vQG5gyQ-45" target="Xeo_94hPjWmz_vQG5gyQ-32">
          <mxGeometry relative="1" as="geometry">
            <Array as="points">
              <mxPoint x="1330" y="165" />
              <mxPoint x="1330" y="200" />
              <mxPoint x="1260" y="200" />
              <mxPoint x="1260" y="195" />
            </Array>
          </mxGeometry>
        </mxCell>
        <mxCell id="Xeo_94hPjWmz_vQG5gyQ-44" value="Changed Evac.&lt;br&gt;Rate" style="edgeLabel;html=1;align=center;verticalAlign=middle;resizable=0;points=[];" vertex="1" connectable="0" parent="Xeo_94hPjWmz_vQG5gyQ-43">
          <mxGeometry x="-0.0616" relative="1" as="geometry">
            <mxPoint x="-10" as="offset" />
          </mxGeometry>
        </mxCell>
        <mxCell id="Xeo_94hPjWmz_vQG5gyQ-45" value="Evacuate Waste Energy" style="rounded=0;whiteSpace=wrap;html=1;" vertex="1" parent="1">
          <mxGeometry x="1340" y="120" width="90" height="60" as="geometry" />
        </mxCell>
        <mxCell id="Xeo_94hPjWmz_vQG5gyQ-46" style="edgeStyle=orthogonalEdgeStyle;rounded=0;orthogonalLoop=1;jettySize=auto;html=1;exitX=0;exitY=0.5;exitDx=0;exitDy=0;entryX=1;entryY=0.5;entryDx=0;entryDy=0;endArrow=none;endFill=0;startArrow=diamondThin;startFill=0;" edge="1" parent="1" source="Xeo_94hPjWmz_vQG5gyQ-47" target="Xeo_94hPjWmz_vQG5gyQ-48">
          <mxGeometry relative="1" as="geometry">
            <Array as="points">
              <mxPoint x="1340" y="270" />
            </Array>
          </mxGeometry>
        </mxCell>
        <mxCell id="Xeo_94hPjWmz_vQG5gyQ-47" value="Take Output Material From Function Name" style="rounded=0;whiteSpace=wrap;html=1;" vertex="1" parent="1">
          <mxGeometry x="1340" y="230" width="90" height="80" as="geometry" />
        </mxCell>
        <mxCell id="Xeo_94hPjWmz_vQG5gyQ-48" value="External Material&lt;br&gt;Out" style="ellipse;whiteSpace=wrap;html=1;aspect=fixed;" vertex="1" parent="1">
          <mxGeometry x="1250" y="240" width="60" height="60" as="geometry" />
        </mxCell>
        <mxCell id="Xeo_94hPjWmz_vQG5gyQ-49" style="edgeStyle=orthogonalEdgeStyle;rounded=0;orthogonalLoop=1;jettySize=auto;html=1;exitX=1;exitY=0.5;exitDx=0;exitDy=0;entryX=0;entryY=0.5;entryDx=0;entryDy=0;endArrow=diamondThin;endFill=0;" edge="1" parent="1" source="Xeo_94hPjWmz_vQG5gyQ-50" target="Xeo_94hPjWmz_vQG5gyQ-45">
          <mxGeometry relative="1" as="geometry" />
        </mxCell>
        <mxCell id="Xeo_94hPjWmz_vQG5gyQ-50" value="External Energy&lt;br&gt;Out" style="ellipse;whiteSpace=wrap;html=1;aspect=fixed;" vertex="1" parent="1">
          <mxGeometry x="1250" y="120" width="60" height="60" as="geometry" />
        </mxCell>
        <mxCell id="Xeo_94hPjWmz_vQG5gyQ-51" value="Changed&lt;br&gt;Signal&amp;nbsp;Input" style="endArrow=open;html=1;rounded=0;dashed=1;exitX=1;exitY=0.5;exitDx=0;exitDy=0;edgeStyle=orthogonalEdgeStyle;entryX=0.5;entryY=0;entryDx=0;entryDy=0;endFill=0;" edge="1" parent="1" source="Xeo_94hPjWmz_vQG5gyQ-34" target="Xeo_94hPjWmz_vQG5gyQ-32">
          <mxGeometry x="0.7091" y="-15" width="50" height="50" relative="1" as="geometry">
            <mxPoint x="1080" y="55" as="sourcePoint" />
            <mxPoint x="1162.5" y="160" as="targetPoint" />
            <Array as="points">
              <mxPoint x="970" y="120" />
              <mxPoint x="1000" y="120" />
              <mxPoint x="1000" y="100" />
              <mxPoint x="1155" y="100" />
            </Array>
            <mxPoint as="offset" />
          </mxGeometry>
        </mxCell>
        <mxCell id="Xeo_94hPjWmz_vQG5gyQ-52" style="edgeStyle=orthogonalEdgeStyle;rounded=0;orthogonalLoop=1;jettySize=auto;html=1;exitX=1;exitY=0.25;exitDx=0;exitDy=0;entryX=-0.013;entryY=0.426;entryDx=0;entryDy=0;entryPerimeter=0;dashed=1;endArrow=open;endFill=0;" edge="1" parent="1" source="Xeo_94hPjWmz_vQG5gyQ-36" target="Xeo_94hPjWmz_vQG5gyQ-32">
          <mxGeometry relative="1" as="geometry">
            <Array as="points">
              <mxPoint x="990" y="215" />
              <mxPoint x="990" y="190" />
              <mxPoint x="1070" y="190" />
              <mxPoint x="1070" y="220" />
            </Array>
          </mxGeometry>
        </mxCell>
        <mxCell id="Xeo_94hPjWmz_vQG5gyQ-53" value="Changed Potential" style="edgeLabel;html=1;align=center;verticalAlign=middle;resizable=0;points=[];" vertex="1" connectable="0" parent="Xeo_94hPjWmz_vQG5gyQ-52">
          <mxGeometry x="-0.2043" y="3" relative="1" as="geometry">
            <mxPoint x="16" y="3" as="offset" />
          </mxGeometry>
        </mxCell>
        <mxCell id="Xeo_94hPjWmz_vQG5gyQ-54" value="Changed Use Rate" style="endArrow=open;html=1;rounded=0;dashed=1;entryX=1;entryY=0.75;entryDx=0;entryDy=0;edgeStyle=orthogonalEdgeStyle;exitX=0.005;exitY=0.613;exitDx=0;exitDy=0;exitPerimeter=0;endFill=0;" edge="1" parent="1" source="Xeo_94hPjWmz_vQG5gyQ-32" target="Xeo_94hPjWmz_vQG5gyQ-36">
          <mxGeometry x="-0.0006" width="50" height="50" relative="1" as="geometry">
            <mxPoint x="945" y="460" as="sourcePoint" />
            <mxPoint x="1115" y="375" as="targetPoint" />
            <Array as="points">
              <mxPoint x="1091" y="250" />
              <mxPoint x="1070" y="250" />
              <mxPoint x="1070" y="270" />
              <mxPoint x="990" y="270" />
              <mxPoint x="990" y="245" />
            </Array>
            <mxPoint as="offset" />
          </mxGeometry>
        </mxCell>
        <mxCell id="Xeo_94hPjWmz_vQG5gyQ-55" value="Material&lt;br&gt;Provided" style="edgeStyle=orthogonalEdgeStyle;rounded=0;orthogonalLoop=1;jettySize=auto;html=1;exitX=1;exitY=0.25;exitDx=0;exitDy=0;entryX=0.005;entryY=0.901;entryDx=0;entryDy=0;entryPerimeter=0;dashed=1;endArrow=open;endFill=0;" edge="1" parent="1" source="Xeo_94hPjWmz_vQG5gyQ-38" target="Xeo_94hPjWmz_vQG5gyQ-32">
          <mxGeometry x="-0.355" relative="1" as="geometry">
            <Array as="points">
              <mxPoint x="970" y="300" />
              <mxPoint x="1000" y="300" />
              <mxPoint x="1000" y="286" />
            </Array>
            <mxPoint as="offset" />
          </mxGeometry>
        </mxCell>
        <mxCell id="Xeo_94hPjWmz_vQG5gyQ-56" style="edgeStyle=orthogonalEdgeStyle;rounded=0;orthogonalLoop=1;jettySize=auto;html=1;exitX=1;exitY=0.5;exitDx=0;exitDy=0;entryX=0;entryY=0.25;entryDx=0;entryDy=0;dashed=1;endArrow=open;endFill=0;" edge="1" parent="1" source="Xeo_94hPjWmz_vQG5gyQ-32" target="Xeo_94hPjWmz_vQG5gyQ-47">
          <mxGeometry relative="1" as="geometry">
            <mxPoint x="1463" y="300" as="sourcePoint" />
            <mxPoint x="1310" y="355" as="targetPoint" />
            <Array as="points">
              <mxPoint x="1320" y="230" />
              <mxPoint x="1320" y="250" />
            </Array>
          </mxGeometry>
        </mxCell>
        <mxCell id="Xeo_94hPjWmz_vQG5gyQ-57" value="Material&lt;br&gt;Provided" style="edgeLabel;html=1;align=center;verticalAlign=middle;resizable=0;points=[];" vertex="1" connectable="0" parent="Xeo_94hPjWmz_vQG5gyQ-56">
          <mxGeometry x="-0.2727" y="-1" relative="1" as="geometry">
            <mxPoint x="40" y="-1" as="offset" />
          </mxGeometry>
        </mxCell>
        <mxCell id="Xeo_94hPjWmz_vQG5gyQ-58" value="Material&lt;br&gt;Taken" style="edgeStyle=orthogonalEdgeStyle;rounded=0;orthogonalLoop=1;jettySize=auto;html=1;exitX=0;exitY=0.75;exitDx=0;exitDy=0;entryX=1.008;entryY=0.917;entryDx=0;entryDy=0;entryPerimeter=0;dashed=1;endArrow=open;endFill=0;" edge="1" parent="1" source="Xeo_94hPjWmz_vQG5gyQ-47" target="Xeo_94hPjWmz_vQG5gyQ-32">
          <mxGeometry relative="1" as="geometry">
            <Array as="points">
              <mxPoint x="1330" y="285" />
              <mxPoint x="1330" y="320" />
              <mxPoint x="1240" y="320" />
              <mxPoint x="1240" y="288" />
            </Array>
          </mxGeometry>
        </mxCell>
        <mxCell id="Xeo_94hPjWmz_vQG5gyQ-59" value="&lt;b&gt;ED&lt;/b&gt;" style="rounded=0;whiteSpace=wrap;html=1;" vertex="1" parent="1">
          <mxGeometry x="1410" y="160" width="20" height="20" as="geometry" />
        </mxCell>
        <mxCell id="Xeo_94hPjWmz_vQG5gyQ-60" value="&lt;b&gt;IS&lt;/b&gt;" style="rounded=0;whiteSpace=wrap;html=1;" vertex="1" parent="1">
          <mxGeometry x="1410" y="290" width="20" height="20" as="geometry" />
        </mxCell>
        <mxCell id="Xeo_94hPjWmz_vQG5gyQ-61" value="&lt;b&gt;EV&lt;/b&gt;" style="rounded=0;whiteSpace=wrap;html=1;" vertex="1" parent="1">
          <mxGeometry x="940" y="140" width="30" height="20" as="geometry" />
        </mxCell>
        <mxCell id="Xeo_94hPjWmz_vQG5gyQ-62" value="&lt;b&gt;IS&lt;/b&gt;" style="rounded=0;whiteSpace=wrap;html=1;" vertex="1" parent="1">
          <mxGeometry x="950" y="240" width="20" height="20" as="geometry" />
        </mxCell>
        <mxCell id="Xeo_94hPjWmz_vQG5gyQ-63" value="&lt;b&gt;IS&lt;/b&gt;" style="rounded=0;whiteSpace=wrap;html=1;" vertex="1" parent="1">
          <mxGeometry x="950" y="330" width="20" height="20" as="geometry" />
        </mxCell>
        <mxCell id="Xeo_94hPjWmz_vQG5gyQ-64" value="" style="group" vertex="1" connectable="0" parent="1">
          <mxGeometry x="860" y="100" width="30" height="20" as="geometry" />
        </mxCell>
        <mxCell id="Xeo_94hPjWmz_vQG5gyQ-65" value="0:dt:e" style="shape=offPageConnector;whiteSpace=wrap;html=1;" vertex="1" parent="Xeo_94hPjWmz_vQG5gyQ-64">
          <mxGeometry width="30" height="20" as="geometry" />
        </mxCell>
        <mxCell id="Xeo_94hPjWmz_vQG5gyQ-66" style="edgeStyle=orthogonalEdgeStyle;rounded=0;orthogonalLoop=1;jettySize=auto;html=1;exitX=0;exitY=0;exitDx=0;exitDy=0;entryX=0.75;entryY=0;entryDx=0;entryDy=0;startArrow=baseDash;startFill=0;" edge="1" parent="Xeo_94hPjWmz_vQG5gyQ-64">
          <mxGeometry relative="1" as="geometry">
            <mxPoint x="22.5" as="targetPoint" />
            <Array as="points" />
            <mxPoint as="sourcePoint" />
          </mxGeometry>
        </mxCell>
        <mxCell id="Xeo_94hPjWmz_vQG5gyQ-67" value="&lt;b&gt;IR&lt;/b&gt;" style="rounded=0;whiteSpace=wrap;html=1;" vertex="1" parent="1">
          <mxGeometry x="1190" y="280" width="30" height="20" as="geometry" />
        </mxCell>
        <mxCell id="Xeo_94hPjWmz_vQG5gyQ-68" value="&lt;b&gt;F&lt;/b&gt;" style="shape=offPageConnector;whiteSpace=wrap;html=1;direction=north;size=0.25;" vertex="1" parent="1">
          <mxGeometry x="1090" y="280" width="20" height="20" as="geometry" />
        </mxCell>
        <mxCell id="Xeo_94hPjWmz_vQG5gyQ-69" value="i:dt:off" style="shape=offPageConnector;whiteSpace=wrap;html=1;" vertex="1" parent="1">
          <mxGeometry x="1090" y="160" width="40" height="20" as="geometry" />
        </mxCell>
        <mxCell id="Xeo_94hPjWmz_vQG5gyQ-70" style="edgeStyle=orthogonalEdgeStyle;rounded=0;orthogonalLoop=1;jettySize=auto;html=1;exitX=0;exitY=0;exitDx=0;exitDy=0;entryX=1;entryY=0;entryDx=0;entryDy=0;endArrow=ERmany;endFill=0;" edge="1" parent="1" target="Xeo_94hPjWmz_vQG5gyQ-69">
          <mxGeometry relative="1" as="geometry">
            <mxPoint x="1125" y="160" as="targetPoint" />
            <Array as="points" />
            <mxPoint x="1110" y="160" as="sourcePoint" />
          </mxGeometry>
        </mxCell>
        <mxCell id="Xeo_94hPjWmz_vQG5gyQ-71" value="s:dt:e" style="shape=offPageConnector;whiteSpace=wrap;html=1;" vertex="1" parent="1">
          <mxGeometry x="860" y="200" width="30" height="20" as="geometry" />
        </mxCell>
        <mxCell id="Xeo_94hPjWmz_vQG5gyQ-72" value="s:dt:e" style="shape=offPageConnector;whiteSpace=wrap;html=1;" vertex="1" parent="1">
          <mxGeometry x="860" y="290" width="30" height="20" as="geometry" />
        </mxCell>
        <mxCell id="Xeo_94hPjWmz_vQG5gyQ-73" value="i:dt:o" style="shape=offPageConnector;whiteSpace=wrap;html=1;" vertex="1" parent="1">
          <mxGeometry x="1340" y="230" width="30" height="20" as="geometry" />
        </mxCell>
        <mxCell id="Xeo_94hPjWmz_vQG5gyQ-74" value="&lt;b style=&quot;font-size: 20px;&quot;&gt;FRDL Model&lt;/b&gt;" style="text;html=1;strokeColor=none;fillColor=none;align=center;verticalAlign=middle;whiteSpace=wrap;rounded=0;fontSize=20;" vertex="1" parent="1">
          <mxGeometry x="1070" y="20" width="175" height="30" as="geometry" />
        </mxCell>
        <mxCell id="Xeo_94hPjWmz_vQG5gyQ-75" value="" style="endArrow=none;dashed=1;html=1;dashPattern=1 3;strokeWidth=2;rounded=0;" edge="1" parent="1">
          <mxGeometry width="50" height="50" relative="1" as="geometry">
            <mxPoint x="830" y="450" as="sourcePoint" />
            <mxPoint x="1470" y="450" as="targetPoint" />
          </mxGeometry>
        </mxCell>
        <mxCell id="Xeo_94hPjWmz_vQG5gyQ-76" style="edgeStyle=orthogonalEdgeStyle;rounded=0;orthogonalLoop=1;jettySize=auto;html=1;exitX=0.75;exitY=0;exitDx=0;exitDy=0;startArrow=diamondThin;startFill=0;entryX=0.5;entryY=1;entryDx=0;entryDy=0;endArrow=none;endFill=0;" edge="1" parent="1" source="Xeo_94hPjWmz_vQG5gyQ-79" target="Xeo_94hPjWmz_vQG5gyQ-95">
          <mxGeometry relative="1" as="geometry">
            <Array as="points">
              <mxPoint x="990" y="600" />
              <mxPoint x="1085" y="600" />
            </Array>
          </mxGeometry>
        </mxCell>
        <mxCell id="Xeo_94hPjWmz_vQG5gyQ-77" style="edgeStyle=orthogonalEdgeStyle;rounded=0;orthogonalLoop=1;jettySize=auto;html=1;entryX=0.5;entryY=1;entryDx=0;entryDy=0;exitX=0.5;exitY=0;exitDx=0;exitDy=0;endArrow=none;endFill=0;startArrow=diamondThin;startFill=0;" edge="1" parent="1" source="Xeo_94hPjWmz_vQG5gyQ-79" target="Xeo_94hPjWmz_vQG5gyQ-80">
          <mxGeometry relative="1" as="geometry">
            <Array as="points">
              <mxPoint x="960" y="600" />
              <mxPoint x="975" y="600" />
            </Array>
            <mxPoint x="980" y="610" as="sourcePoint" />
            <mxPoint x="989.9999999999998" y="580" as="targetPoint" />
          </mxGeometry>
        </mxCell>
        <mxCell id="Xeo_94hPjWmz_vQG5gyQ-78" value="New Control&lt;br&gt;Signal" style="edgeStyle=orthogonalEdgeStyle;rounded=0;orthogonalLoop=1;jettySize=auto;html=1;exitX=1;exitY=0.5;exitDx=0;exitDy=0;entryX=0;entryY=0.5;entryDx=0;entryDy=0;dashed=1;endArrow=open;endFill=0;" edge="1" parent="1" source="Xeo_94hPjWmz_vQG5gyQ-79" target="Xeo_94hPjWmz_vQG5gyQ-107">
          <mxGeometry relative="1" as="geometry" />
        </mxCell>
        <mxCell id="Xeo_94hPjWmz_vQG5gyQ-79" value="Function A&lt;div&gt;&amp;lt;Logical, Control&amp;gt;&lt;/div&gt;" style="rounded=0;whiteSpace=wrap;html=1;" vertex="1" parent="1">
          <mxGeometry x="900" y="610" width="120" height="60" as="geometry" />
        </mxCell>
        <mxCell id="Xeo_94hPjWmz_vQG5gyQ-80" value="External Signals" style="ellipse;whiteSpace=wrap;html=1;aspect=fixed;" vertex="1" parent="1">
          <mxGeometry x="950" y="530" width="50" height="50" as="geometry" />
        </mxCell>
        <mxCell id="Xeo_94hPjWmz_vQG5gyQ-81" style="edgeStyle=orthogonalEdgeStyle;rounded=0;orthogonalLoop=1;jettySize=auto;html=1;exitX=0.5;exitY=0;exitDx=0;exitDy=0;entryX=0.5;entryY=1;entryDx=0;entryDy=0;endArrow=none;endFill=0;startArrow=diamondThin;startFill=0;" edge="1" parent="1" source="Xeo_94hPjWmz_vQG5gyQ-85" target="Xeo_94hPjWmz_vQG5gyQ-95">
          <mxGeometry relative="1" as="geometry" />
        </mxCell>
        <mxCell id="Xeo_94hPjWmz_vQG5gyQ-82" style="edgeStyle=orthogonalEdgeStyle;rounded=0;orthogonalLoop=1;jettySize=auto;html=1;exitX=0;exitY=0.5;exitDx=0;exitDy=0;entryX=1;entryY=0.5;entryDx=0;entryDy=0;startArrow=diamondThin;startFill=0;endArrow=none;endFill=0;" edge="1" parent="1" source="Xeo_94hPjWmz_vQG5gyQ-85" target="Xeo_94hPjWmz_vQG5gyQ-86">
          <mxGeometry relative="1" as="geometry">
            <Array as="points">
              <mxPoint x="1060" y="650" />
              <mxPoint x="1060" y="715" />
            </Array>
          </mxGeometry>
        </mxCell>
        <mxCell id="Xeo_94hPjWmz_vQG5gyQ-83" style="edgeStyle=orthogonalEdgeStyle;rounded=0;orthogonalLoop=1;jettySize=auto;html=1;exitX=0.5;exitY=1;exitDx=0;exitDy=0;entryX=0.5;entryY=0;entryDx=0;entryDy=0;endArrow=none;endFill=0;startArrow=diamondThin;startFill=0;" edge="1" parent="1" source="Xeo_94hPjWmz_vQG5gyQ-85" target="Xeo_94hPjWmz_vQG5gyQ-96">
          <mxGeometry relative="1" as="geometry" />
        </mxCell>
        <mxCell id="Xeo_94hPjWmz_vQG5gyQ-84" value="Change&lt;br&gt;in Energy&lt;br&gt;Potential" style="edgeStyle=orthogonalEdgeStyle;rounded=0;orthogonalLoop=1;jettySize=auto;html=1;exitX=0.75;exitY=1;exitDx=0;exitDy=0;entryX=0.75;entryY=0;entryDx=0;entryDy=0;dashed=1;endArrow=open;endFill=0;" edge="1" parent="1" source="Xeo_94hPjWmz_vQG5gyQ-85" target="Xeo_94hPjWmz_vQG5gyQ-94">
          <mxGeometry relative="1" as="geometry">
            <Array as="points">
              <mxPoint x="1240" y="700" />
              <mxPoint x="1270" y="700" />
              <mxPoint x="1270" y="750" />
              <mxPoint x="1240" y="750" />
            </Array>
          </mxGeometry>
        </mxCell>
        <mxCell id="Xeo_94hPjWmz_vQG5gyQ-85" value="Function B&lt;div&gt;&amp;lt;Physical&amp;gt;&lt;/div&gt;" style="rounded=0;whiteSpace=wrap;html=1;" vertex="1" parent="1">
          <mxGeometry x="1150" y="620" width="120" height="60" as="geometry" />
        </mxCell>
        <mxCell id="Xeo_94hPjWmz_vQG5gyQ-86" value="External Energy&lt;br&gt;In" style="ellipse;whiteSpace=wrap;html=1;aspect=fixed;" vertex="1" parent="1">
          <mxGeometry x="920" y="680" width="70" height="70" as="geometry" />
        </mxCell>
        <mxCell id="Xeo_94hPjWmz_vQG5gyQ-87" value="External Material&lt;br&gt;Out" style="ellipse;whiteSpace=wrap;html=1;aspect=fixed;" vertex="1" parent="1">
          <mxGeometry x="1215" y="850" width="50" height="50" as="geometry" />
        </mxCell>
        <mxCell id="Xeo_94hPjWmz_vQG5gyQ-88" style="edgeStyle=orthogonalEdgeStyle;rounded=0;orthogonalLoop=1;jettySize=auto;html=1;exitX=0.75;exitY=1;exitDx=0;exitDy=0;entryX=0.5;entryY=0;entryDx=0;entryDy=0;startArrow=diamondThin;startFill=0;endArrow=none;endFill=0;" edge="1" parent="1" source="Xeo_94hPjWmz_vQG5gyQ-94" target="Xeo_94hPjWmz_vQG5gyQ-87">
          <mxGeometry relative="1" as="geometry" />
        </mxCell>
        <mxCell id="Xeo_94hPjWmz_vQG5gyQ-89" style="edgeStyle=orthogonalEdgeStyle;rounded=0;orthogonalLoop=1;jettySize=auto;html=1;exitX=0.5;exitY=0;exitDx=0;exitDy=0;entryX=0.5;entryY=1;entryDx=0;entryDy=0;endArrow=none;endFill=0;startArrow=diamondThin;startFill=0;" edge="1" parent="1" source="Xeo_94hPjWmz_vQG5gyQ-94" target="Xeo_94hPjWmz_vQG5gyQ-96">
          <mxGeometry relative="1" as="geometry" />
        </mxCell>
        <mxCell id="Xeo_94hPjWmz_vQG5gyQ-90" style="edgeStyle=orthogonalEdgeStyle;rounded=0;orthogonalLoop=1;jettySize=auto;html=1;exitX=1;exitY=0.75;exitDx=0;exitDy=0;endArrow=none;endFill=0;startArrow=diamondThin;startFill=0;" edge="1" parent="1" source="Xeo_94hPjWmz_vQG5gyQ-94" target="Xeo_94hPjWmz_vQG5gyQ-97">
          <mxGeometry relative="1" as="geometry" />
        </mxCell>
        <mxCell id="Xeo_94hPjWmz_vQG5gyQ-91" style="edgeStyle=orthogonalEdgeStyle;rounded=0;orthogonalLoop=1;jettySize=auto;html=1;exitX=0;exitY=0.5;exitDx=0;exitDy=0;endArrow=none;endFill=0;startArrow=diamondThin;startFill=0;" edge="1" parent="1" source="Xeo_94hPjWmz_vQG5gyQ-94" target="Xeo_94hPjWmz_vQG5gyQ-98">
          <mxGeometry relative="1" as="geometry" />
        </mxCell>
        <mxCell id="Xeo_94hPjWmz_vQG5gyQ-92" style="edgeStyle=orthogonalEdgeStyle;rounded=0;orthogonalLoop=1;jettySize=auto;html=1;exitX=0.25;exitY=0;exitDx=0;exitDy=0;entryX=0.25;entryY=1;entryDx=0;entryDy=0;dashed=1;endArrow=open;endFill=0;" edge="1" parent="1" source="Xeo_94hPjWmz_vQG5gyQ-94" target="Xeo_94hPjWmz_vQG5gyQ-85">
          <mxGeometry relative="1" as="geometry">
            <Array as="points">
              <mxPoint x="1180" y="750" />
              <mxPoint x="1140" y="750" />
              <mxPoint x="1140" y="700" />
              <mxPoint x="1180" y="700" />
            </Array>
          </mxGeometry>
        </mxCell>
        <mxCell id="Xeo_94hPjWmz_vQG5gyQ-93" value="Change&lt;br&gt;in Energy&amp;nbsp;&lt;br&gt;Usage" style="edgeLabel;html=1;align=center;verticalAlign=middle;resizable=0;points=[];" vertex="1" connectable="0" parent="Xeo_94hPjWmz_vQG5gyQ-92">
          <mxGeometry x="0.04" y="-3" relative="1" as="geometry">
            <mxPoint as="offset" />
          </mxGeometry>
        </mxCell>
        <mxCell id="Xeo_94hPjWmz_vQG5gyQ-94" value="Function C&lt;div&gt;&amp;lt;Physical&amp;gt;&lt;/div&gt;" style="rounded=0;whiteSpace=wrap;html=1;" vertex="1" parent="1">
          <mxGeometry x="1150" y="770" width="120" height="60" as="geometry" />
        </mxCell>
        <mxCell id="Xeo_94hPjWmz_vQG5gyQ-95" value="Control&lt;br&gt;Signal" style="ellipse;whiteSpace=wrap;html=1;aspect=fixed;" vertex="1" parent="1">
          <mxGeometry x="1060" y="530" width="50" height="50" as="geometry" />
        </mxCell>
        <mxCell id="Xeo_94hPjWmz_vQG5gyQ-96" value="Internal Energy" style="ellipse;whiteSpace=wrap;html=1;aspect=fixed;" vertex="1" parent="1">
          <mxGeometry x="1185" y="700" width="50" height="50" as="geometry" />
        </mxCell>
        <mxCell id="Xeo_94hPjWmz_vQG5gyQ-97" value="External Energy&lt;br&gt;Out" style="ellipse;whiteSpace=wrap;html=1;aspect=fixed;" vertex="1" parent="1">
          <mxGeometry x="1310" y="800" width="60" height="60" as="geometry" />
        </mxCell>
        <mxCell id="Xeo_94hPjWmz_vQG5gyQ-98" value="External Material&lt;br&gt;In" style="ellipse;whiteSpace=wrap;html=1;aspect=fixed;" vertex="1" parent="1">
          <mxGeometry x="980" y="800" width="60" height="60" as="geometry" />
        </mxCell>
        <mxCell id="Xeo_94hPjWmz_vQG5gyQ-99" value="Changed&lt;br&gt;Signal&lt;br&gt;Input" style="endArrow=open;html=1;rounded=0;entryX=0.25;entryY=0;entryDx=0;entryDy=0;dashed=1;endFill=0;" edge="1" parent="1" target="Xeo_94hPjWmz_vQG5gyQ-79">
          <mxGeometry y="-10" width="50" height="50" relative="1" as="geometry">
            <mxPoint x="930" y="530" as="sourcePoint" />
            <mxPoint x="850" y="650" as="targetPoint" />
            <mxPoint as="offset" />
          </mxGeometry>
        </mxCell>
        <mxCell id="Xeo_94hPjWmz_vQG5gyQ-100" value="Material Provided" style="endArrow=open;html=1;rounded=0;dashed=1;entryX=0;entryY=0.25;entryDx=0;entryDy=0;endFill=0;" edge="1" parent="1" target="Xeo_94hPjWmz_vQG5gyQ-94">
          <mxGeometry width="50" height="50" relative="1" as="geometry">
            <mxPoint x="980" y="785" as="sourcePoint" />
            <mxPoint x="1120" y="790" as="targetPoint" />
          </mxGeometry>
        </mxCell>
        <mxCell id="Xeo_94hPjWmz_vQG5gyQ-101" value="Changed&lt;br&gt;Evac Rate" style="endArrow=open;html=1;rounded=0;dashed=1;entryX=1;entryY=0.25;entryDx=0;entryDy=0;endFill=0;" edge="1" parent="1" target="Xeo_94hPjWmz_vQG5gyQ-94">
          <mxGeometry width="50" height="50" relative="1" as="geometry">
            <mxPoint x="1370" y="785" as="sourcePoint" />
            <mxPoint x="1320" y="760" as="targetPoint" />
          </mxGeometry>
        </mxCell>
        <mxCell id="Xeo_94hPjWmz_vQG5gyQ-102" value="Material&lt;br&gt;Taken" style="endArrow=open;html=1;rounded=0;dashed=1;entryX=0.25;entryY=1;entryDx=0;entryDy=0;endFill=0;" edge="1" parent="1" target="Xeo_94hPjWmz_vQG5gyQ-94">
          <mxGeometry width="50" height="50" relative="1" as="geometry">
            <mxPoint x="1180" y="900" as="sourcePoint" />
            <mxPoint x="1210" y="845" as="targetPoint" />
          </mxGeometry>
        </mxCell>
        <mxCell id="Xeo_94hPjWmz_vQG5gyQ-103" value="" style="group" vertex="1" connectable="0" parent="1">
          <mxGeometry x="900" y="610" width="30" height="20" as="geometry" />
        </mxCell>
        <mxCell id="Xeo_94hPjWmz_vQG5gyQ-104" value="i:dt:o" style="shape=offPageConnector;whiteSpace=wrap;html=1;" vertex="1" parent="Xeo_94hPjWmz_vQG5gyQ-103">
          <mxGeometry width="30" height="20" as="geometry" />
        </mxCell>
        <mxCell id="Xeo_94hPjWmz_vQG5gyQ-105" style="edgeStyle=orthogonalEdgeStyle;rounded=0;orthogonalLoop=1;jettySize=auto;html=1;exitX=0;exitY=0;exitDx=0;exitDy=0;entryX=0.75;entryY=0;entryDx=0;entryDy=0;startArrow=baseDash;startFill=0;" edge="1" parent="Xeo_94hPjWmz_vQG5gyQ-103">
          <mxGeometry relative="1" as="geometry">
            <mxPoint x="22.5" as="targetPoint" />
            <Array as="points" />
            <mxPoint as="sourcePoint" />
          </mxGeometry>
        </mxCell>
        <mxCell id="Xeo_94hPjWmz_vQG5gyQ-106" value="" style="group" vertex="1" connectable="0" parent="1">
          <mxGeometry x="1150" y="620" width="30" height="20" as="geometry" />
        </mxCell>
        <mxCell id="Xeo_94hPjWmz_vQG5gyQ-107" value="i:dt:o" style="shape=offPageConnector;whiteSpace=wrap;html=1;" vertex="1" parent="Xeo_94hPjWmz_vQG5gyQ-106">
          <mxGeometry width="30" height="20" as="geometry" />
        </mxCell>
        <mxCell id="Xeo_94hPjWmz_vQG5gyQ-108" value="i:dt:off" style="shape=offPageConnector;whiteSpace=wrap;html=1;" vertex="1" parent="1">
          <mxGeometry x="1150" y="770" width="40" height="20" as="geometry" />
        </mxCell>
        <mxCell id="Xeo_94hPjWmz_vQG5gyQ-109" style="edgeStyle=orthogonalEdgeStyle;rounded=0;orthogonalLoop=1;jettySize=auto;html=1;exitX=0;exitY=0;exitDx=0;exitDy=0;entryX=1;entryY=0;entryDx=0;entryDy=0;endArrow=ERmany;endFill=0;" edge="1" parent="1" target="Xeo_94hPjWmz_vQG5gyQ-108">
          <mxGeometry relative="1" as="geometry">
            <mxPoint x="1165" y="770" as="targetPoint" />
            <Array as="points">
              <mxPoint x="1160" y="770" />
              <mxPoint x="1160" y="770" />
            </Array>
            <mxPoint x="1150" y="770" as="sourcePoint" />
          </mxGeometry>
        </mxCell>
        <mxCell id="Xeo_94hPjWmz_vQG5gyQ-110" value="&lt;b&gt;IR&lt;/b&gt;" style="rounded=0;whiteSpace=wrap;html=1;" vertex="1" parent="1">
          <mxGeometry x="1250" y="660" width="20" height="20" as="geometry" />
        </mxCell>
        <mxCell id="Xeo_94hPjWmz_vQG5gyQ-111" value="&lt;b&gt;IR&lt;/b&gt;" style="rounded=0;whiteSpace=wrap;html=1;" vertex="1" parent="1">
          <mxGeometry x="1000" y="650" width="20" height="20" as="geometry" />
        </mxCell>
        <mxCell id="Xeo_94hPjWmz_vQG5gyQ-112" value="&lt;b&gt;IS&lt;/b&gt;" style="rounded=0;whiteSpace=wrap;html=1;" vertex="1" parent="1">
          <mxGeometry x="1250" y="810" width="20" height="20" as="geometry" />
        </mxCell>
        <mxCell id="Xeo_94hPjWmz_vQG5gyQ-113" value="Changed&lt;br&gt;Potential" style="endArrow=open;html=1;rounded=0;dashed=1;entryX=0;entryY=0.75;entryDx=0;entryDy=0;edgeStyle=orthogonalEdgeStyle;endFill=0;" edge="1" parent="1" target="Xeo_94hPjWmz_vQG5gyQ-85">
          <mxGeometry x="0.2885" width="50" height="50" relative="1" as="geometry">
            <mxPoint x="980" y="750" as="sourcePoint" />
            <mxPoint x="1090" y="759.5699999999999" as="targetPoint" />
            <Array as="points">
              <mxPoint x="980" y="750" />
              <mxPoint x="1090" y="750" />
              <mxPoint x="1090" y="665" />
            </Array>
            <mxPoint as="offset" />
          </mxGeometry>
        </mxCell>
        <mxCell id="Xeo_94hPjWmz_vQG5gyQ-114" value="" style="endArrow=none;dashed=1;html=1;dashPattern=1 3;strokeWidth=2;rounded=0;" edge="1" parent="1">
          <mxGeometry width="50" height="50" relative="1" as="geometry">
            <mxPoint x="230" y="940" as="sourcePoint" />
            <mxPoint x="750" y="940" as="targetPoint" />
          </mxGeometry>
        </mxCell>
        <mxCell id="Xeo_94hPjWmz_vQG5gyQ-115" value="" style="endArrow=none;dashed=1;html=1;dashPattern=1 3;strokeWidth=2;rounded=0;" edge="1" parent="1">
          <mxGeometry width="50" height="50" relative="1" as="geometry">
            <mxPoint x="830" y="940" as="sourcePoint" />
            <mxPoint x="1470" y="940" as="targetPoint" />
          </mxGeometry>
        </mxCell>
        <mxCell id="Xeo_94hPjWmz_vQG5gyQ-116" value="Action 1&lt;br&gt;Complete" style="edgeStyle=orthogonalEdgeStyle;rounded=0;orthogonalLoop=1;jettySize=auto;html=1;exitX=1;exitY=0.5;exitDx=0;exitDy=0;dashed=1;fillColor=#e1d5e7;strokeColor=#000000;endArrow=open;endFill=0;" edge="1" parent="1" source="Xeo_94hPjWmz_vQG5gyQ-117" target="Xeo_94hPjWmz_vQG5gyQ-120">
          <mxGeometry x="-0.1429" relative="1" as="geometry">
            <mxPoint as="offset" />
          </mxGeometry>
        </mxCell>
        <mxCell id="Xeo_94hPjWmz_vQG5gyQ-117" value="Action 1" style="rounded=1;whiteSpace=wrap;html=1;" vertex="1" parent="1">
          <mxGeometry x="949.97" y="1100.01" width="80" height="40" as="geometry" />
        </mxCell>
        <mxCell id="Xeo_94hPjWmz_vQG5gyQ-118" value="Action 2&lt;br&gt;Complete" style="edgeStyle=orthogonalEdgeStyle;rounded=0;orthogonalLoop=1;jettySize=auto;html=1;exitX=1;exitY=0.5;exitDx=0;exitDy=0;dashed=1;entryX=0;entryY=1;entryDx=0;entryDy=0;fillColor=#e1d5e7;strokeColor=#000000;endArrow=open;endFill=0;" edge="1" parent="1" source="Xeo_94hPjWmz_vQG5gyQ-120" target="Xeo_94hPjWmz_vQG5gyQ-141">
          <mxGeometry x="-0.25" relative="1" as="geometry">
            <mxPoint x="1269.97" y="1130.01" as="targetPoint" />
            <Array as="points">
              <mxPoint x="1249.97" y="1120.01" />
              <mxPoint x="1249.97" y="1120.01" />
            </Array>
            <mxPoint as="offset" />
          </mxGeometry>
        </mxCell>
        <mxCell id="Xeo_94hPjWmz_vQG5gyQ-119" value="Action 2&lt;br&gt;Failed" style="edgeStyle=orthogonalEdgeStyle;rounded=0;orthogonalLoop=1;jettySize=auto;html=1;exitX=0.75;exitY=0;exitDx=0;exitDy=0;entryX=0.5;entryY=1;entryDx=0;entryDy=0;dashed=1;endArrow=open;endFill=0;" edge="1" parent="1" source="Xeo_94hPjWmz_vQG5gyQ-120" target="Xeo_94hPjWmz_vQG5gyQ-140">
          <mxGeometry x="-0.4286" y="-10" relative="1" as="geometry">
            <mxPoint as="offset" />
          </mxGeometry>
        </mxCell>
        <mxCell id="Xeo_94hPjWmz_vQG5gyQ-120" value="Action 2" style="rounded=1;whiteSpace=wrap;html=1;" vertex="1" parent="1">
          <mxGeometry x="1109.97" y="1100.01" width="80" height="40" as="geometry" />
        </mxCell>
        <mxCell id="Xeo_94hPjWmz_vQG5gyQ-121" value="Action 3" style="rounded=1;whiteSpace=wrap;html=1;" vertex="1" parent="1">
          <mxGeometry x="1269.97" y="1100.01" width="80" height="40" as="geometry" />
        </mxCell>
        <mxCell id="Xeo_94hPjWmz_vQG5gyQ-122" value="" style="group" vertex="1" connectable="0" parent="1">
          <mxGeometry x="949.97" y="1100.01" width="20" height="20" as="geometry" />
        </mxCell>
        <mxCell id="Xeo_94hPjWmz_vQG5gyQ-123" value="0::" style="shape=offPageConnector;whiteSpace=wrap;html=1;" vertex="1" parent="Xeo_94hPjWmz_vQG5gyQ-122">
          <mxGeometry width="20" height="20" as="geometry" />
        </mxCell>
        <mxCell id="Xeo_94hPjWmz_vQG5gyQ-124" style="edgeStyle=orthogonalEdgeStyle;rounded=0;orthogonalLoop=1;jettySize=auto;html=1;exitX=0;exitY=0;exitDx=0;exitDy=0;entryX=0.75;entryY=0;entryDx=0;entryDy=0;startArrow=baseDash;startFill=0;" edge="1" parent="Xeo_94hPjWmz_vQG5gyQ-122">
          <mxGeometry relative="1" as="geometry">
            <mxPoint x="15" as="targetPoint" />
            <Array as="points" />
            <mxPoint as="sourcePoint" />
          </mxGeometry>
        </mxCell>
        <mxCell id="Xeo_94hPjWmz_vQG5gyQ-125" style="edgeStyle=orthogonalEdgeStyle;rounded=0;orthogonalLoop=1;jettySize=auto;html=1;exitX=0;exitY=0.5;exitDx=0;exitDy=0;endArrow=diamondThin;endFill=0;startArrow=none;startFill=0;" edge="1" parent="1" source="Xeo_94hPjWmz_vQG5gyQ-131" target="Xeo_94hPjWmz_vQG5gyQ-117">
          <mxGeometry relative="1" as="geometry" />
        </mxCell>
        <mxCell id="Xeo_94hPjWmz_vQG5gyQ-126" value="affects" style="edgeLabel;html=1;align=center;verticalAlign=middle;resizable=0;points=[];" vertex="1" connectable="0" parent="Xeo_94hPjWmz_vQG5gyQ-125">
          <mxGeometry x="0.5079" y="2" relative="1" as="geometry">
            <mxPoint x="2" y="15" as="offset" />
          </mxGeometry>
        </mxCell>
        <mxCell id="Xeo_94hPjWmz_vQG5gyQ-127" style="edgeStyle=orthogonalEdgeStyle;rounded=0;orthogonalLoop=1;jettySize=auto;html=1;exitX=1;exitY=0.5;exitDx=0;exitDy=0;entryX=0.5;entryY=1;entryDx=0;entryDy=0;endArrow=diamondThin;endFill=0;startArrow=none;startFill=0;" edge="1" parent="1" source="Xeo_94hPjWmz_vQG5gyQ-131" target="Xeo_94hPjWmz_vQG5gyQ-120">
          <mxGeometry relative="1" as="geometry" />
        </mxCell>
        <mxCell id="Xeo_94hPjWmz_vQG5gyQ-128" value="modifies" style="edgeLabel;html=1;align=center;verticalAlign=middle;resizable=0;points=[];" vertex="1" connectable="0" parent="Xeo_94hPjWmz_vQG5gyQ-127">
          <mxGeometry x="0.6764" y="-1" relative="1" as="geometry">
            <mxPoint as="offset" />
          </mxGeometry>
        </mxCell>
        <mxCell id="Xeo_94hPjWmz_vQG5gyQ-129" style="edgeStyle=orthogonalEdgeStyle;rounded=0;orthogonalLoop=1;jettySize=auto;html=1;exitX=1;exitY=0.5;exitDx=0;exitDy=0;entryX=0.5;entryY=1;entryDx=0;entryDy=0;endArrow=diamondThin;endFill=0;startArrow=none;startFill=0;" edge="1" parent="1" source="Xeo_94hPjWmz_vQG5gyQ-131" target="Xeo_94hPjWmz_vQG5gyQ-121">
          <mxGeometry relative="1" as="geometry" />
        </mxCell>
        <mxCell id="Xeo_94hPjWmz_vQG5gyQ-130" value="uses" style="edgeLabel;html=1;align=center;verticalAlign=middle;resizable=0;points=[];" vertex="1" connectable="0" parent="Xeo_94hPjWmz_vQG5gyQ-129">
          <mxGeometry x="0.8609" y="-2" relative="1" as="geometry">
            <mxPoint as="offset" />
          </mxGeometry>
        </mxCell>
        <mxCell id="Xeo_94hPjWmz_vQG5gyQ-131" value="Affected&lt;br&gt;Flow 2" style="ellipse;whiteSpace=wrap;html=1;aspect=fixed;" vertex="1" parent="1">
          <mxGeometry x="1019.97" y="1140.01" width="60" height="60" as="geometry" />
        </mxCell>
        <mxCell id="Xeo_94hPjWmz_vQG5gyQ-132" style="edgeStyle=orthogonalEdgeStyle;rounded=0;orthogonalLoop=1;jettySize=auto;html=1;exitX=0;exitY=0.5;exitDx=0;exitDy=0;entryX=0.5;entryY=0;entryDx=0;entryDy=0;endArrow=diamondThin;endFill=0;startArrow=none;startFill=0;" edge="1" parent="1" source="Xeo_94hPjWmz_vQG5gyQ-138" target="Xeo_94hPjWmz_vQG5gyQ-117">
          <mxGeometry relative="1" as="geometry" />
        </mxCell>
        <mxCell id="Xeo_94hPjWmz_vQG5gyQ-133" value="uses" style="edgeLabel;html=1;align=center;verticalAlign=middle;resizable=0;points=[];" vertex="1" connectable="0" parent="Xeo_94hPjWmz_vQG5gyQ-132">
          <mxGeometry x="0.3486" y="2" relative="1" as="geometry">
            <mxPoint x="-2" as="offset" />
          </mxGeometry>
        </mxCell>
        <mxCell id="Xeo_94hPjWmz_vQG5gyQ-134" style="edgeStyle=orthogonalEdgeStyle;rounded=0;orthogonalLoop=1;jettySize=auto;html=1;exitX=1;exitY=0.5;exitDx=0;exitDy=0;entryX=0.25;entryY=0;entryDx=0;entryDy=0;endArrow=diamondThin;endFill=0;startArrow=none;startFill=0;" edge="1" parent="1" source="Xeo_94hPjWmz_vQG5gyQ-138" target="Xeo_94hPjWmz_vQG5gyQ-120">
          <mxGeometry relative="1" as="geometry" />
        </mxCell>
        <mxCell id="Xeo_94hPjWmz_vQG5gyQ-135" value="uses" style="edgeLabel;html=1;align=center;verticalAlign=middle;resizable=0;points=[];" vertex="1" connectable="0" parent="Xeo_94hPjWmz_vQG5gyQ-134">
          <mxGeometry x="-0.4158" relative="1" as="geometry">
            <mxPoint as="offset" />
          </mxGeometry>
        </mxCell>
        <mxCell id="Xeo_94hPjWmz_vQG5gyQ-136" style="edgeStyle=orthogonalEdgeStyle;rounded=0;orthogonalLoop=1;jettySize=auto;html=1;exitX=0.937;exitY=0.283;exitDx=0;exitDy=0;entryX=0;entryY=0.5;entryDx=0;entryDy=0;endArrow=diamondThin;endFill=0;startArrow=none;startFill=0;exitPerimeter=0;" edge="1" parent="1" source="Xeo_94hPjWmz_vQG5gyQ-138" target="Xeo_94hPjWmz_vQG5gyQ-140">
          <mxGeometry relative="1" as="geometry">
            <Array as="points">
              <mxPoint x="1079.97" y="1047.01" />
              <mxPoint x="1079.97" y="1035.01" />
            </Array>
          </mxGeometry>
        </mxCell>
        <mxCell id="Xeo_94hPjWmz_vQG5gyQ-137" value="uses" style="edgeLabel;html=1;align=center;verticalAlign=middle;resizable=0;points=[];" vertex="1" connectable="0" parent="Xeo_94hPjWmz_vQG5gyQ-136">
          <mxGeometry x="-0.0695" y="1" relative="1" as="geometry">
            <mxPoint as="offset" />
          </mxGeometry>
        </mxCell>
        <mxCell id="Xeo_94hPjWmz_vQG5gyQ-138" value="Affected Flow 1" style="ellipse;whiteSpace=wrap;html=1;aspect=fixed;" vertex="1" parent="1">
          <mxGeometry x="1009.97" y="1030.01" width="60" height="60" as="geometry" />
        </mxCell>
        <mxCell id="Xeo_94hPjWmz_vQG5gyQ-139" value="Action 4&lt;br&gt;Complete" style="edgeStyle=orthogonalEdgeStyle;rounded=0;orthogonalLoop=1;jettySize=auto;html=1;exitX=0.5;exitY=0;exitDx=0;exitDy=0;entryX=0;entryY=0.5;entryDx=0;entryDy=0;dashed=1;fillColor=#e1d5e7;strokeColor=#000000;endArrow=open;endFill=0;" edge="1" parent="1" source="Xeo_94hPjWmz_vQG5gyQ-140" target="Xeo_94hPjWmz_vQG5gyQ-117">
          <mxGeometry x="0.027" y="10" relative="1" as="geometry">
            <Array as="points">
              <mxPoint x="1149.97" y="1010.01" />
              <mxPoint x="929.97" y="1010.01" />
              <mxPoint x="929.97" y="1120.01" />
            </Array>
            <mxPoint as="offset" />
          </mxGeometry>
        </mxCell>
        <mxCell id="Xeo_94hPjWmz_vQG5gyQ-140" value="Action 4" style="rounded=1;whiteSpace=wrap;html=1;" vertex="1" parent="1">
          <mxGeometry x="1109.97" y="1020.01" width="80" height="30" as="geometry" />
        </mxCell>
        <mxCell id="Xeo_94hPjWmz_vQG5gyQ-141" value="::e" style="shape=offPageConnector;whiteSpace=wrap;html=1;" vertex="1" parent="1">
          <mxGeometry x="1269.97" y="1100.01" width="20" height="20" as="geometry" />
        </mxCell>
        <mxCell id="Xeo_94hPjWmz_vQG5gyQ-142" style="edgeStyle=orthogonalEdgeStyle;rounded=0;orthogonalLoop=1;jettySize=auto;html=1;exitX=0;exitY=0;exitDx=0;exitDy=0;entryX=1;entryY=0;entryDx=0;entryDy=0;endArrow=ERmany;endFill=0;" edge="1" parent="1" target="Xeo_94hPjWmz_vQG5gyQ-141">
          <mxGeometry relative="1" as="geometry">
            <mxPoint x="1294.97" y="1100.01" as="targetPoint" />
            <Array as="points" />
            <mxPoint x="1279.97" y="1100.01" as="sourcePoint" />
          </mxGeometry>
        </mxCell>
        <mxCell id="Xeo_94hPjWmz_vQG5gyQ-143" value="" style="endArrow=none;dashed=1;html=1;dashPattern=1 3;strokeWidth=2;rounded=0;" edge="1" parent="1">
          <mxGeometry width="50" height="50" relative="1" as="geometry">
            <mxPoint x="829.97" y="1220" as="sourcePoint" />
            <mxPoint x="1469.97" y="1220" as="targetPoint" />
          </mxGeometry>
        </mxCell>
        <mxCell id="Xeo_94hPjWmz_vQG5gyQ-144" style="edgeStyle=orthogonalEdgeStyle;rounded=0;orthogonalLoop=1;jettySize=auto;html=1;exitX=0;exitY=0.5;exitDx=0;exitDy=0;endArrow=none;endFill=0;startArrow=diamondThin;startFill=0;" edge="1" parent="1" source="Xeo_94hPjWmz_vQG5gyQ-146" target="Xeo_94hPjWmz_vQG5gyQ-150">
          <mxGeometry relative="1" as="geometry" />
        </mxCell>
        <mxCell id="Xeo_94hPjWmz_vQG5gyQ-145" style="edgeStyle=orthogonalEdgeStyle;rounded=0;orthogonalLoop=1;jettySize=auto;html=1;exitX=0.5;exitY=0;exitDx=0;exitDy=0;startArrow=diamondThin;startFill=0;entryX=1;entryY=0.365;entryDx=0;entryDy=0;entryPerimeter=0;endArrow=none;endFill=0;" edge="1" parent="1" source="Xeo_94hPjWmz_vQG5gyQ-146" target="Xeo_94hPjWmz_vQG5gyQ-151">
          <mxGeometry relative="1" as="geometry">
            <Array as="points">
              <mxPoint x="1208.99" y="1310.01" />
              <mxPoint x="1138.99" y="1310.01" />
              <mxPoint x="1138.99" y="1275.01" />
              <mxPoint x="1108.99" y="1275.01" />
            </Array>
          </mxGeometry>
        </mxCell>
        <mxCell id="Xeo_94hPjWmz_vQG5gyQ-146" value="Component B&lt;br&gt;(left)" style="shape=trapezoid;perimeter=trapezoidPerimeter;whiteSpace=wrap;html=1;fixedSize=1;" vertex="1" parent="1">
          <mxGeometry x="1158.99" y="1340.01" width="100" height="60" as="geometry" />
        </mxCell>
        <mxCell id="Xeo_94hPjWmz_vQG5gyQ-147" style="edgeStyle=orthogonalEdgeStyle;rounded=0;orthogonalLoop=1;jettySize=auto;html=1;exitX=1;exitY=0.5;exitDx=0;exitDy=0;entryX=0;entryY=0.5;entryDx=0;entryDy=0;endArrow=none;endFill=0;startArrow=diamondThin;startFill=0;" edge="1" parent="1" source="Xeo_94hPjWmz_vQG5gyQ-149" target="Xeo_94hPjWmz_vQG5gyQ-150">
          <mxGeometry relative="1" as="geometry" />
        </mxCell>
        <mxCell id="Xeo_94hPjWmz_vQG5gyQ-148" style="edgeStyle=orthogonalEdgeStyle;rounded=0;orthogonalLoop=1;jettySize=auto;html=1;exitX=0.5;exitY=0;exitDx=0;exitDy=0;startArrow=diamondThin;startFill=0;entryX=-0.026;entryY=0.323;entryDx=0;entryDy=0;entryPerimeter=0;endArrow=none;endFill=0;" edge="1" parent="1" source="Xeo_94hPjWmz_vQG5gyQ-149">
          <mxGeometry relative="1" as="geometry">
            <Array as="points">
              <mxPoint x="938.99" y="1312.01" />
              <mxPoint x="1008.99" y="1312.01" />
              <mxPoint x="1008.99" y="1275.01" />
            </Array>
            <mxPoint x="938.99" y="1342.01" as="sourcePoint" />
            <mxPoint x="1037.1699999999998" y="1274.9299999999998" as="targetPoint" />
          </mxGeometry>
        </mxCell>
        <mxCell id="Xeo_94hPjWmz_vQG5gyQ-149" value="Component A&lt;br&gt;(right)" style="shape=trapezoid;perimeter=trapezoidPerimeter;whiteSpace=wrap;html=1;fixedSize=1;" vertex="1" parent="1">
          <mxGeometry x="888.99" y="1340.01" width="100" height="60" as="geometry" />
        </mxCell>
        <mxCell id="Xeo_94hPjWmz_vQG5gyQ-150" value="Interaction Flow (e.g. Force)" style="ellipse;whiteSpace=wrap;html=1;aspect=fixed;" vertex="1" parent="1">
          <mxGeometry x="1048.99" y="1340.01" width="60" height="60" as="geometry" />
        </mxCell>
        <mxCell id="Xeo_94hPjWmz_vQG5gyQ-151" value="Input&lt;br&gt;Signal" style="whiteSpace=wrap;html=1;shape=mxgraph.basic.pentagon" vertex="1" parent="1">
          <mxGeometry x="1038.99" y="1260.01" width="70" height="40" as="geometry" />
        </mxCell>
        <mxCell id="Xeo_94hPjWmz_vQG5gyQ-152" value="New&lt;br&gt;Input Signal" style="endArrow=open;html=1;rounded=0;dashed=1;entryX=0.25;entryY=0;entryDx=0;entryDy=0;edgeStyle=orthogonalEdgeStyle;endFill=0;" edge="1" parent="1">
          <mxGeometry x="-0.5" width="50" height="50" relative="1" as="geometry">
            <mxPoint x="1228.99" y="1260.01" as="sourcePoint" />
            <mxPoint x="1228.99" y="1340.01" as="targetPoint" />
            <Array as="points">
              <mxPoint x="1228.99" y="1290.01" />
              <mxPoint x="1228.99" y="1290.01" />
            </Array>
            <mxPoint as="offset" />
          </mxGeometry>
        </mxCell>
        <mxCell id="Xeo_94hPjWmz_vQG5gyQ-153" value="New Interaction&lt;br&gt;Flow Value" style="endArrow=open;html=1;rounded=0;dashed=1;entryX=1;entryY=0.25;entryDx=0;entryDy=0;edgeStyle=orthogonalEdgeStyle;exitX=0;exitY=0.25;exitDx=0;exitDy=0;endFill=0;" edge="1" parent="1" source="Xeo_94hPjWmz_vQG5gyQ-146" target="Xeo_94hPjWmz_vQG5gyQ-149">
          <mxGeometry x="-0.0393" y="-10" width="50" height="50" relative="1" as="geometry">
            <mxPoint x="1058.99" y="1330.01" as="sourcePoint" />
            <mxPoint x="1058.99" y="1450.01" as="targetPoint" />
            <Array as="points">
              <mxPoint x="1138.99" y="1359.01" />
              <mxPoint x="1138.99" y="1330.01" />
              <mxPoint x="1008.99" y="1330.01" />
              <mxPoint x="1008.99" y="1359.01" />
            </Array>
            <mxPoint as="offset" />
          </mxGeometry>
        </mxCell>
        <mxCell id="Xeo_94hPjWmz_vQG5gyQ-154" value="New Interaction&lt;br&gt;Flow Value" style="endArrow=open;html=1;rounded=0;dashed=1;entryX=0;entryY=0.75;entryDx=0;entryDy=0;edgeStyle=orthogonalEdgeStyle;exitX=1;exitY=0.75;exitDx=0;exitDy=0;endFill=0;" edge="1" parent="1" source="Xeo_94hPjWmz_vQG5gyQ-149" target="Xeo_94hPjWmz_vQG5gyQ-146">
          <mxGeometry x="-0.071" y="-6" width="50" height="50" relative="1" as="geometry">
            <mxPoint x="1096.99" y="1450.01" as="sourcePoint" />
            <mxPoint x="938.99" y="1450.01" as="targetPoint" />
            <Array as="points">
              <mxPoint x="1008.99" y="1384.01" />
              <mxPoint x="1008.99" y="1410.01" />
              <mxPoint x="1138.99" y="1410.01" />
              <mxPoint x="1138.99" y="1384.01" />
            </Array>
            <mxPoint as="offset" />
          </mxGeometry>
        </mxCell>
        <mxCell id="Xeo_94hPjWmz_vQG5gyQ-155" value="Flow to&lt;br&gt;Affect" style="whiteSpace=wrap;html=1;shape=mxgraph.basic.pentagon;align=center;" vertex="1" parent="1">
          <mxGeometry x="1038.99" y="1430.01" width="70" height="40" as="geometry" />
        </mxCell>
        <mxCell id="Xeo_94hPjWmz_vQG5gyQ-156" style="edgeStyle=orthogonalEdgeStyle;rounded=0;orthogonalLoop=1;jettySize=auto;html=1;exitX=0.5;exitY=1;exitDx=0;exitDy=0;entryX=1;entryY=0.365;entryDx=0;entryDy=0;entryPerimeter=0;startArrow=diamondThin;startFill=0;endArrow=none;endFill=0;" edge="1" parent="1" source="Xeo_94hPjWmz_vQG5gyQ-146" target="Xeo_94hPjWmz_vQG5gyQ-155">
          <mxGeometry relative="1" as="geometry" />
        </mxCell>
        <mxCell id="Xeo_94hPjWmz_vQG5gyQ-157" style="edgeStyle=orthogonalEdgeStyle;rounded=0;orthogonalLoop=1;jettySize=auto;html=1;entryX=0;entryY=0.365;entryDx=0;entryDy=0;entryPerimeter=0;startArrow=diamondThin;startFill=0;endArrow=none;endFill=0;" edge="1" parent="1" target="Xeo_94hPjWmz_vQG5gyQ-155">
          <mxGeometry relative="1" as="geometry">
            <mxPoint x="928.99" y="1400.01" as="sourcePoint" />
            <Array as="points">
              <mxPoint x="928.99" y="1400.01" />
              <mxPoint x="928.99" y="1462.01" />
            </Array>
          </mxGeometry>
        </mxCell>
        <mxCell id="Xeo_94hPjWmz_vQG5gyQ-158" value="New&lt;br&gt;Input Signal" style="endArrow=open;html=1;rounded=0;dashed=1;entryX=0.25;entryY=0;entryDx=0;entryDy=0;edgeStyle=orthogonalEdgeStyle;endFill=0;" edge="1" parent="1">
          <mxGeometry x="-0.5" width="50" height="50" relative="1" as="geometry">
            <mxPoint x="918.99" y="1260.01" as="sourcePoint" />
            <mxPoint x="918.99" y="1340.01" as="targetPoint" />
            <Array as="points">
              <mxPoint x="918.99" y="1290.01" />
              <mxPoint x="918.99" y="1290.01" />
            </Array>
            <mxPoint as="offset" />
          </mxGeometry>
        </mxCell>
        <mxCell id="Xeo_94hPjWmz_vQG5gyQ-159" value="" style="endArrow=none;dashed=1;html=1;dashPattern=1 3;strokeWidth=2;rounded=0;" edge="1" parent="1">
          <mxGeometry width="50" height="50" relative="1" as="geometry">
            <mxPoint x="-530" y="1490" as="sourcePoint" />
            <mxPoint x="-540" y="60" as="targetPoint" />
          </mxGeometry>
        </mxCell>
        <mxCell id="Xeo_94hPjWmz_vQG5gyQ-160" value="&lt;span style=&quot;font-size: 20px;&quot;&gt;High-level Function Diagram&lt;/span&gt;" style="text;html=1;strokeColor=none;fillColor=none;align=center;verticalAlign=middle;whiteSpace=wrap;rounded=0;fontStyle=1;fontSize=20;" vertex="1" parent="1">
          <mxGeometry x="-710" y="160" width="175" height="30" as="geometry" />
        </mxCell>
        <mxCell id="Xeo_94hPjWmz_vQG5gyQ-161" value="&lt;span style=&quot;font-size: 20px;&quot;&gt;Functional Architecture Diagram&lt;/span&gt;" style="text;html=1;strokeColor=none;fillColor=none;align=center;verticalAlign=middle;whiteSpace=wrap;rounded=0;fontStyle=1;fontSize=20;" vertex="1" parent="1">
          <mxGeometry x="-730" y="495" width="195" height="30" as="geometry" />
        </mxCell>
        <mxCell id="Xeo_94hPjWmz_vQG5gyQ-162" value="&lt;span style=&quot;font-size: 20px;&quot;&gt;Controls Diagram&lt;/span&gt;" style="text;html=1;strokeColor=none;fillColor=none;align=center;verticalAlign=middle;whiteSpace=wrap;rounded=0;fontStyle=1;fontSize=20;" vertex="1" parent="1">
          <mxGeometry x="-730" y="975" width="195" height="30" as="geometry" />
        </mxCell>
        <mxCell id="Xeo_94hPjWmz_vQG5gyQ-163" value="&lt;span style=&quot;font-size: 20px;&quot;&gt;Component Diagram&lt;/span&gt;" style="text;html=1;strokeColor=none;fillColor=none;align=center;verticalAlign=middle;whiteSpace=wrap;rounded=0;fontStyle=1;fontSize=20;" vertex="1" parent="1">
          <mxGeometry x="-720" y="1375" width="195" height="30" as="geometry" />
        </mxCell>
        <mxCell id="Xeo_94hPjWmz_vQG5gyQ-164" value="" style="endArrow=none;dashed=1;html=1;dashPattern=1 3;strokeWidth=2;rounded=0;" edge="1" parent="1">
          <mxGeometry width="50" height="50" relative="1" as="geometry">
            <mxPoint x="-290" y="450" as="sourcePoint" />
            <mxPoint x="155" y="450" as="targetPoint" />
          </mxGeometry>
        </mxCell>
        <mxCell id="Xeo_94hPjWmz_vQG5gyQ-165" value="" style="endArrow=none;dashed=1;html=1;dashPattern=1 3;strokeWidth=2;rounded=0;" edge="1" parent="1">
          <mxGeometry width="50" height="50" relative="1" as="geometry">
            <mxPoint x="-290" y="940" as="sourcePoint" />
            <mxPoint x="155" y="940" as="targetPoint" />
          </mxGeometry>
        </mxCell>
        <mxCell id="Xeo_94hPjWmz_vQG5gyQ-166" value="" style="rounded=1;whiteSpace=wrap;html=1;fillColor=#f8cecc;strokeColor=#b85450;dashed=1;strokeWidth=2;" vertex="1" parent="1">
          <mxGeometry x="-300" y="647.5" width="390" height="60" as="geometry" />
        </mxCell>
        <mxCell id="Xeo_94hPjWmz_vQG5gyQ-167" value="" style="rounded=1;whiteSpace=wrap;html=1;fillColor=#dae8fc;strokeColor=#6c8ebf;dashed=1;strokeWidth=2;" vertex="1" parent="1">
          <mxGeometry x="-230" y="577.5" width="150" height="130" as="geometry" />
        </mxCell>
        <mxCell id="Xeo_94hPjWmz_vQG5gyQ-168" style="edgeStyle=orthogonalEdgeStyle;rounded=0;orthogonalLoop=1;jettySize=auto;html=1;exitX=1;exitY=0.5;exitDx=0;exitDy=0;" edge="1" parent="1" source="Xeo_94hPjWmz_vQG5gyQ-169">
          <mxGeometry relative="1" as="geometry">
            <mxPoint x="140" y="657.5" as="targetPoint" />
            <Array as="points">
              <mxPoint x="110" y="617.5" />
              <mxPoint x="110" y="657.5" />
            </Array>
          </mxGeometry>
        </mxCell>
        <mxCell id="Xeo_94hPjWmz_vQG5gyQ-169" value="Function A" style="rounded=0;whiteSpace=wrap;html=1;" vertex="1" parent="1">
          <mxGeometry x="-220" y="597.5" width="130" height="40" as="geometry" />
        </mxCell>
        <mxCell id="Xeo_94hPjWmz_vQG5gyQ-170" style="edgeStyle=orthogonalEdgeStyle;rounded=0;orthogonalLoop=1;jettySize=auto;html=1;exitX=1;exitY=0.5;exitDx=0;exitDy=0;entryX=0;entryY=0.5;entryDx=0;entryDy=0;" edge="1" parent="1" source="Xeo_94hPjWmz_vQG5gyQ-171" target="Xeo_94hPjWmz_vQG5gyQ-173">
          <mxGeometry relative="1" as="geometry" />
        </mxCell>
        <mxCell id="Xeo_94hPjWmz_vQG5gyQ-171" value="Function B" style="rounded=0;whiteSpace=wrap;html=1;" vertex="1" parent="1">
          <mxGeometry x="-220" y="657.5" width="130" height="40" as="geometry" />
        </mxCell>
        <mxCell id="Xeo_94hPjWmz_vQG5gyQ-172" style="edgeStyle=orthogonalEdgeStyle;rounded=0;orthogonalLoop=1;jettySize=auto;html=1;exitX=1;exitY=0.5;exitDx=0;exitDy=0;" edge="1" parent="1" source="Xeo_94hPjWmz_vQG5gyQ-173">
          <mxGeometry relative="1" as="geometry">
            <mxPoint x="140" y="657.5" as="targetPoint" />
          </mxGeometry>
        </mxCell>
        <mxCell id="Xeo_94hPjWmz_vQG5gyQ-173" value="Function C" style="rounded=0;whiteSpace=wrap;html=1;" vertex="1" parent="1">
          <mxGeometry x="-50" y="657.5" width="130" height="40" as="geometry" />
        </mxCell>
        <mxCell id="Xeo_94hPjWmz_vQG5gyQ-174" style="edgeStyle=orthogonalEdgeStyle;rounded=0;orthogonalLoop=1;jettySize=auto;html=1;entryX=0;entryY=0.5;entryDx=0;entryDy=0;" edge="1" parent="1" target="Xeo_94hPjWmz_vQG5gyQ-169">
          <mxGeometry relative="1" as="geometry">
            <mxPoint x="-300" y="637.5" as="sourcePoint" />
            <mxPoint x="-290" y="637" as="targetPoint" />
            <Array as="points">
              <mxPoint x="-260" y="637.5" />
              <mxPoint x="-260" y="617.5" />
            </Array>
          </mxGeometry>
        </mxCell>
        <mxCell id="Xeo_94hPjWmz_vQG5gyQ-175" style="edgeStyle=orthogonalEdgeStyle;rounded=0;orthogonalLoop=1;jettySize=auto;html=1;entryX=0;entryY=0.5;entryDx=0;entryDy=0;" edge="1" parent="1" target="Xeo_94hPjWmz_vQG5gyQ-171">
          <mxGeometry relative="1" as="geometry">
            <mxPoint x="-300" y="637.5" as="sourcePoint" />
            <mxPoint x="-220" y="617.5" as="targetPoint" />
            <Array as="points">
              <mxPoint x="-260" y="637.5" />
              <mxPoint x="-260" y="677.5" />
            </Array>
          </mxGeometry>
        </mxCell>
        <mxCell id="Xeo_94hPjWmz_vQG5gyQ-176" value="Parallel Functions" style="text;html=1;strokeColor=none;fillColor=none;align=center;verticalAlign=middle;whiteSpace=wrap;rounded=0;" vertex="1" parent="1">
          <mxGeometry x="-205" y="572.5" width="100" height="30" as="geometry" />
        </mxCell>
        <mxCell id="Xeo_94hPjWmz_vQG5gyQ-177" value="Sequential Functions" style="text;html=1;strokeColor=none;fillColor=none;align=center;verticalAlign=middle;whiteSpace=wrap;rounded=0;" vertex="1" parent="1">
          <mxGeometry x="-300" y="677.5" width="70" height="30" as="geometry" />
        </mxCell>
        <mxCell id="Xeo_94hPjWmz_vQG5gyQ-178" value="" style="ellipse;whiteSpace=wrap;html=1;aspect=fixed;fillColor=#000000;" vertex="1" parent="1">
          <mxGeometry x="108" y="654.5" width="5" height="5" as="geometry" />
        </mxCell>
        <mxCell id="Xeo_94hPjWmz_vQG5gyQ-179" value="" style="ellipse;whiteSpace=wrap;html=1;aspect=fixed;fillColor=#000000;" vertex="1" parent="1">
          <mxGeometry x="-262" y="635" width="5" height="5" as="geometry" />
        </mxCell>
        <mxCell id="Xeo_94hPjWmz_vQG5gyQ-180" value="&lt;b style=&quot;font-size: 20px;&quot;&gt;F/FA Diagram&lt;/b&gt;" style="text;html=1;strokeColor=none;fillColor=none;align=center;verticalAlign=middle;whiteSpace=wrap;rounded=0;fontSize=20;" vertex="1" parent="1">
          <mxGeometry x="-170" y="20" width="175" height="30" as="geometry" />
        </mxCell>
        <mxCell id="Xeo_94hPjWmz_vQG5gyQ-181" value="Function Name" style="rounded=0;whiteSpace=wrap;html=1;" vertex="1" parent="1">
          <mxGeometry x="-120" y="145" width="130" height="195" as="geometry" />
        </mxCell>
        <mxCell id="Xeo_94hPjWmz_vQG5gyQ-182" value="" style="endArrow=classic;html=1;rounded=0;entryX=0.004;entryY=0.105;entryDx=0;entryDy=0;align=right;entryPerimeter=0;" edge="1" parent="1">
          <mxGeometry x="0.5556" width="50" height="50" relative="1" as="geometry">
            <mxPoint x="-200" y="175" as="sourcePoint" />
            <mxPoint x="-119.48000000000025" y="174.625" as="targetPoint" />
            <mxPoint as="offset" />
          </mxGeometry>
        </mxCell>
        <mxCell id="Xeo_94hPjWmz_vQG5gyQ-183" value="" style="endArrow=classic;html=1;rounded=0;align=left;" edge="1" parent="1">
          <mxGeometry x="-0.7778" width="50" height="50" relative="1" as="geometry">
            <mxPoint x="10" y="174.53" as="sourcePoint" />
            <mxPoint x="50" y="174.53" as="targetPoint" />
            <mxPoint as="offset" />
          </mxGeometry>
        </mxCell>
        <mxCell id="Xeo_94hPjWmz_vQG5gyQ-184" value="Incidental Input Functions" style="rounded=1;whiteSpace=wrap;html=1;fillColor=#E1D5E7;" vertex="1" parent="1">
          <mxGeometry x="-280" y="220" width="150" height="20" as="geometry" />
        </mxCell>
        <mxCell id="Xeo_94hPjWmz_vQG5gyQ-185" value="Non-Operational&lt;br&gt;Input Functions" style="rounded=1;whiteSpace=wrap;html=1;fillColor=#E1D5E7;" vertex="1" parent="1">
          <mxGeometry x="-280" y="280.8" width="150" height="30" as="geometry" />
        </mxCell>
        <mxCell id="Xeo_94hPjWmz_vQG5gyQ-186" value="Non-Operational&lt;br&gt;Output Functions" style="rounded=1;whiteSpace=wrap;html=1;fillColor=#E1D5E7;" vertex="1" parent="1">
          <mxGeometry x="20" y="280.8" width="155.25" height="30" as="geometry" />
        </mxCell>
        <mxCell id="Xeo_94hPjWmz_vQG5gyQ-187" value="Diagnostic Display&lt;br&gt;Output Functions" style="rounded=1;whiteSpace=wrap;html=1;fillColor=#E1D5E7;" vertex="1" parent="1">
          <mxGeometry x="20.01" y="227.5" width="155.25" height="30" as="geometry" />
        </mxCell>
        <mxCell id="Xeo_94hPjWmz_vQG5gyQ-188" value="Primary Output Functions" style="rounded=1;whiteSpace=wrap;html=1;fillColor=#E1D5E7;" vertex="1" parent="1">
          <mxGeometry x="20" y="145" width="155.25" height="20" as="geometry" />
        </mxCell>
        <mxCell id="Xeo_94hPjWmz_vQG5gyQ-189" value="Primary Input Functions" style="rounded=1;whiteSpace=wrap;html=1;fillColor=#E1D5E7;" vertex="1" parent="1">
          <mxGeometry x="-280" y="146" width="150" height="20" as="geometry" />
        </mxCell>
        <mxCell id="Xeo_94hPjWmz_vQG5gyQ-190" value="Incidental Output Functions" style="rounded=1;whiteSpace=wrap;html=1;fillColor=#E1D5E7;" vertex="1" parent="1">
          <mxGeometry x="20" y="185" width="155.25" height="20" as="geometry" />
        </mxCell>
        <mxCell id="Xeo_94hPjWmz_vQG5gyQ-191" value="Output Material" style="text;html=1;strokeColor=none;fillColor=none;align=left;verticalAlign=middle;whiteSpace=wrap;rounded=0;" vertex="1" parent="1">
          <mxGeometry x="52.63" y="160" width="90" height="30" as="geometry" />
        </mxCell>
        <mxCell id="Xeo_94hPjWmz_vQG5gyQ-192" value="" style="endArrow=classic;html=1;rounded=0;align=left;" edge="1" parent="1">
          <mxGeometry x="-0.7778" width="50" height="50" relative="1" as="geometry">
            <mxPoint x="10" y="214.76999999999998" as="sourcePoint" />
            <mxPoint x="50" y="215.14" as="targetPoint" />
            <mxPoint as="offset" />
          </mxGeometry>
        </mxCell>
        <mxCell id="Xeo_94hPjWmz_vQG5gyQ-193" value="Output Heat" style="text;html=1;strokeColor=none;fillColor=none;align=left;verticalAlign=middle;whiteSpace=wrap;rounded=0;" vertex="1" parent="1">
          <mxGeometry x="50" y="200" width="90" height="30" as="geometry" />
        </mxCell>
        <mxCell id="Xeo_94hPjWmz_vQG5gyQ-194" value="" style="endArrow=classic;html=1;rounded=0;align=left;" edge="1" parent="1">
          <mxGeometry x="-0.7778" width="50" height="50" relative="1" as="geometry">
            <mxPoint x="10" y="269.78999999999996" as="sourcePoint" />
            <mxPoint x="50" y="269.53" as="targetPoint" />
            <mxPoint as="offset" />
          </mxGeometry>
        </mxCell>
        <mxCell id="Xeo_94hPjWmz_vQG5gyQ-195" value="Feedback Signal" style="text;html=1;strokeColor=none;fillColor=none;align=left;verticalAlign=middle;whiteSpace=wrap;rounded=0;" vertex="1" parent="1">
          <mxGeometry x="50" y="260" width="120" height="20" as="geometry" />
        </mxCell>
        <mxCell id="Xeo_94hPjWmz_vQG5gyQ-196" value="" style="endArrow=classic;html=1;rounded=0;align=left;" edge="1" parent="1">
          <mxGeometry x="-0.7778" width="50" height="50" relative="1" as="geometry">
            <mxPoint x="10" y="326.77" as="sourcePoint" />
            <mxPoint x="40" y="327" as="targetPoint" />
            <mxPoint as="offset" />
          </mxGeometry>
        </mxCell>
        <mxCell id="Xeo_94hPjWmz_vQG5gyQ-197" value="Maintentance Indicator" style="text;html=1;strokeColor=none;fillColor=none;align=left;verticalAlign=middle;whiteSpace=wrap;rounded=0;" vertex="1" parent="1">
          <mxGeometry x="40" y="312" width="130" height="30" as="geometry" />
        </mxCell>
        <mxCell id="Xeo_94hPjWmz_vQG5gyQ-198" value="" style="endArrow=classic;html=1;rounded=0;entryX=0;entryY=0.25;entryDx=0;entryDy=0;align=left;" edge="1" parent="1">
          <mxGeometry x="-0.7778" width="50" height="50" relative="1" as="geometry">
            <mxPoint x="-200" y="327" as="sourcePoint" />
            <mxPoint x="-120" y="326.8" as="targetPoint" />
            <mxPoint as="offset" />
          </mxGeometry>
        </mxCell>
        <mxCell id="Xeo_94hPjWmz_vQG5gyQ-199" value="Service" style="text;html=1;strokeColor=none;fillColor=none;align=right;verticalAlign=middle;whiteSpace=wrap;rounded=0;" vertex="1" parent="1">
          <mxGeometry x="-280" y="314" width="75" height="26" as="geometry" />
        </mxCell>
        <mxCell id="Xeo_94hPjWmz_vQG5gyQ-200" value="" style="endArrow=classic;html=1;rounded=0;entryX=0;entryY=0.25;entryDx=0;entryDy=0;align=left;" edge="1" parent="1">
          <mxGeometry x="-0.7778" width="50" height="50" relative="1" as="geometry">
            <mxPoint x="-170" y="261" as="sourcePoint" />
            <mxPoint x="-120" y="260.63" as="targetPoint" />
            <mxPoint as="offset" />
          </mxGeometry>
        </mxCell>
        <mxCell id="Xeo_94hPjWmz_vQG5gyQ-201" value="Control Adjustment" style="text;html=1;strokeColor=none;fillColor=none;align=right;verticalAlign=middle;whiteSpace=wrap;rounded=0;" vertex="1" parent="1">
          <mxGeometry x="-280" y="245" width="110" height="30" as="geometry" />
        </mxCell>
        <mxCell id="Xeo_94hPjWmz_vQG5gyQ-202" value="Input Energy" style="text;html=1;strokeColor=none;fillColor=none;align=right;verticalAlign=middle;whiteSpace=wrap;rounded=0;" vertex="1" parent="1">
          <mxGeometry x="-290" y="161" width="90" height="30" as="geometry" />
        </mxCell>
        <mxCell id="Xeo_94hPjWmz_vQG5gyQ-203" value="" style="endArrow=classic;html=1;rounded=0;align=right;exitX=1;exitY=0.667;exitDx=0;exitDy=0;exitPerimeter=0;" edge="1" parent="1">
          <mxGeometry x="0.5556" width="50" height="50" relative="1" as="geometry">
            <mxPoint x="-200" y="195.81" as="sourcePoint" />
            <mxPoint x="-120" y="195.8" as="targetPoint" />
            <mxPoint as="offset" />
          </mxGeometry>
        </mxCell>
        <mxCell id="Xeo_94hPjWmz_vQG5gyQ-204" style="edgeStyle=orthogonalEdgeStyle;rounded=0;orthogonalLoop=1;jettySize=auto;html=1;exitX=0.5;exitY=1;exitDx=0;exitDy=0;" edge="1" parent="1" source="Xeo_94hPjWmz_vQG5gyQ-202" target="Xeo_94hPjWmz_vQG5gyQ-202">
          <mxGeometry relative="1" as="geometry" />
        </mxCell>
        <mxCell id="Xeo_94hPjWmz_vQG5gyQ-205" value="" style="endArrow=none;dashed=1;html=1;dashPattern=1 3;strokeWidth=2;rounded=0;" edge="1" parent="1">
          <mxGeometry width="50" height="50" relative="1" as="geometry">
            <mxPoint x="220" y="1220" as="sourcePoint" />
            <mxPoint x="740" y="1220" as="targetPoint" />
          </mxGeometry>
        </mxCell>
        <mxCell id="Xeo_94hPjWmz_vQG5gyQ-206" value="" style="endArrow=none;dashed=1;html=1;dashPattern=1 3;strokeWidth=2;rounded=0;" edge="1" parent="1">
          <mxGeometry width="50" height="50" relative="1" as="geometry">
            <mxPoint x="-300" y="1220" as="sourcePoint" />
            <mxPoint x="145" y="1220" as="targetPoint" />
          </mxGeometry>
        </mxCell>
        <mxCell id="Xeo_94hPjWmz_vQG5gyQ-207" value="" style="endArrow=none;dashed=1;html=1;dashPattern=1 3;strokeWidth=2;rounded=0;" edge="1" parent="1">
          <mxGeometry width="50" height="50" relative="1" as="geometry">
            <mxPoint x="1510" y="1500" as="sourcePoint" />
            <mxPoint x="1510" y="10" as="targetPoint" />
          </mxGeometry>
        </mxCell>
        <mxCell id="Xeo_94hPjWmz_vQG5gyQ-208" value="&lt;b style=&quot;font-size: 20px;&quot;&gt;STAMP/STPA&lt;/b&gt;" style="text;html=1;strokeColor=none;fillColor=none;align=center;verticalAlign=middle;whiteSpace=wrap;rounded=0;fontSize=20;" vertex="1" parent="1">
          <mxGeometry x="-525" y="20" width="175" height="30" as="geometry" />
        </mxCell>
        <mxCell id="Xeo_94hPjWmz_vQG5gyQ-209" value="Control Actions" style="edgeStyle=orthogonalEdgeStyle;rounded=0;orthogonalLoop=1;jettySize=auto;html=1;exitX=0.25;exitY=1;exitDx=0;exitDy=0;entryX=0.25;entryY=0;entryDx=0;entryDy=0;" edge="1" parent="1" source="Xeo_94hPjWmz_vQG5gyQ-210" target="Xeo_94hPjWmz_vQG5gyQ-212">
          <mxGeometry x="-0.1429" relative="1" as="geometry">
            <mxPoint as="offset" />
          </mxGeometry>
        </mxCell>
        <mxCell id="Xeo_94hPjWmz_vQG5gyQ-210" value="" style="rounded=0;whiteSpace=wrap;html=1;verticalAlign=top;" vertex="1" parent="1">
          <mxGeometry x="-510" y="426" width="160" height="61" as="geometry" />
        </mxCell>
        <mxCell id="Xeo_94hPjWmz_vQG5gyQ-211" value="Feedback" style="edgeStyle=orthogonalEdgeStyle;rounded=0;orthogonalLoop=1;jettySize=auto;html=1;exitX=0.75;exitY=0;exitDx=0;exitDy=0;entryX=0.75;entryY=1;entryDx=0;entryDy=0;" edge="1" parent="1" source="Xeo_94hPjWmz_vQG5gyQ-212" target="Xeo_94hPjWmz_vQG5gyQ-210">
          <mxGeometry x="0.1429" relative="1" as="geometry">
            <mxPoint as="offset" />
          </mxGeometry>
        </mxCell>
        <mxCell id="Xeo_94hPjWmz_vQG5gyQ-212" value="Controlled Process" style="rounded=0;whiteSpace=wrap;html=1;" vertex="1" parent="1">
          <mxGeometry x="-510" y="523" width="160" height="16" as="geometry" />
        </mxCell>
        <mxCell id="Xeo_94hPjWmz_vQG5gyQ-213" value="Process&lt;br&gt;Model" style="rounded=0;whiteSpace=wrap;html=1;fillColor=#f5f5f5;fontColor=#333333;strokeColor=#666666;" vertex="1" parent="1">
          <mxGeometry x="-420" y="443" width="60" height="40" as="geometry" />
        </mxCell>
        <mxCell id="Xeo_94hPjWmz_vQG5gyQ-214" value="Control&lt;br&gt;Algorithm" style="rounded=0;whiteSpace=wrap;html=1;fillColor=#f5f5f5;fontColor=#333333;strokeColor=#666666;" vertex="1" parent="1">
          <mxGeometry x="-500" y="443" width="60" height="40" as="geometry" />
        </mxCell>
        <mxCell id="Xeo_94hPjWmz_vQG5gyQ-215" value="&lt;span style=&quot;color: rgb(0, 0, 0); font-family: Helvetica; font-size: 12px; font-style: normal; font-variant-ligatures: normal; font-variant-caps: normal; font-weight: 400; letter-spacing: normal; orphans: 2; text-indent: 0px; text-transform: none; widows: 2; word-spacing: 0px; -webkit-text-stroke-width: 0px; background-color: rgb(251, 251, 251); text-decoration-thickness: initial; text-decoration-style: initial; text-decoration-color: initial; float: none; display: inline !important;&quot;&gt;Controller/Operator&lt;/span&gt;" style="text;whiteSpace=wrap;html=1;fontSize=12;fontFamily=Helvetica;fontColor=default;align=center;" vertex="1" parent="1">
          <mxGeometry x="-501" y="420" width="140" height="18" as="geometry" />
        </mxCell>
        <mxCell id="Xeo_94hPjWmz_vQG5gyQ-216" value="" style="endArrow=none;dashed=1;html=1;dashPattern=1 3;strokeWidth=2;rounded=0;" edge="1" parent="1">
          <mxGeometry width="50" height="50" relative="1" as="geometry">
            <mxPoint x="-320" y="1490" as="sourcePoint" />
            <mxPoint x="-320" y="10" as="targetPoint" />
          </mxGeometry>
        </mxCell>
        <mxCell id="Xeo_94hPjWmz_vQG5gyQ-217" style="edgeStyle=orthogonalEdgeStyle;rounded=0;orthogonalLoop=1;jettySize=auto;html=1;exitX=0;exitY=0.5;exitDx=0;exitDy=0;entryX=0.5;entryY=0;entryDx=0;entryDy=0;endArrow=classic;endFill=1;startArrow=classic;startFill=1;" edge="1" parent="1" source="Xeo_94hPjWmz_vQG5gyQ-225" target="Xeo_94hPjWmz_vQG5gyQ-236">
          <mxGeometry relative="1" as="geometry" />
        </mxCell>
        <mxCell id="Xeo_94hPjWmz_vQG5gyQ-218" value="&lt;font style=&quot;font-size: 8px;&quot;&gt;[potential]&amp;gt;o&lt;br style=&quot;border-color: var(--border-color);&quot;&gt;(rate)&amp;gt;□&lt;/font&gt;" style="edgeLabel;html=1;align=center;verticalAlign=middle;resizable=0;points=[];" vertex="1" connectable="0" parent="Xeo_94hPjWmz_vQG5gyQ-217">
          <mxGeometry x="0.084" relative="1" as="geometry">
            <mxPoint x="-5" as="offset" />
          </mxGeometry>
        </mxCell>
        <mxCell id="Xeo_94hPjWmz_vQG5gyQ-219" style="edgeStyle=orthogonalEdgeStyle;rounded=0;orthogonalLoop=1;jettySize=auto;html=1;exitX=0.75;exitY=0;exitDx=0;exitDy=0;entryX=1;entryY=0.5;entryDx=0;entryDy=0;startArrow=classic;startFill=1;endArrow=classic;endFill=1;" edge="1" parent="1" source="Xeo_94hPjWmz_vQG5gyQ-258" target="Xeo_94hPjWmz_vQG5gyQ-235">
          <mxGeometry relative="1" as="geometry">
            <Array as="points">
              <mxPoint x="1840" y="130" />
            </Array>
            <mxPoint x="1817.5" y="160" as="sourcePoint" />
          </mxGeometry>
        </mxCell>
        <mxCell id="Xeo_94hPjWmz_vQG5gyQ-220" value="&lt;font style=&quot;font-size: 8px;&quot;&gt;[feedback]&amp;gt;o&lt;br style=&quot;border-color: var(--border-color);&quot;&gt;(control)&amp;gt;□&lt;/font&gt;" style="edgeLabel;html=1;align=center;verticalAlign=middle;resizable=0;points=[];" vertex="1" connectable="0" parent="Xeo_94hPjWmz_vQG5gyQ-219">
          <mxGeometry x="-0.0612" y="2" relative="1" as="geometry">
            <mxPoint as="offset" />
          </mxGeometry>
        </mxCell>
        <mxCell id="Xeo_94hPjWmz_vQG5gyQ-221" style="edgeStyle=orthogonalEdgeStyle;rounded=0;orthogonalLoop=1;jettySize=auto;html=1;exitX=0.25;exitY=1;exitDx=0;exitDy=0;entryX=0;entryY=0.5;entryDx=0;entryDy=0;startArrow=classic;startFill=1;endArrow=classic;endFill=1;" edge="1" parent="1" source="Xeo_94hPjWmz_vQG5gyQ-256" target="Xeo_94hPjWmz_vQG5gyQ-244">
          <mxGeometry relative="1" as="geometry">
            <Array as="points">
              <mxPoint x="1917" y="320" />
            </Array>
            <mxPoint x="1940.3900000000003" y="280" as="sourcePoint" />
            <mxPoint x="1970.0000000000055" y="278.69999999999993" as="targetPoint" />
          </mxGeometry>
        </mxCell>
        <mxCell id="Xeo_94hPjWmz_vQG5gyQ-222" value="&lt;font style=&quot;font-size: 8px;&quot;&gt;[provided]&amp;gt;o&lt;br style=&quot;border-color: var(--border-color);&quot;&gt;(taken)&amp;gt;□&lt;/font&gt;" style="edgeLabel;html=1;align=center;verticalAlign=middle;resizable=0;points=[];" vertex="1" connectable="0" parent="Xeo_94hPjWmz_vQG5gyQ-221">
          <mxGeometry x="-0.257" y="1" relative="1" as="geometry">
            <mxPoint x="4" y="20" as="offset" />
          </mxGeometry>
        </mxCell>
        <mxCell id="Xeo_94hPjWmz_vQG5gyQ-223" style="edgeStyle=orthogonalEdgeStyle;rounded=0;orthogonalLoop=1;jettySize=auto;html=1;exitX=0.75;exitY=0;exitDx=0;exitDy=0;entryX=0;entryY=0.5;entryDx=0;entryDy=0;startArrow=classic;startFill=1;endArrow=classic;endFill=1;" edge="1" parent="1" source="Xeo_94hPjWmz_vQG5gyQ-225" target="Xeo_94hPjWmz_vQG5gyQ-247">
          <mxGeometry relative="1" as="geometry">
            <Array as="points">
              <mxPoint x="1907" y="130" />
            </Array>
          </mxGeometry>
        </mxCell>
        <mxCell id="Xeo_94hPjWmz_vQG5gyQ-224" value="&lt;font style=&quot;font-size: 8px;&quot;&gt;[heat]&amp;gt;o&lt;br style=&quot;border-color: var(--border-color);&quot;&gt;(evac rate)&amp;gt;□&lt;/font&gt;" style="edgeLabel;html=1;align=center;verticalAlign=middle;resizable=0;points=[];" vertex="1" connectable="0" parent="Xeo_94hPjWmz_vQG5gyQ-223">
          <mxGeometry x="-0.0462" relative="1" as="geometry">
            <mxPoint x="-2" as="offset" />
          </mxGeometry>
        </mxCell>
        <mxCell id="Xeo_94hPjWmz_vQG5gyQ-225" value="Function Name&lt;div&gt;&amp;lt;Physical, Logical&amp;gt;&lt;br&gt;&lt;/div&gt;" style="rounded=0;whiteSpace=wrap;html=1;" vertex="1" parent="1">
          <mxGeometry x="1810" y="160" width="130" height="140" as="geometry" />
        </mxCell>
        <mxCell id="Xeo_94hPjWmz_vQG5gyQ-226" style="edgeStyle=orthogonalEdgeStyle;rounded=0;orthogonalLoop=1;jettySize=auto;html=1;exitX=1;exitY=0.5;exitDx=0;exitDy=0;startArrow=classic;startFill=1;endArrow=classic;endFill=1;entryX=0;entryY=0.5;entryDx=0;entryDy=0;" edge="1" parent="1" source="Xeo_94hPjWmz_vQG5gyQ-228" target="Xeo_94hPjWmz_vQG5gyQ-235">
          <mxGeometry relative="1" as="geometry">
            <Array as="points">
              <mxPoint x="1700" y="130" />
              <mxPoint x="1700" y="129" />
              <mxPoint x="1720" y="129" />
              <mxPoint x="1720" y="130" />
            </Array>
            <mxPoint x="1636.01" y="129" as="sourcePoint" />
            <mxPoint x="1700" y="160" as="targetPoint" />
          </mxGeometry>
        </mxCell>
        <mxCell id="Xeo_94hPjWmz_vQG5gyQ-227" value="&lt;font style=&quot;font-size: 8px;&quot;&gt;[control]&amp;gt;o&lt;br style=&quot;border-color: var(--border-color);&quot;&gt;(feedback)&amp;gt;□&lt;/font&gt;" style="edgeLabel;html=1;align=center;verticalAlign=middle;resizable=0;points=[];" vertex="1" connectable="0" parent="Xeo_94hPjWmz_vQG5gyQ-226">
          <mxGeometry x="-0.412" relative="1" as="geometry">
            <mxPoint x="15" as="offset" />
          </mxGeometry>
        </mxCell>
        <mxCell id="Xeo_94hPjWmz_vQG5gyQ-228" value="Control Function&lt;br&gt;Name" style="rounded=0;whiteSpace=wrap;html=1;" vertex="1" parent="1">
          <mxGeometry x="1576.01" y="100" width="110" height="60" as="geometry" />
        </mxCell>
        <mxCell id="Xeo_94hPjWmz_vQG5gyQ-229" style="edgeStyle=orthogonalEdgeStyle;rounded=0;orthogonalLoop=1;jettySize=auto;html=1;exitX=0.5;exitY=1;exitDx=0;exitDy=0;entryX=0.5;entryY=1;entryDx=0;entryDy=0;endArrow=classic;endFill=1;startArrow=classic;startFill=1;" edge="1" parent="1" source="Xeo_94hPjWmz_vQG5gyQ-231" target="Xeo_94hPjWmz_vQG5gyQ-236">
          <mxGeometry relative="1" as="geometry" />
        </mxCell>
        <mxCell id="Xeo_94hPjWmz_vQG5gyQ-230" value="&lt;font style=&quot;font-size: 8px;&quot;&gt;[potential]&amp;gt;o&lt;br style=&quot;border-color: var(--border-color);&quot;&gt;(rate)&amp;gt;□&lt;/font&gt;" style="edgeLabel;html=1;align=center;verticalAlign=middle;resizable=0;points=[];" vertex="1" connectable="0" parent="Xeo_94hPjWmz_vQG5gyQ-229">
          <mxGeometry x="-0.2071" relative="1" as="geometry">
            <mxPoint x="44" y="-5" as="offset" />
          </mxGeometry>
        </mxCell>
        <mxCell id="Xeo_94hPjWmz_vQG5gyQ-231" value="Provide Energy" style="rounded=0;whiteSpace=wrap;html=1;" vertex="1" parent="1">
          <mxGeometry x="1576.01" y="185" width="110" height="60" as="geometry" />
        </mxCell>
        <mxCell id="Xeo_94hPjWmz_vQG5gyQ-232" style="edgeStyle=orthogonalEdgeStyle;rounded=0;orthogonalLoop=1;jettySize=auto;html=1;exitX=1;exitY=0.5;exitDx=0;exitDy=0;endArrow=classic;endFill=1;startArrow=classic;startFill=1;" edge="1" parent="1" source="Xeo_94hPjWmz_vQG5gyQ-234" target="Xeo_94hPjWmz_vQG5gyQ-239">
          <mxGeometry relative="1" as="geometry" />
        </mxCell>
        <mxCell id="Xeo_94hPjWmz_vQG5gyQ-233" value="&lt;font style=&quot;font-size: 8px;&quot;&gt;[provided]&amp;gt;o&lt;br style=&quot;border-color: var(--border-color);&quot;&gt;(used)&amp;gt;□&lt;/font&gt;" style="edgeLabel;html=1;align=center;verticalAlign=middle;resizable=0;points=[];" vertex="1" connectable="0" parent="Xeo_94hPjWmz_vQG5gyQ-232">
          <mxGeometry x="-0.0404" relative="1" as="geometry">
            <mxPoint as="offset" />
          </mxGeometry>
        </mxCell>
        <mxCell id="Xeo_94hPjWmz_vQG5gyQ-234" value="Supply Material" style="rounded=0;whiteSpace=wrap;html=1;" vertex="1" parent="1">
          <mxGeometry x="1576.01" y="294" width="110" height="60" as="geometry" />
        </mxCell>
        <mxCell id="Xeo_94hPjWmz_vQG5gyQ-235" value="External Signals" style="ellipse;whiteSpace=wrap;html=1;aspect=fixed;" vertex="1" parent="1">
          <mxGeometry x="1755" y="105" width="50" height="50" as="geometry" />
        </mxCell>
        <mxCell id="Xeo_94hPjWmz_vQG5gyQ-236" value="External Energy&lt;br&gt;In" style="ellipse;whiteSpace=wrap;html=1;aspect=fixed;" vertex="1" parent="1">
          <mxGeometry x="1720" y="205" width="50" height="50" as="geometry" />
        </mxCell>
        <mxCell id="Xeo_94hPjWmz_vQG5gyQ-237" style="edgeStyle=orthogonalEdgeStyle;rounded=0;orthogonalLoop=1;jettySize=auto;html=1;entryX=1;entryY=0.5;entryDx=0;entryDy=0;exitX=0.25;exitY=1;exitDx=0;exitDy=0;endArrow=classic;endFill=1;startArrow=classic;startFill=1;" edge="1" parent="1" source="Xeo_94hPjWmz_vQG5gyQ-225" target="Xeo_94hPjWmz_vQG5gyQ-239">
          <mxGeometry relative="1" as="geometry">
            <Array as="points">
              <mxPoint x="1842" y="310" />
              <mxPoint x="1842" y="326" />
            </Array>
            <mxPoint x="1820" y="350" as="sourcePoint" />
          </mxGeometry>
        </mxCell>
        <mxCell id="Xeo_94hPjWmz_vQG5gyQ-238" value="&lt;font style=&quot;font-size: 8px;&quot;&gt;[used]&amp;gt;o&lt;br style=&quot;border-color: var(--border-color);&quot;&gt;(provided)&amp;gt;□&lt;/font&gt;" style="edgeLabel;html=1;align=center;verticalAlign=middle;resizable=0;points=[];" vertex="1" connectable="0" parent="Xeo_94hPjWmz_vQG5gyQ-237">
          <mxGeometry x="-0.0915" y="2" relative="1" as="geometry">
            <mxPoint x="8" y="2" as="offset" />
          </mxGeometry>
        </mxCell>
        <mxCell id="Xeo_94hPjWmz_vQG5gyQ-239" value="External Material&lt;br&gt;In" style="ellipse;whiteSpace=wrap;html=1;aspect=fixed;" vertex="1" parent="1">
          <mxGeometry x="1758" y="300" width="52" height="52" as="geometry" />
        </mxCell>
        <mxCell id="Xeo_94hPjWmz_vQG5gyQ-240" value="Evacuate Waste Energy" style="rounded=0;whiteSpace=wrap;html=1;" vertex="1" parent="1">
          <mxGeometry x="2010" y="135" width="90" height="60" as="geometry" />
        </mxCell>
        <mxCell id="Xeo_94hPjWmz_vQG5gyQ-241" style="edgeStyle=orthogonalEdgeStyle;rounded=0;orthogonalLoop=1;jettySize=auto;html=1;exitX=0.5;exitY=1;exitDx=0;exitDy=0;endArrow=classic;endFill=1;startArrow=classic;startFill=1;entryX=1;entryY=0.5;entryDx=0;entryDy=0;" edge="1" parent="1" source="Xeo_94hPjWmz_vQG5gyQ-243" target="Xeo_94hPjWmz_vQG5gyQ-244">
          <mxGeometry relative="1" as="geometry">
            <Array as="points">
              <mxPoint x="2055" y="320" />
            </Array>
            <mxPoint x="2145" y="330.96000000000004" as="sourcePoint" />
            <mxPoint x="2049.9999999999936" y="308.98" as="targetPoint" />
          </mxGeometry>
        </mxCell>
        <mxCell id="Xeo_94hPjWmz_vQG5gyQ-242" value="&lt;font style=&quot;font-size: 8px;&quot;&gt;[used]&amp;gt;o&lt;br style=&quot;border-color: var(--border-color);&quot;&gt;(provided)&amp;gt;□&lt;/font&gt;" style="edgeLabel;html=1;align=center;verticalAlign=middle;resizable=0;points=[];" vertex="1" connectable="0" parent="Xeo_94hPjWmz_vQG5gyQ-241">
          <mxGeometry x="0.2904" y="-1" relative="1" as="geometry">
            <mxPoint x="13" y="2" as="offset" />
          </mxGeometry>
        </mxCell>
        <mxCell id="Xeo_94hPjWmz_vQG5gyQ-243" value="Take Output Material From Function Name" style="rounded=0;whiteSpace=wrap;html=1;" vertex="1" parent="1">
          <mxGeometry x="2010" y="209.99999999999994" width="90" height="80" as="geometry" />
        </mxCell>
        <mxCell id="Xeo_94hPjWmz_vQG5gyQ-244" value="External Material&lt;br&gt;Out" style="ellipse;whiteSpace=wrap;html=1;aspect=fixed;" vertex="1" parent="1">
          <mxGeometry x="1940" y="290" width="60" height="60" as="geometry" />
        </mxCell>
        <mxCell id="Xeo_94hPjWmz_vQG5gyQ-245" style="edgeStyle=orthogonalEdgeStyle;rounded=0;orthogonalLoop=1;jettySize=auto;html=1;exitX=0.5;exitY=1;exitDx=0;exitDy=0;endArrow=classic;endFill=1;startArrow=classic;startFill=1;" edge="1" parent="1" source="Xeo_94hPjWmz_vQG5gyQ-247">
          <mxGeometry relative="1" as="geometry">
            <mxPoint x="1959.4899999999998" y="166.14000000000004" as="sourcePoint" />
            <mxPoint x="2010" y="180" as="targetPoint" />
            <Array as="points">
              <mxPoint x="1970" y="180" />
            </Array>
          </mxGeometry>
        </mxCell>
        <mxCell id="Xeo_94hPjWmz_vQG5gyQ-246" value="&lt;font style=&quot;font-size: 8px;&quot;&gt;[evac rate]&amp;gt;o&lt;br style=&quot;border-color: var(--border-color);&quot;&gt;(heat)&amp;gt;□&lt;/font&gt;" style="edgeLabel;html=1;align=center;verticalAlign=middle;resizable=0;points=[];" vertex="1" connectable="0" parent="Xeo_94hPjWmz_vQG5gyQ-245">
          <mxGeometry x="-0.225" relative="1" as="geometry">
            <mxPoint x="-3" y="5" as="offset" />
          </mxGeometry>
        </mxCell>
        <mxCell id="Xeo_94hPjWmz_vQG5gyQ-247" value="External Energy&lt;br&gt;Out" style="ellipse;whiteSpace=wrap;html=1;aspect=fixed;" vertex="1" parent="1">
          <mxGeometry x="1940" y="100" width="60" height="60" as="geometry" />
        </mxCell>
        <mxCell id="Xeo_94hPjWmz_vQG5gyQ-248" value="&lt;b&gt;ED&lt;/b&gt;" style="rounded=0;whiteSpace=wrap;html=1;" vertex="1" parent="1">
          <mxGeometry x="2080" y="175" width="20" height="20" as="geometry" />
        </mxCell>
        <mxCell id="Xeo_94hPjWmz_vQG5gyQ-249" value="&lt;b&gt;IS&lt;/b&gt;" style="rounded=0;whiteSpace=wrap;html=1;" vertex="1" parent="1">
          <mxGeometry x="2080" y="270" width="20" height="20" as="geometry" />
        </mxCell>
        <mxCell id="Xeo_94hPjWmz_vQG5gyQ-250" value="&lt;b&gt;EV&lt;/b&gt;" style="rounded=0;whiteSpace=wrap;html=1;" vertex="1" parent="1">
          <mxGeometry x="1660" y="140" width="26.01" height="20" as="geometry" />
        </mxCell>
        <mxCell id="Xeo_94hPjWmz_vQG5gyQ-251" value="&lt;b&gt;IS&lt;/b&gt;" style="rounded=0;whiteSpace=wrap;html=1;" vertex="1" parent="1">
          <mxGeometry x="1666.01" y="225" width="20" height="20" as="geometry" />
        </mxCell>
        <mxCell id="Xeo_94hPjWmz_vQG5gyQ-252" value="&lt;b&gt;IS&lt;/b&gt;" style="rounded=0;whiteSpace=wrap;html=1;" vertex="1" parent="1">
          <mxGeometry x="1666.01" y="334" width="20" height="20" as="geometry" />
        </mxCell>
        <mxCell id="Xeo_94hPjWmz_vQG5gyQ-253" value="" style="group" vertex="1" connectable="0" parent="1">
          <mxGeometry x="1576.01" y="100" width="30" height="20" as="geometry" />
        </mxCell>
        <mxCell id="Xeo_94hPjWmz_vQG5gyQ-254" value="0:dt:e" style="shape=offPageConnector;whiteSpace=wrap;html=1;" vertex="1" parent="Xeo_94hPjWmz_vQG5gyQ-253">
          <mxGeometry width="30" height="20" as="geometry" />
        </mxCell>
        <mxCell id="Xeo_94hPjWmz_vQG5gyQ-255" style="edgeStyle=orthogonalEdgeStyle;rounded=0;orthogonalLoop=1;jettySize=auto;html=1;exitX=0;exitY=0;exitDx=0;exitDy=0;entryX=0.75;entryY=0;entryDx=0;entryDy=0;startArrow=baseDash;startFill=0;" edge="1" parent="Xeo_94hPjWmz_vQG5gyQ-253">
          <mxGeometry relative="1" as="geometry">
            <mxPoint x="22.5" as="targetPoint" />
            <Array as="points" />
            <mxPoint as="sourcePoint" />
          </mxGeometry>
        </mxCell>
        <mxCell id="Xeo_94hPjWmz_vQG5gyQ-256" value="&lt;b&gt;IR&lt;/b&gt;" style="rounded=0;whiteSpace=wrap;html=1;" vertex="1" parent="1">
          <mxGeometry x="1910" y="280" width="30" height="20" as="geometry" />
        </mxCell>
        <mxCell id="Xeo_94hPjWmz_vQG5gyQ-257" value="&lt;b&gt;F&lt;/b&gt;" style="shape=offPageConnector;whiteSpace=wrap;html=1;direction=north;size=0.25;" vertex="1" parent="1">
          <mxGeometry x="1810" y="280" width="20" height="20" as="geometry" />
        </mxCell>
        <mxCell id="Xeo_94hPjWmz_vQG5gyQ-258" value="i:dt:off" style="shape=offPageConnector;whiteSpace=wrap;html=1;" vertex="1" parent="1">
          <mxGeometry x="1810" y="160" width="40" height="20" as="geometry" />
        </mxCell>
        <mxCell id="Xeo_94hPjWmz_vQG5gyQ-259" style="edgeStyle=orthogonalEdgeStyle;rounded=0;orthogonalLoop=1;jettySize=auto;html=1;exitX=0;exitY=0;exitDx=0;exitDy=0;entryX=1;entryY=0;entryDx=0;entryDy=0;endArrow=ERmany;endFill=0;" edge="1" parent="1" target="Xeo_94hPjWmz_vQG5gyQ-258">
          <mxGeometry relative="1" as="geometry">
            <mxPoint x="1845" y="160" as="targetPoint" />
            <Array as="points" />
            <mxPoint x="1830" y="160" as="sourcePoint" />
          </mxGeometry>
        </mxCell>
        <mxCell id="Xeo_94hPjWmz_vQG5gyQ-260" value="s:dt:e" style="shape=offPageConnector;whiteSpace=wrap;html=1;" vertex="1" parent="1">
          <mxGeometry x="1576.01" y="185" width="30" height="20" as="geometry" />
        </mxCell>
        <mxCell id="Xeo_94hPjWmz_vQG5gyQ-261" value="s:dt:e" style="shape=offPageConnector;whiteSpace=wrap;html=1;" vertex="1" parent="1">
          <mxGeometry x="1576.01" y="294" width="30" height="20" as="geometry" />
        </mxCell>
        <mxCell id="Xeo_94hPjWmz_vQG5gyQ-262" value="i:dt:o" style="shape=offPageConnector;whiteSpace=wrap;html=1;" vertex="1" parent="1">
          <mxGeometry x="2010" y="209.99999999999994" width="30" height="20" as="geometry" />
        </mxCell>
        <mxCell id="Xeo_94hPjWmz_vQG5gyQ-263" value="&lt;b style=&quot;font-size: 20px;&quot;&gt;FRDL Model&lt;/b&gt;&lt;div&gt;&lt;b style=&quot;font-size: 20px;&quot;&gt;(N-Directional equivalent)&lt;/b&gt;&lt;/div&gt;" style="text;html=1;strokeColor=none;fillColor=none;align=center;verticalAlign=middle;whiteSpace=wrap;rounded=0;fontSize=20;" vertex="1" parent="1">
          <mxGeometry x="1692.5" y="30" width="325" height="30" as="geometry" />
        </mxCell>
        <mxCell id="Xeo_94hPjWmz_vQG5gyQ-264" value="" style="endArrow=none;dashed=1;html=1;dashPattern=1 3;strokeWidth=2;rounded=0;" edge="1" parent="1">
          <mxGeometry width="50" height="50" relative="1" as="geometry">
            <mxPoint x="1550" y="450" as="sourcePoint" />
            <mxPoint x="2190" y="450" as="targetPoint" />
          </mxGeometry>
        </mxCell>
        <mxCell id="Xeo_94hPjWmz_vQG5gyQ-265" style="edgeStyle=orthogonalEdgeStyle;rounded=0;orthogonalLoop=1;jettySize=auto;html=1;exitX=0.75;exitY=0;exitDx=0;exitDy=0;entryX=0;entryY=0.5;entryDx=0;entryDy=0;" edge="1" parent="1" source="Xeo_94hPjWmz_vQG5gyQ-267" target="Xeo_94hPjWmz_vQG5gyQ-282">
          <mxGeometry relative="1" as="geometry" />
        </mxCell>
        <mxCell id="Xeo_94hPjWmz_vQG5gyQ-266" value="&lt;font style=&quot;font-size: 8px;&quot;&gt;new&lt;br&gt;signal&lt;/font&gt;" style="edgeLabel;html=1;align=center;verticalAlign=middle;resizable=0;points=[];" vertex="1" connectable="0" parent="Xeo_94hPjWmz_vQG5gyQ-265">
          <mxGeometry x="0.0576" y="-1" relative="1" as="geometry">
            <mxPoint x="11" y="-1" as="offset" />
          </mxGeometry>
        </mxCell>
        <mxCell id="Xeo_94hPjWmz_vQG5gyQ-267" value="Function A&lt;div&gt;&amp;lt;Logical, Control&amp;gt;&lt;/div&gt;" style="rounded=0;whiteSpace=wrap;html=1;" vertex="1" parent="1">
          <mxGeometry x="1643.99" y="605" width="120" height="60" as="geometry" />
        </mxCell>
        <mxCell id="Xeo_94hPjWmz_vQG5gyQ-268" style="edgeStyle=orthogonalEdgeStyle;rounded=0;orthogonalLoop=1;jettySize=auto;html=1;exitX=0.5;exitY=1;exitDx=0;exitDy=0;entryX=0.517;entryY=-0.06;entryDx=0;entryDy=0;endArrow=classic;endFill=1;startArrow=classic;startFill=1;entryPerimeter=0;" edge="1" parent="1" source="Xeo_94hPjWmz_vQG5gyQ-270" target="Xeo_94hPjWmz_vQG5gyQ-283">
          <mxGeometry relative="1" as="geometry" />
        </mxCell>
        <mxCell id="Xeo_94hPjWmz_vQG5gyQ-269" value="&lt;font style=&quot;font-size: 8px;&quot;&gt;[potential]&amp;gt;o&lt;br style=&quot;border-color: var(--border-color);&quot;&gt;(usage)&amp;gt;□&lt;/font&gt;" style="edgeLabel;html=1;align=center;verticalAlign=middle;resizable=0;points=[];" vertex="1" connectable="0" parent="Xeo_94hPjWmz_vQG5gyQ-268">
          <mxGeometry x="0.0178" relative="1" as="geometry">
            <mxPoint as="offset" />
          </mxGeometry>
        </mxCell>
        <mxCell id="Xeo_94hPjWmz_vQG5gyQ-270" value="Function B&lt;div&gt;&amp;lt;Physical&amp;gt;&lt;/div&gt;" style="rounded=0;whiteSpace=wrap;html=1;" vertex="1" parent="1">
          <mxGeometry x="1870" y="560" width="120" height="60" as="geometry" />
        </mxCell>
        <mxCell id="Xeo_94hPjWmz_vQG5gyQ-271" value="External Energy&lt;br&gt;In" style="ellipse;whiteSpace=wrap;html=1;aspect=fixed;" vertex="1" parent="1">
          <mxGeometry x="1640" y="690" width="50" height="50" as="geometry" />
        </mxCell>
        <mxCell id="Xeo_94hPjWmz_vQG5gyQ-272" value="External Material&lt;br&gt;Out" style="ellipse;whiteSpace=wrap;html=1;aspect=fixed;" vertex="1" parent="1">
          <mxGeometry x="1981.5" y="790" width="50" height="50" as="geometry" />
        </mxCell>
        <mxCell id="Xeo_94hPjWmz_vQG5gyQ-273" style="edgeStyle=orthogonalEdgeStyle;rounded=0;orthogonalLoop=1;jettySize=auto;html=1;exitX=0.5;exitY=1;exitDx=0;exitDy=0;entryX=0;entryY=0.5;entryDx=0;entryDy=0;startArrow=classic;startFill=1;endArrow=classic;endFill=1;" edge="1" parent="1" source="Xeo_94hPjWmz_vQG5gyQ-279" target="Xeo_94hPjWmz_vQG5gyQ-272">
          <mxGeometry relative="1" as="geometry" />
        </mxCell>
        <mxCell id="Xeo_94hPjWmz_vQG5gyQ-274" value="&lt;font style=&quot;font-size: 8px;&quot;&gt;[provided]&amp;gt;o&lt;br style=&quot;border-color: var(--border-color);&quot;&gt;(taken)&amp;gt;□&lt;/font&gt;" style="edgeLabel;html=1;align=center;verticalAlign=middle;resizable=0;points=[];" vertex="1" connectable="0" parent="Xeo_94hPjWmz_vQG5gyQ-273">
          <mxGeometry x="-0.1072" y="2" relative="1" as="geometry">
            <mxPoint x="-8" y="2" as="offset" />
          </mxGeometry>
        </mxCell>
        <mxCell id="Xeo_94hPjWmz_vQG5gyQ-275" style="edgeStyle=orthogonalEdgeStyle;rounded=0;orthogonalLoop=1;jettySize=auto;html=1;entryX=0;entryY=0.5;entryDx=0;entryDy=0;endArrow=classic;endFill=1;startArrow=classic;startFill=1;exitX=0;exitY=0.25;exitDx=0;exitDy=0;" edge="1" parent="1" source="Xeo_94hPjWmz_vQG5gyQ-279" target="Xeo_94hPjWmz_vQG5gyQ-283">
          <mxGeometry relative="1" as="geometry">
            <mxPoint x="1900" y="770" as="sourcePoint" />
            <Array as="points">
              <mxPoint x="1840" y="746" />
              <mxPoint x="1840" y="695" />
            </Array>
          </mxGeometry>
        </mxCell>
        <mxCell id="Xeo_94hPjWmz_vQG5gyQ-276" value="&lt;font style=&quot;font-size: 8px;&quot;&gt;[usage]&amp;gt;o&lt;br style=&quot;border-color: var(--border-color);&quot;&gt;(potential)&amp;gt;□&lt;/font&gt;" style="edgeLabel;html=1;align=center;verticalAlign=middle;resizable=0;points=[];" vertex="1" connectable="0" parent="Xeo_94hPjWmz_vQG5gyQ-275">
          <mxGeometry x="0.1424" y="1" relative="1" as="geometry">
            <mxPoint x="1" y="-1" as="offset" />
          </mxGeometry>
        </mxCell>
        <mxCell id="Xeo_94hPjWmz_vQG5gyQ-277" style="edgeStyle=orthogonalEdgeStyle;rounded=0;orthogonalLoop=1;jettySize=auto;html=1;exitX=0.5;exitY=0;exitDx=0;exitDy=0;endArrow=classic;endFill=1;startArrow=classic;startFill=1;entryX=0;entryY=0.5;entryDx=0;entryDy=0;" edge="1" parent="1" source="Xeo_94hPjWmz_vQG5gyQ-279" target="Xeo_94hPjWmz_vQG5gyQ-284">
          <mxGeometry relative="1" as="geometry">
            <Array as="points">
              <mxPoint x="1928" y="706" />
              <mxPoint x="1980" y="706" />
            </Array>
          </mxGeometry>
        </mxCell>
        <mxCell id="Xeo_94hPjWmz_vQG5gyQ-278" value="&lt;font style=&quot;font-size: 8px;&quot;&gt;[heat]&amp;gt;o&lt;br style=&quot;border-color: var(--border-color);&quot;&gt;(evac rate)&amp;gt;□&lt;/font&gt;" style="edgeLabel;html=1;align=center;verticalAlign=middle;resizable=0;points=[];" vertex="1" connectable="0" parent="Xeo_94hPjWmz_vQG5gyQ-277">
          <mxGeometry x="-0.2538" y="2" relative="1" as="geometry">
            <mxPoint x="9" y="-4" as="offset" />
          </mxGeometry>
        </mxCell>
        <mxCell id="Xeo_94hPjWmz_vQG5gyQ-279" value="Function C&lt;div&gt;&amp;lt;Physical&amp;gt;&lt;/div&gt;" style="rounded=0;whiteSpace=wrap;html=1;" vertex="1" parent="1">
          <mxGeometry x="1867.5" y="731.5" width="120" height="60" as="geometry" />
        </mxCell>
        <mxCell id="Xeo_94hPjWmz_vQG5gyQ-280" style="edgeStyle=orthogonalEdgeStyle;rounded=0;orthogonalLoop=1;jettySize=auto;html=1;exitX=1;exitY=0.5;exitDx=0;exitDy=0;entryX=0;entryY=0.5;entryDx=0;entryDy=0;" edge="1" parent="1" source="Xeo_94hPjWmz_vQG5gyQ-282" target="Xeo_94hPjWmz_vQG5gyQ-290">
          <mxGeometry relative="1" as="geometry" />
        </mxCell>
        <mxCell id="Xeo_94hPjWmz_vQG5gyQ-281" value="new&lt;br style=&quot;font-size: 8px;&quot;&gt;signal" style="edgeLabel;html=1;align=center;verticalAlign=middle;resizable=0;points=[];fontSize=8;" vertex="1" connectable="0" parent="Xeo_94hPjWmz_vQG5gyQ-280">
          <mxGeometry x="-0.0291" relative="1" as="geometry">
            <mxPoint x="-4" as="offset" />
          </mxGeometry>
        </mxCell>
        <mxCell id="Xeo_94hPjWmz_vQG5gyQ-282" value="Control&lt;br&gt;Signal" style="ellipse;whiteSpace=wrap;html=1;aspect=fixed;" vertex="1" parent="1">
          <mxGeometry x="1780" y="545" width="50" height="50" as="geometry" />
        </mxCell>
        <mxCell id="Xeo_94hPjWmz_vQG5gyQ-283" value="Internal Energy" style="ellipse;whiteSpace=wrap;html=1;aspect=fixed;" vertex="1" parent="1">
          <mxGeometry x="1852.5" y="670" width="50" height="50" as="geometry" />
        </mxCell>
        <mxCell id="Xeo_94hPjWmz_vQG5gyQ-284" value="External Energy&lt;br&gt;Out" style="ellipse;whiteSpace=wrap;html=1;aspect=fixed;" vertex="1" parent="1">
          <mxGeometry x="1980" y="680" width="51.5" height="51.5" as="geometry" />
        </mxCell>
        <mxCell id="Xeo_94hPjWmz_vQG5gyQ-285" value="External Material&lt;br&gt;In" style="ellipse;whiteSpace=wrap;html=1;aspect=fixed;" vertex="1" parent="1">
          <mxGeometry x="1692.5" y="731.5" width="60" height="60" as="geometry" />
        </mxCell>
        <mxCell id="Xeo_94hPjWmz_vQG5gyQ-286" value="" style="group" vertex="1" connectable="0" parent="1">
          <mxGeometry x="1643.99" y="605" width="30" height="20" as="geometry" />
        </mxCell>
        <mxCell id="Xeo_94hPjWmz_vQG5gyQ-287" value="i:dt:o" style="shape=offPageConnector;whiteSpace=wrap;html=1;" vertex="1" parent="Xeo_94hPjWmz_vQG5gyQ-286">
          <mxGeometry width="30" height="20" as="geometry" />
        </mxCell>
        <mxCell id="Xeo_94hPjWmz_vQG5gyQ-288" style="edgeStyle=orthogonalEdgeStyle;rounded=0;orthogonalLoop=1;jettySize=auto;html=1;exitX=0;exitY=0;exitDx=0;exitDy=0;entryX=0.75;entryY=0;entryDx=0;entryDy=0;startArrow=baseDash;startFill=0;" edge="1" parent="Xeo_94hPjWmz_vQG5gyQ-286">
          <mxGeometry relative="1" as="geometry">
            <mxPoint x="22.5" as="targetPoint" />
            <Array as="points" />
            <mxPoint as="sourcePoint" />
          </mxGeometry>
        </mxCell>
        <mxCell id="Xeo_94hPjWmz_vQG5gyQ-289" value="" style="group" vertex="1" connectable="0" parent="1">
          <mxGeometry x="1870" y="560" width="30" height="20" as="geometry" />
        </mxCell>
        <mxCell id="Xeo_94hPjWmz_vQG5gyQ-290" value="i:dt:o" style="shape=offPageConnector;whiteSpace=wrap;html=1;" vertex="1" parent="Xeo_94hPjWmz_vQG5gyQ-289">
          <mxGeometry width="30" height="20" as="geometry" />
        </mxCell>
        <mxCell id="Xeo_94hPjWmz_vQG5gyQ-291" value="i:dt:off" style="shape=offPageConnector;whiteSpace=wrap;html=1;" vertex="1" parent="1">
          <mxGeometry x="1867.5" y="731.5" width="40" height="20" as="geometry" />
        </mxCell>
        <mxCell id="Xeo_94hPjWmz_vQG5gyQ-292" style="edgeStyle=orthogonalEdgeStyle;rounded=0;orthogonalLoop=1;jettySize=auto;html=1;exitX=0;exitY=0;exitDx=0;exitDy=0;entryX=1;entryY=0;entryDx=0;entryDy=0;endArrow=ERmany;endFill=0;" edge="1" parent="1" target="Xeo_94hPjWmz_vQG5gyQ-291">
          <mxGeometry relative="1" as="geometry">
            <mxPoint x="1882.5" y="731.5" as="targetPoint" />
            <Array as="points">
              <mxPoint x="1877.5" y="731.5" />
              <mxPoint x="1877.5" y="731.5" />
            </Array>
            <mxPoint x="1867.5" y="731.5" as="sourcePoint" />
          </mxGeometry>
        </mxCell>
        <mxCell id="Xeo_94hPjWmz_vQG5gyQ-293" value="&lt;b&gt;IR&lt;/b&gt;" style="rounded=0;whiteSpace=wrap;html=1;" vertex="1" parent="1">
          <mxGeometry x="1970" y="600" width="20" height="20" as="geometry" />
        </mxCell>
        <mxCell id="Xeo_94hPjWmz_vQG5gyQ-294" value="&lt;b&gt;IR&lt;/b&gt;" style="rounded=0;whiteSpace=wrap;html=1;" vertex="1" parent="1">
          <mxGeometry x="1740" y="645" width="23.99" height="20" as="geometry" />
        </mxCell>
        <mxCell id="Xeo_94hPjWmz_vQG5gyQ-295" value="&lt;b&gt;IS&lt;/b&gt;" style="rounded=0;whiteSpace=wrap;html=1;" vertex="1" parent="1">
          <mxGeometry x="1967.5" y="771.5" width="20" height="20" as="geometry" />
        </mxCell>
        <mxCell id="Xeo_94hPjWmz_vQG5gyQ-296" value="" style="endArrow=none;dashed=1;html=1;dashPattern=1 3;strokeWidth=2;rounded=0;" edge="1" parent="1">
          <mxGeometry width="50" height="50" relative="1" as="geometry">
            <mxPoint x="1550" y="940" as="sourcePoint" />
            <mxPoint x="2190" y="940" as="targetPoint" />
          </mxGeometry>
        </mxCell>
        <mxCell id="Xeo_94hPjWmz_vQG5gyQ-297" style="edgeStyle=orthogonalEdgeStyle;rounded=0;orthogonalLoop=1;jettySize=auto;html=1;exitX=0.5;exitY=0;exitDx=0;exitDy=0;startArrow=classic;startFill=1;endArrow=classic;endFill=1;entryX=1;entryY=0.5;entryDx=0;entryDy=0;" edge="1" parent="1" source="Xeo_94hPjWmz_vQG5gyQ-267" target="Xeo_94hPjWmz_vQG5gyQ-299">
          <mxGeometry relative="1" as="geometry">
            <Array as="points">
              <mxPoint x="1703.99" y="570" />
            </Array>
            <mxPoint x="1671.45" y="530" as="sourcePoint" />
          </mxGeometry>
        </mxCell>
        <mxCell id="Xeo_94hPjWmz_vQG5gyQ-298" value="&lt;font style=&quot;font-size: 8px;&quot;&gt;[feedback]&amp;gt;o&lt;br style=&quot;border-color: var(--border-color);&quot;&gt;(control)&amp;gt;□&lt;/font&gt;" style="edgeLabel;html=1;align=center;verticalAlign=middle;resizable=0;points=[];" vertex="1" connectable="0" parent="Xeo_94hPjWmz_vQG5gyQ-297">
          <mxGeometry x="-0.0612" y="2" relative="1" as="geometry">
            <mxPoint x="2" y="2" as="offset" />
          </mxGeometry>
        </mxCell>
        <mxCell id="Xeo_94hPjWmz_vQG5gyQ-299" value="External Signals" style="ellipse;whiteSpace=wrap;html=1;aspect=fixed;" vertex="1" parent="1">
          <mxGeometry x="1620" y="545" width="50" height="50" as="geometry" />
        </mxCell>
        <mxCell id="Xeo_94hPjWmz_vQG5gyQ-300" style="edgeStyle=orthogonalEdgeStyle;rounded=0;orthogonalLoop=1;jettySize=auto;html=1;exitX=0;exitY=0.75;exitDx=0;exitDy=0;entryX=1;entryY=0.5;entryDx=0;entryDy=0;startArrow=classic;startFill=1;endArrow=classic;endFill=1;" edge="1" parent="1" source="Xeo_94hPjWmz_vQG5gyQ-270" target="Xeo_94hPjWmz_vQG5gyQ-271">
          <mxGeometry relative="1" as="geometry">
            <Array as="points">
              <mxPoint x="1790" y="605" />
              <mxPoint x="1790" y="715" />
            </Array>
            <mxPoint x="1807.5" y="675" as="sourcePoint" />
            <mxPoint x="1760" y="645" as="targetPoint" />
          </mxGeometry>
        </mxCell>
        <mxCell id="Xeo_94hPjWmz_vQG5gyQ-301" value="&lt;font style=&quot;font-size: 8px;&quot;&gt;[rate]&amp;gt;o&lt;br style=&quot;border-color: var(--border-color);&quot;&gt;(potential)&amp;gt;□&lt;/font&gt;" style="edgeLabel;html=1;align=center;verticalAlign=middle;resizable=0;points=[];" vertex="1" connectable="0" parent="Xeo_94hPjWmz_vQG5gyQ-300">
          <mxGeometry x="-0.0612" y="2" relative="1" as="geometry">
            <mxPoint as="offset" />
          </mxGeometry>
        </mxCell>
        <mxCell id="Xeo_94hPjWmz_vQG5gyQ-302" style="edgeStyle=orthogonalEdgeStyle;rounded=0;orthogonalLoop=1;jettySize=auto;html=1;entryX=1;entryY=0.5;entryDx=0;entryDy=0;exitX=0;exitY=0.5;exitDx=0;exitDy=0;endArrow=classic;endFill=1;startArrow=classic;startFill=1;" edge="1" parent="1" source="Xeo_94hPjWmz_vQG5gyQ-279" target="Xeo_94hPjWmz_vQG5gyQ-285">
          <mxGeometry relative="1" as="geometry">
            <Array as="points">
              <mxPoint x="1767.5" y="761.5" />
              <mxPoint x="1767.5" y="761.5" />
            </Array>
            <mxPoint x="1807.5" y="841.5" as="sourcePoint" />
            <mxPoint x="1783.5" y="861.5" as="targetPoint" />
          </mxGeometry>
        </mxCell>
        <mxCell id="Xeo_94hPjWmz_vQG5gyQ-303" value="&lt;font style=&quot;font-size: 8px;&quot;&gt;[used]&amp;gt;o&lt;br style=&quot;border-color: var(--border-color);&quot;&gt;(provided)&amp;gt;□&lt;/font&gt;" style="edgeLabel;html=1;align=center;verticalAlign=middle;resizable=0;points=[];" vertex="1" connectable="0" parent="Xeo_94hPjWmz_vQG5gyQ-302">
          <mxGeometry x="-0.0915" y="2" relative="1" as="geometry">
            <mxPoint x="-6" y="-2" as="offset" />
          </mxGeometry>
        </mxCell>
        <mxCell id="Xeo_94hPjWmz_vQG5gyQ-304" style="edgeStyle=orthogonalEdgeStyle;rounded=0;orthogonalLoop=1;jettySize=auto;html=1;exitX=0;exitY=0.5;exitDx=0;exitDy=0;endArrow=none;endFill=0;startArrow=diamondThin;startFill=0;" edge="1" parent="1" source="Xeo_94hPjWmz_vQG5gyQ-306" target="Xeo_94hPjWmz_vQG5gyQ-310">
          <mxGeometry relative="1" as="geometry" />
        </mxCell>
        <mxCell id="Xeo_94hPjWmz_vQG5gyQ-305" value="uses" style="edgeLabel;html=1;align=center;verticalAlign=middle;resizable=0;points=[];" vertex="1" connectable="0" parent="Xeo_94hPjWmz_vQG5gyQ-304">
          <mxGeometry x="0.2508" y="1" relative="1" as="geometry">
            <mxPoint as="offset" />
          </mxGeometry>
        </mxCell>
        <mxCell id="Xeo_94hPjWmz_vQG5gyQ-306" value="Component B&lt;br&gt;(left)" style="shape=trapezoid;perimeter=trapezoidPerimeter;whiteSpace=wrap;html=1;fixedSize=1;" vertex="1" parent="1">
          <mxGeometry x="1840" y="1330.01" width="100" height="60" as="geometry" />
        </mxCell>
        <mxCell id="Xeo_94hPjWmz_vQG5gyQ-307" style="edgeStyle=orthogonalEdgeStyle;rounded=0;orthogonalLoop=1;jettySize=auto;html=1;exitX=1;exitY=0.5;exitDx=0;exitDy=0;startArrow=diamondThin;startFill=0;endArrow=none;endFill=0;" edge="1" parent="1" source="Xeo_94hPjWmz_vQG5gyQ-309" target="Xeo_94hPjWmz_vQG5gyQ-310">
          <mxGeometry relative="1" as="geometry" />
        </mxCell>
        <mxCell id="Xeo_94hPjWmz_vQG5gyQ-308" value="uses" style="edgeLabel;html=1;align=center;verticalAlign=middle;resizable=0;points=[];" vertex="1" connectable="0" parent="Xeo_94hPjWmz_vQG5gyQ-307">
          <mxGeometry x="-0.3584" relative="1" as="geometry">
            <mxPoint x="7" as="offset" />
          </mxGeometry>
        </mxCell>
        <mxCell id="Xeo_94hPjWmz_vQG5gyQ-309" value="Component A&lt;br&gt;(right)" style="shape=trapezoid;perimeter=trapezoidPerimeter;whiteSpace=wrap;html=1;fixedSize=1;" vertex="1" parent="1">
          <mxGeometry x="1570" y="1330.01" width="100" height="60" as="geometry" />
        </mxCell>
        <mxCell id="Xeo_94hPjWmz_vQG5gyQ-310" value="Interaction Flow (e.g. Force)" style="ellipse;whiteSpace=wrap;html=1;aspect=fixed;" vertex="1" parent="1">
          <mxGeometry x="1725" y="1330.01" width="60" height="60" as="geometry" />
        </mxCell>
        <mxCell id="Xeo_94hPjWmz_vQG5gyQ-311" style="edgeStyle=orthogonalEdgeStyle;rounded=0;orthogonalLoop=1;jettySize=auto;html=1;exitX=0;exitY=0.365;exitDx=0;exitDy=0;exitPerimeter=0;" edge="1" parent="1" source="Xeo_94hPjWmz_vQG5gyQ-315" target="Xeo_94hPjWmz_vQG5gyQ-309">
          <mxGeometry relative="1" as="geometry" />
        </mxCell>
        <mxCell id="Xeo_94hPjWmz_vQG5gyQ-312" value="new input&lt;br&gt;signal" style="edgeLabel;html=1;align=center;verticalAlign=middle;resizable=0;points=[];" vertex="1" connectable="0" parent="Xeo_94hPjWmz_vQG5gyQ-311">
          <mxGeometry x="0.3696" y="2" relative="1" as="geometry">
            <mxPoint x="46" y="-1" as="offset" />
          </mxGeometry>
        </mxCell>
        <mxCell id="Xeo_94hPjWmz_vQG5gyQ-313" style="edgeStyle=orthogonalEdgeStyle;rounded=0;orthogonalLoop=1;jettySize=auto;html=1;exitX=1;exitY=0.365;exitDx=0;exitDy=0;exitPerimeter=0;" edge="1" parent="1" source="Xeo_94hPjWmz_vQG5gyQ-315" target="Xeo_94hPjWmz_vQG5gyQ-306">
          <mxGeometry relative="1" as="geometry" />
        </mxCell>
        <mxCell id="Xeo_94hPjWmz_vQG5gyQ-314" value="new input&lt;br&gt;signal" style="edgeLabel;html=1;align=center;verticalAlign=middle;resizable=0;points=[];" vertex="1" connectable="0" parent="Xeo_94hPjWmz_vQG5gyQ-313">
          <mxGeometry x="0.0202" relative="1" as="geometry">
            <mxPoint x="-28" y="5" as="offset" />
          </mxGeometry>
        </mxCell>
        <mxCell id="Xeo_94hPjWmz_vQG5gyQ-315" value="Input&lt;br&gt;Signal" style="whiteSpace=wrap;html=1;shape=mxgraph.basic.pentagon" vertex="1" parent="1">
          <mxGeometry x="1720.22" y="1260.01" width="70" height="40" as="geometry" />
        </mxCell>
        <mxCell id="Xeo_94hPjWmz_vQG5gyQ-316" value="Flow to&lt;br&gt;Affect" style="whiteSpace=wrap;html=1;shape=mxgraph.basic.pentagon;align=center;" vertex="1" parent="1">
          <mxGeometry x="1720" y="1420.01" width="70" height="40" as="geometry" />
        </mxCell>
        <mxCell id="Xeo_94hPjWmz_vQG5gyQ-317" style="edgeStyle=orthogonalEdgeStyle;rounded=0;orthogonalLoop=1;jettySize=auto;html=1;exitX=0.5;exitY=1;exitDx=0;exitDy=0;entryX=1;entryY=0.365;entryDx=0;entryDy=0;entryPerimeter=0;" edge="1" parent="1" source="Xeo_94hPjWmz_vQG5gyQ-306" target="Xeo_94hPjWmz_vQG5gyQ-316">
          <mxGeometry relative="1" as="geometry" />
        </mxCell>
        <mxCell id="Xeo_94hPjWmz_vQG5gyQ-318" value="new&lt;br&gt;output" style="edgeLabel;html=1;align=center;verticalAlign=middle;resizable=0;points=[];" vertex="1" connectable="0" parent="Xeo_94hPjWmz_vQG5gyQ-317">
          <mxGeometry x="0.3965" y="-1" relative="1" as="geometry">
            <mxPoint x="16" y="-4" as="offset" />
          </mxGeometry>
        </mxCell>
        <mxCell id="Xeo_94hPjWmz_vQG5gyQ-319" style="edgeStyle=orthogonalEdgeStyle;rounded=0;orthogonalLoop=1;jettySize=auto;html=1;exitX=0.5;exitY=1;exitDx=0;exitDy=0;entryX=0;entryY=0.365;entryDx=0;entryDy=0;entryPerimeter=0;" edge="1" parent="1" source="Xeo_94hPjWmz_vQG5gyQ-309" target="Xeo_94hPjWmz_vQG5gyQ-316">
          <mxGeometry relative="1" as="geometry" />
        </mxCell>
        <mxCell id="Xeo_94hPjWmz_vQG5gyQ-320" value="new&lt;br&gt;output" style="edgeLabel;html=1;align=center;verticalAlign=middle;resizable=0;points=[];" vertex="1" connectable="0" parent="Xeo_94hPjWmz_vQG5gyQ-319">
          <mxGeometry x="0.1445" y="2" relative="1" as="geometry">
            <mxPoint as="offset" />
          </mxGeometry>
        </mxCell>
        <mxCell id="Xeo_94hPjWmz_vQG5gyQ-321" value="New Value" style="endArrow=open;html=1;rounded=0;dashed=1;entryX=1;entryY=0.25;entryDx=0;entryDy=0;edgeStyle=orthogonalEdgeStyle;exitX=0;exitY=0.25;exitDx=0;exitDy=0;endFill=0;" edge="1" parent="1">
          <mxGeometry x="0.0117" width="50" height="50" relative="1" as="geometry">
            <mxPoint x="1854.49" y="1349.01" as="sourcePoint" />
            <mxPoint x="1656.49" y="1349.01" as="targetPoint" />
            <Array as="points">
              <mxPoint x="1820.49" y="1349.01" />
              <mxPoint x="1820.49" y="1320.01" />
              <mxPoint x="1690.49" y="1320.01" />
              <mxPoint x="1690.49" y="1349.01" />
            </Array>
            <mxPoint as="offset" />
          </mxGeometry>
        </mxCell>
        <mxCell id="Xeo_94hPjWmz_vQG5gyQ-322" value="New Value" style="endArrow=open;html=1;rounded=0;dashed=1;entryX=0;entryY=0.75;entryDx=0;entryDy=0;edgeStyle=orthogonalEdgeStyle;exitX=1;exitY=0.75;exitDx=0;exitDy=0;endFill=0;" edge="1" parent="1">
          <mxGeometry x="-0.0084" width="50" height="50" relative="1" as="geometry">
            <mxPoint x="1664" y="1373.01" as="sourcePoint" />
            <mxPoint x="1846" y="1373.01" as="targetPoint" />
            <Array as="points">
              <mxPoint x="1663.99" y="1374.01" />
              <mxPoint x="1689.99" y="1374.01" />
              <mxPoint x="1689.99" y="1400.01" />
              <mxPoint x="1819.99" y="1400.01" />
              <mxPoint x="1819.99" y="1373.01" />
            </Array>
            <mxPoint as="offset" />
          </mxGeometry>
        </mxCell>
        <mxCell id="Xeo_94hPjWmz_vQG5gyQ-323" style="edgeStyle=orthogonalEdgeStyle;rounded=0;orthogonalLoop=1;jettySize=auto;html=1;exitX=0;exitY=0.5;exitDx=0;exitDy=0;entryX=0.5;entryY=1;entryDx=0;entryDy=0;endArrow=none;endFill=0;startArrow=classic;startFill=1;" edge="1" parent="1" source="Xeo_94hPjWmz_vQG5gyQ-335" target="Xeo_94hPjWmz_vQG5gyQ-346">
          <mxGeometry relative="1" as="geometry">
            <Array as="points">
              <mxPoint x="2434" y="230" />
              <mxPoint x="2434" y="270" />
              <mxPoint x="2389" y="270" />
            </Array>
          </mxGeometry>
        </mxCell>
        <mxCell id="Xeo_94hPjWmz_vQG5gyQ-324" value="&lt;font style=&quot;font-size: 11px;&quot;&gt;rate (r)&lt;/font&gt;" style="edgeLabel;html=1;align=center;verticalAlign=middle;resizable=0;points=[];" vertex="1" connectable="0" parent="Xeo_94hPjWmz_vQG5gyQ-323">
          <mxGeometry x="0.084" relative="1" as="geometry">
            <mxPoint x="-1" as="offset" />
          </mxGeometry>
        </mxCell>
        <mxCell id="Xeo_94hPjWmz_vQG5gyQ-325" value="&lt;font style=&quot;font-size: 8px;&quot;&gt;&amp;lt;uses&amp;gt;&lt;/font&gt;" style="edgeLabel;html=1;align=center;verticalAlign=middle;resizable=0;points=[];" vertex="1" connectable="0" parent="Xeo_94hPjWmz_vQG5gyQ-323">
          <mxGeometry x="-0.7299" y="-1" relative="1" as="geometry">
            <mxPoint y="-9" as="offset" />
          </mxGeometry>
        </mxCell>
        <mxCell id="Xeo_94hPjWmz_vQG5gyQ-326" style="edgeStyle=orthogonalEdgeStyle;rounded=0;orthogonalLoop=1;jettySize=auto;html=1;exitX=0.75;exitY=0;exitDx=0;exitDy=0;entryX=1;entryY=0.5;entryDx=0;entryDy=0;startArrow=classic;startFill=1;endArrow=none;endFill=0;" edge="1" parent="1" source="Xeo_94hPjWmz_vQG5gyQ-369" target="Xeo_94hPjWmz_vQG5gyQ-345">
          <mxGeometry relative="1" as="geometry">
            <Array as="points">
              <mxPoint x="2483.99" y="130" />
            </Array>
            <mxPoint x="2461.49" y="160" as="sourcePoint" />
          </mxGeometry>
        </mxCell>
        <mxCell id="Xeo_94hPjWmz_vQG5gyQ-327" value="&lt;font style=&quot;font-size: 10px;&quot;&gt;feedback (r)&lt;/font&gt;" style="edgeLabel;html=1;align=center;verticalAlign=middle;resizable=0;points=[];" vertex="1" connectable="0" parent="Xeo_94hPjWmz_vQG5gyQ-326">
          <mxGeometry x="-0.0612" y="2" relative="1" as="geometry">
            <mxPoint x="-3" y="-2" as="offset" />
          </mxGeometry>
        </mxCell>
        <mxCell id="Xeo_94hPjWmz_vQG5gyQ-328" value="&lt;font style=&quot;font-size: 8px;&quot;&gt;&amp;lt;controlled by&amp;gt;&lt;/font&gt;" style="edgeLabel;html=1;align=center;verticalAlign=middle;resizable=0;points=[];" vertex="1" connectable="0" parent="Xeo_94hPjWmz_vQG5gyQ-326">
          <mxGeometry x="-0.6033" y="1" relative="1" as="geometry">
            <mxPoint x="-29" y="8" as="offset" />
          </mxGeometry>
        </mxCell>
        <mxCell id="Xeo_94hPjWmz_vQG5gyQ-329" style="edgeStyle=orthogonalEdgeStyle;rounded=0;orthogonalLoop=1;jettySize=auto;html=1;exitX=0.25;exitY=1;exitDx=0;exitDy=0;entryX=0;entryY=0.5;entryDx=0;entryDy=0;startArrow=none;startFill=0;endArrow=classic;endFill=1;" edge="1" parent="1" source="Xeo_94hPjWmz_vQG5gyQ-367" target="Xeo_94hPjWmz_vQG5gyQ-355">
          <mxGeometry relative="1" as="geometry">
            <Array as="points">
              <mxPoint x="2560" y="300" />
              <mxPoint x="2560" y="320" />
            </Array>
            <mxPoint x="2584.38" y="280" as="sourcePoint" />
            <mxPoint x="2613.9900000000052" y="278.69999999999993" as="targetPoint" />
          </mxGeometry>
        </mxCell>
        <mxCell id="Xeo_94hPjWmz_vQG5gyQ-330" value="&lt;font style=&quot;font-size: 11px;&quot;&gt;provided&lt;/font&gt;" style="edgeLabel;html=1;align=center;verticalAlign=middle;resizable=0;points=[];" vertex="1" connectable="0" parent="Xeo_94hPjWmz_vQG5gyQ-329">
          <mxGeometry x="-0.257" y="1" relative="1" as="geometry">
            <mxPoint x="-11" y="7" as="offset" />
          </mxGeometry>
        </mxCell>
        <mxCell id="Xeo_94hPjWmz_vQG5gyQ-331" value="&lt;font style=&quot;font-size: 8px;&quot;&gt;&amp;lt;provides&amp;gt;&lt;/font&gt;" style="edgeLabel;html=1;align=center;verticalAlign=middle;resizable=0;points=[];" vertex="1" connectable="0" parent="Xeo_94hPjWmz_vQG5gyQ-329">
          <mxGeometry x="-0.7558" y="1" relative="1" as="geometry">
            <mxPoint x="20" as="offset" />
          </mxGeometry>
        </mxCell>
        <mxCell id="Xeo_94hPjWmz_vQG5gyQ-332" style="edgeStyle=orthogonalEdgeStyle;rounded=0;orthogonalLoop=1;jettySize=auto;html=1;exitX=0.5;exitY=0;exitDx=0;exitDy=0;entryX=0;entryY=0.5;entryDx=0;entryDy=0;startArrow=none;startFill=0;endArrow=classic;endFill=1;" edge="1" parent="1" source="Xeo_94hPjWmz_vQG5gyQ-335" target="Xeo_94hPjWmz_vQG5gyQ-358">
          <mxGeometry relative="1" as="geometry">
            <Array as="points">
              <mxPoint x="2519" y="130" />
            </Array>
          </mxGeometry>
        </mxCell>
        <mxCell id="Xeo_94hPjWmz_vQG5gyQ-333" value="heat" style="edgeLabel;html=1;align=center;verticalAlign=middle;resizable=0;points=[];" vertex="1" connectable="0" parent="Xeo_94hPjWmz_vQG5gyQ-332">
          <mxGeometry x="-0.0462" relative="1" as="geometry">
            <mxPoint x="-2" as="offset" />
          </mxGeometry>
        </mxCell>
        <mxCell id="Xeo_94hPjWmz_vQG5gyQ-334" value="&lt;font style=&quot;font-size: 8px;&quot;&gt;&amp;lt;outputs&amp;gt;&lt;/font&gt;" style="edgeLabel;html=1;align=center;verticalAlign=middle;resizable=0;points=[];" vertex="1" connectable="0" parent="Xeo_94hPjWmz_vQG5gyQ-332">
          <mxGeometry x="-0.8329" y="-1" relative="1" as="geometry">
            <mxPoint x="20" as="offset" />
          </mxGeometry>
        </mxCell>
        <mxCell id="Xeo_94hPjWmz_vQG5gyQ-335" value="Function Name&lt;div&gt;&amp;lt;Physical, Logical&amp;gt;&lt;br&gt;&lt;/div&gt;" style="rounded=0;whiteSpace=wrap;html=1;" vertex="1" parent="1">
          <mxGeometry x="2453.99" y="160" width="130" height="140" as="geometry" />
        </mxCell>
        <mxCell id="Xeo_94hPjWmz_vQG5gyQ-336" style="edgeStyle=orthogonalEdgeStyle;rounded=0;orthogonalLoop=1;jettySize=auto;html=1;exitX=1;exitY=0.5;exitDx=0;exitDy=0;startArrow=none;startFill=0;endArrow=classic;endFill=1;entryX=0;entryY=0.5;entryDx=0;entryDy=0;" edge="1" parent="1" source="Xeo_94hPjWmz_vQG5gyQ-338" target="Xeo_94hPjWmz_vQG5gyQ-345">
          <mxGeometry relative="1" as="geometry">
            <Array as="points">
              <mxPoint x="2343.99" y="130" />
              <mxPoint x="2343.99" y="129" />
              <mxPoint x="2363.99" y="129" />
              <mxPoint x="2363.99" y="130" />
            </Array>
            <mxPoint x="2280" y="129" as="sourcePoint" />
            <mxPoint x="2343.99" y="160" as="targetPoint" />
          </mxGeometry>
        </mxCell>
        <mxCell id="Xeo_94hPjWmz_vQG5gyQ-337" value="&lt;font style=&quot;&quot;&gt;&lt;font style=&quot;font-size: 11px;&quot;&gt;control&lt;/font&gt;&lt;br&gt;&lt;/font&gt;" style="edgeLabel;html=1;align=center;verticalAlign=middle;resizable=0;points=[];" vertex="1" connectable="0" parent="Xeo_94hPjWmz_vQG5gyQ-336">
          <mxGeometry x="-0.412" relative="1" as="geometry">
            <mxPoint as="offset" />
          </mxGeometry>
        </mxCell>
        <mxCell id="Xeo_94hPjWmz_vQG5gyQ-338" value="Control Function&lt;br&gt;Name" style="rounded=0;whiteSpace=wrap;html=1;" vertex="1" parent="1">
          <mxGeometry x="2220" y="100" width="110" height="60" as="geometry" />
        </mxCell>
        <mxCell id="Xeo_94hPjWmz_vQG5gyQ-339" style="edgeStyle=orthogonalEdgeStyle;rounded=0;orthogonalLoop=1;jettySize=auto;html=1;exitX=1;exitY=0.25;exitDx=0;exitDy=0;entryX=0.5;entryY=0;entryDx=0;entryDy=0;endArrow=classic;endFill=1;startArrow=none;startFill=0;" edge="1" parent="1" source="Xeo_94hPjWmz_vQG5gyQ-341" target="Xeo_94hPjWmz_vQG5gyQ-346">
          <mxGeometry relative="1" as="geometry" />
        </mxCell>
        <mxCell id="Xeo_94hPjWmz_vQG5gyQ-340" value="&lt;font style=&quot;font-size: 11px;&quot;&gt;potential&lt;/font&gt;" style="edgeLabel;html=1;align=center;verticalAlign=middle;resizable=0;points=[];" vertex="1" connectable="0" parent="Xeo_94hPjWmz_vQG5gyQ-339">
          <mxGeometry x="-0.2071" relative="1" as="geometry">
            <mxPoint x="12" y="-5" as="offset" />
          </mxGeometry>
        </mxCell>
        <mxCell id="Xeo_94hPjWmz_vQG5gyQ-341" value="Provide Energy" style="rounded=0;whiteSpace=wrap;html=1;" vertex="1" parent="1">
          <mxGeometry x="2220" y="185" width="110" height="60" as="geometry" />
        </mxCell>
        <mxCell id="Xeo_94hPjWmz_vQG5gyQ-342" style="edgeStyle=orthogonalEdgeStyle;rounded=0;orthogonalLoop=1;jettySize=auto;html=1;exitX=1;exitY=0.5;exitDx=0;exitDy=0;endArrow=classic;endFill=1;startArrow=none;startFill=0;" edge="1" parent="1" source="Xeo_94hPjWmz_vQG5gyQ-344" target="Xeo_94hPjWmz_vQG5gyQ-350">
          <mxGeometry relative="1" as="geometry" />
        </mxCell>
        <mxCell id="Xeo_94hPjWmz_vQG5gyQ-343" value="&lt;font style=&quot;font-size: 11px;&quot;&gt;provided&lt;/font&gt;" style="edgeLabel;html=1;align=center;verticalAlign=middle;resizable=0;points=[];" vertex="1" connectable="0" parent="Xeo_94hPjWmz_vQG5gyQ-342">
          <mxGeometry x="-0.0404" relative="1" as="geometry">
            <mxPoint as="offset" />
          </mxGeometry>
        </mxCell>
        <mxCell id="Xeo_94hPjWmz_vQG5gyQ-344" value="Supply Material" style="rounded=0;whiteSpace=wrap;html=1;" vertex="1" parent="1">
          <mxGeometry x="2220" y="294" width="110" height="60" as="geometry" />
        </mxCell>
        <mxCell id="Xeo_94hPjWmz_vQG5gyQ-345" value="External Signals" style="ellipse;whiteSpace=wrap;html=1;aspect=fixed;" vertex="1" parent="1">
          <mxGeometry x="2383.99" y="105" width="50" height="50" as="geometry" />
        </mxCell>
        <mxCell id="Xeo_94hPjWmz_vQG5gyQ-346" value="External Energy&lt;br&gt;In" style="ellipse;whiteSpace=wrap;html=1;aspect=fixed;" vertex="1" parent="1">
          <mxGeometry x="2363.99" y="205" width="50" height="50" as="geometry" />
        </mxCell>
        <mxCell id="Xeo_94hPjWmz_vQG5gyQ-347" style="edgeStyle=orthogonalEdgeStyle;rounded=0;orthogonalLoop=1;jettySize=auto;html=1;entryX=1;entryY=0.5;entryDx=0;entryDy=0;exitX=0.25;exitY=1;exitDx=0;exitDy=0;endArrow=none;endFill=0;startArrow=classic;startFill=1;" edge="1" parent="1" source="Xeo_94hPjWmz_vQG5gyQ-335" target="Xeo_94hPjWmz_vQG5gyQ-350">
          <mxGeometry relative="1" as="geometry">
            <Array as="points">
              <mxPoint x="2485.99" y="310" />
              <mxPoint x="2485.99" y="326" />
            </Array>
            <mxPoint x="2463.99" y="350" as="sourcePoint" />
          </mxGeometry>
        </mxCell>
        <mxCell id="Xeo_94hPjWmz_vQG5gyQ-348" value="&lt;font style=&quot;font-size: 11px;&quot;&gt;used (r)&lt;/font&gt;" style="edgeLabel;html=1;align=center;verticalAlign=middle;resizable=0;points=[];" vertex="1" connectable="0" parent="Xeo_94hPjWmz_vQG5gyQ-347">
          <mxGeometry x="-0.0915" y="2" relative="1" as="geometry">
            <mxPoint x="-4" y="-4" as="offset" />
          </mxGeometry>
        </mxCell>
        <mxCell id="Xeo_94hPjWmz_vQG5gyQ-349" value="&lt;font style=&quot;font-size: 8px;&quot;&gt;&amp;lt;uses&amp;gt;&lt;/font&gt;" style="edgeLabel;html=1;align=center;verticalAlign=middle;resizable=0;points=[];" vertex="1" connectable="0" parent="Xeo_94hPjWmz_vQG5gyQ-347">
          <mxGeometry x="-0.8502" relative="1" as="geometry">
            <mxPoint x="18" y="4" as="offset" />
          </mxGeometry>
        </mxCell>
        <mxCell id="Xeo_94hPjWmz_vQG5gyQ-350" value="External Material&lt;br&gt;In" style="ellipse;whiteSpace=wrap;html=1;aspect=fixed;" vertex="1" parent="1">
          <mxGeometry x="2401.99" y="300" width="52" height="52" as="geometry" />
        </mxCell>
        <mxCell id="Xeo_94hPjWmz_vQG5gyQ-351" value="Evacuate Waste Energy" style="rounded=0;whiteSpace=wrap;html=1;" vertex="1" parent="1">
          <mxGeometry x="2653.99" y="135" width="90" height="60" as="geometry" />
        </mxCell>
        <mxCell id="Xeo_94hPjWmz_vQG5gyQ-352" style="edgeStyle=orthogonalEdgeStyle;rounded=0;orthogonalLoop=1;jettySize=auto;html=1;exitX=0.5;exitY=1;exitDx=0;exitDy=0;endArrow=none;endFill=0;startArrow=classic;startFill=1;entryX=1;entryY=0.5;entryDx=0;entryDy=0;" edge="1" parent="1" source="Xeo_94hPjWmz_vQG5gyQ-354" target="Xeo_94hPjWmz_vQG5gyQ-355">
          <mxGeometry relative="1" as="geometry">
            <Array as="points">
              <mxPoint x="2698.99" y="320" />
            </Array>
            <mxPoint x="2788.99" y="330.96000000000004" as="sourcePoint" />
            <mxPoint x="2693.9899999999934" y="308.98" as="targetPoint" />
          </mxGeometry>
        </mxCell>
        <mxCell id="Xeo_94hPjWmz_vQG5gyQ-353" value="&lt;font style=&quot;font-size: 11px;&quot;&gt;used (r)&lt;/font&gt;" style="edgeLabel;html=1;align=center;verticalAlign=middle;resizable=0;points=[];" vertex="1" connectable="0" parent="Xeo_94hPjWmz_vQG5gyQ-352">
          <mxGeometry x="0.2904" y="-1" relative="1" as="geometry">
            <mxPoint x="25" y="1" as="offset" />
          </mxGeometry>
        </mxCell>
        <mxCell id="Xeo_94hPjWmz_vQG5gyQ-354" value="Take Output Material From Function Name" style="rounded=0;whiteSpace=wrap;html=1;" vertex="1" parent="1">
          <mxGeometry x="2653.99" y="209.99999999999994" width="90" height="80" as="geometry" />
        </mxCell>
        <mxCell id="Xeo_94hPjWmz_vQG5gyQ-355" value="External Material&lt;br&gt;Out" style="ellipse;whiteSpace=wrap;html=1;aspect=fixed;" vertex="1" parent="1">
          <mxGeometry x="2583.99" y="290" width="60" height="60" as="geometry" />
        </mxCell>
        <mxCell id="Xeo_94hPjWmz_vQG5gyQ-356" style="edgeStyle=orthogonalEdgeStyle;rounded=0;orthogonalLoop=1;jettySize=auto;html=1;exitX=1;exitY=0;exitDx=0;exitDy=0;endArrow=classic;endFill=1;startArrow=none;startFill=0;entryX=0.5;entryY=0;entryDx=0;entryDy=0;" edge="1" parent="1" source="Xeo_94hPjWmz_vQG5gyQ-358" target="Xeo_94hPjWmz_vQG5gyQ-351">
          <mxGeometry relative="1" as="geometry">
            <mxPoint x="2603.4799999999996" y="166.14000000000004" as="sourcePoint" />
            <mxPoint x="2653.99" y="180" as="targetPoint" />
            <Array as="points">
              <mxPoint x="2700" y="109" />
              <mxPoint x="2700" y="130" />
              <mxPoint x="2699" y="130" />
            </Array>
          </mxGeometry>
        </mxCell>
        <mxCell id="Xeo_94hPjWmz_vQG5gyQ-357" value="evac rate (r)" style="edgeLabel;html=1;align=center;verticalAlign=middle;resizable=0;points=[];" vertex="1" connectable="0" parent="Xeo_94hPjWmz_vQG5gyQ-356">
          <mxGeometry x="-0.225" relative="1" as="geometry">
            <mxPoint x="3" as="offset" />
          </mxGeometry>
        </mxCell>
        <mxCell id="Xeo_94hPjWmz_vQG5gyQ-358" value="External Energy&lt;br&gt;Out" style="ellipse;whiteSpace=wrap;html=1;aspect=fixed;" vertex="1" parent="1">
          <mxGeometry x="2583.99" y="100" width="60" height="60" as="geometry" />
        </mxCell>
        <mxCell id="Xeo_94hPjWmz_vQG5gyQ-359" value="&lt;b&gt;ED&lt;/b&gt;" style="rounded=0;whiteSpace=wrap;html=1;" vertex="1" parent="1">
          <mxGeometry x="2723.99" y="175" width="20" height="20" as="geometry" />
        </mxCell>
        <mxCell id="Xeo_94hPjWmz_vQG5gyQ-360" value="&lt;b&gt;IS&lt;/b&gt;" style="rounded=0;whiteSpace=wrap;html=1;" vertex="1" parent="1">
          <mxGeometry x="2723.99" y="270" width="20" height="20" as="geometry" />
        </mxCell>
        <mxCell id="Xeo_94hPjWmz_vQG5gyQ-361" value="&lt;b&gt;EV&lt;/b&gt;" style="rounded=0;whiteSpace=wrap;html=1;" vertex="1" parent="1">
          <mxGeometry x="2300" y="140" width="30" height="20" as="geometry" />
        </mxCell>
        <mxCell id="Xeo_94hPjWmz_vQG5gyQ-362" value="&lt;b&gt;IS&lt;/b&gt;" style="rounded=0;whiteSpace=wrap;html=1;" vertex="1" parent="1">
          <mxGeometry x="2310" y="225" width="20" height="20" as="geometry" />
        </mxCell>
        <mxCell id="Xeo_94hPjWmz_vQG5gyQ-363" value="&lt;b&gt;IS&lt;/b&gt;" style="rounded=0;whiteSpace=wrap;html=1;" vertex="1" parent="1">
          <mxGeometry x="2310" y="334" width="20" height="20" as="geometry" />
        </mxCell>
        <mxCell id="Xeo_94hPjWmz_vQG5gyQ-364" value="" style="group" vertex="1" connectable="0" parent="1">
          <mxGeometry x="2220" y="100" width="30" height="20" as="geometry" />
        </mxCell>
        <mxCell id="Xeo_94hPjWmz_vQG5gyQ-365" value="0:dt:e" style="shape=offPageConnector;whiteSpace=wrap;html=1;" vertex="1" parent="Xeo_94hPjWmz_vQG5gyQ-364">
          <mxGeometry width="30" height="20" as="geometry" />
        </mxCell>
        <mxCell id="Xeo_94hPjWmz_vQG5gyQ-366" style="edgeStyle=orthogonalEdgeStyle;rounded=0;orthogonalLoop=1;jettySize=auto;html=1;exitX=0;exitY=0;exitDx=0;exitDy=0;entryX=0.75;entryY=0;entryDx=0;entryDy=0;startArrow=baseDash;startFill=0;" edge="1" parent="Xeo_94hPjWmz_vQG5gyQ-364">
          <mxGeometry relative="1" as="geometry">
            <mxPoint x="22.5" as="targetPoint" />
            <Array as="points" />
            <mxPoint as="sourcePoint" />
          </mxGeometry>
        </mxCell>
        <mxCell id="Xeo_94hPjWmz_vQG5gyQ-367" value="&lt;b&gt;IR&lt;/b&gt;" style="rounded=0;whiteSpace=wrap;html=1;" vertex="1" parent="1">
          <mxGeometry x="2560" y="280" width="23.99" height="20" as="geometry" />
        </mxCell>
        <mxCell id="Xeo_94hPjWmz_vQG5gyQ-368" value="&lt;b&gt;F&lt;/b&gt;" style="shape=offPageConnector;whiteSpace=wrap;html=1;direction=north;size=0.25;" vertex="1" parent="1">
          <mxGeometry x="2453.99" y="280" width="20" height="20" as="geometry" />
        </mxCell>
        <mxCell id="Xeo_94hPjWmz_vQG5gyQ-369" value="i:dt:off" style="shape=offPageConnector;whiteSpace=wrap;html=1;" vertex="1" parent="1">
          <mxGeometry x="2453.99" y="160" width="40" height="20" as="geometry" />
        </mxCell>
        <mxCell id="Xeo_94hPjWmz_vQG5gyQ-370" style="edgeStyle=orthogonalEdgeStyle;rounded=0;orthogonalLoop=1;jettySize=auto;html=1;exitX=0;exitY=0;exitDx=0;exitDy=0;entryX=1;entryY=0;entryDx=0;entryDy=0;endArrow=ERmany;endFill=0;" edge="1" parent="1" target="Xeo_94hPjWmz_vQG5gyQ-369">
          <mxGeometry relative="1" as="geometry">
            <mxPoint x="2488.99" y="160" as="targetPoint" />
            <Array as="points" />
            <mxPoint x="2473.99" y="160" as="sourcePoint" />
          </mxGeometry>
        </mxCell>
        <mxCell id="Xeo_94hPjWmz_vQG5gyQ-371" value="s:dt:e" style="shape=offPageConnector;whiteSpace=wrap;html=1;" vertex="1" parent="1">
          <mxGeometry x="2220" y="185" width="30" height="20" as="geometry" />
        </mxCell>
        <mxCell id="Xeo_94hPjWmz_vQG5gyQ-372" value="s:dt:e" style="shape=offPageConnector;whiteSpace=wrap;html=1;" vertex="1" parent="1">
          <mxGeometry x="2220" y="294" width="30" height="20" as="geometry" />
        </mxCell>
        <mxCell id="Xeo_94hPjWmz_vQG5gyQ-373" value="i:dt:o" style="shape=offPageConnector;whiteSpace=wrap;html=1;" vertex="1" parent="1">
          <mxGeometry x="2653.99" y="209.99999999999994" width="30" height="20" as="geometry" />
        </mxCell>
        <mxCell id="Xeo_94hPjWmz_vQG5gyQ-374" value="&lt;b style=&quot;font-size: 20px;&quot;&gt;FRDL Model&lt;/b&gt;&lt;div&gt;&lt;b style=&quot;font-size: 20px;&quot;&gt;(Single-Directional equivalent)&lt;/b&gt;&lt;/div&gt;" style="text;html=1;strokeColor=none;fillColor=none;align=center;verticalAlign=middle;whiteSpace=wrap;rounded=0;fontSize=20;" vertex="1" parent="1">
          <mxGeometry x="2318.99" y="20" width="325" height="30" as="geometry" />
        </mxCell>
        <mxCell id="Xeo_94hPjWmz_vQG5gyQ-375" value="" style="endArrow=none;dashed=1;html=1;dashPattern=1 3;strokeWidth=2;rounded=0;" edge="1" parent="1">
          <mxGeometry width="50" height="50" relative="1" as="geometry">
            <mxPoint x="2190" y="1500" as="sourcePoint" />
            <mxPoint x="2190" y="10" as="targetPoint" />
          </mxGeometry>
        </mxCell>
        <mxCell id="Xeo_94hPjWmz_vQG5gyQ-376" style="edgeStyle=orthogonalEdgeStyle;rounded=0;orthogonalLoop=1;jettySize=auto;html=1;exitX=0.75;exitY=0;exitDx=0;exitDy=0;entryX=0;entryY=0.5;entryDx=0;entryDy=0;" edge="1" parent="1" source="Xeo_94hPjWmz_vQG5gyQ-378" target="Xeo_94hPjWmz_vQG5gyQ-393">
          <mxGeometry relative="1" as="geometry" />
        </mxCell>
        <mxCell id="Xeo_94hPjWmz_vQG5gyQ-377" value="&lt;font style=&quot;font-size: 8px;&quot;&gt;new&lt;br&gt;signal&lt;/font&gt;" style="edgeLabel;html=1;align=center;verticalAlign=middle;resizable=0;points=[];" vertex="1" connectable="0" parent="Xeo_94hPjWmz_vQG5gyQ-376">
          <mxGeometry x="0.0576" y="-1" relative="1" as="geometry">
            <mxPoint x="11" y="-1" as="offset" />
          </mxGeometry>
        </mxCell>
        <mxCell id="Xeo_94hPjWmz_vQG5gyQ-378" value="Function A&lt;div&gt;&amp;lt;Logical, Control&amp;gt;&lt;/div&gt;" style="rounded=0;whiteSpace=wrap;html=1;" vertex="1" parent="1">
          <mxGeometry x="2313.99" y="618.25" width="120" height="60" as="geometry" />
        </mxCell>
        <mxCell id="Xeo_94hPjWmz_vQG5gyQ-379" style="edgeStyle=orthogonalEdgeStyle;rounded=0;orthogonalLoop=1;jettySize=auto;html=1;exitX=0.5;exitY=1;exitDx=0;exitDy=0;entryX=0.517;entryY=-0.06;entryDx=0;entryDy=0;endArrow=classic;endFill=1;startArrow=none;startFill=0;entryPerimeter=0;" edge="1" parent="1" source="Xeo_94hPjWmz_vQG5gyQ-381" target="Xeo_94hPjWmz_vQG5gyQ-394">
          <mxGeometry relative="1" as="geometry" />
        </mxCell>
        <mxCell id="Xeo_94hPjWmz_vQG5gyQ-380" value="&lt;font style=&quot;font-size: 11px;&quot;&gt;potential&lt;/font&gt;" style="edgeLabel;html=1;align=center;verticalAlign=middle;resizable=0;points=[];" vertex="1" connectable="0" parent="Xeo_94hPjWmz_vQG5gyQ-379">
          <mxGeometry x="0.0178" relative="1" as="geometry">
            <mxPoint as="offset" />
          </mxGeometry>
        </mxCell>
        <mxCell id="Xeo_94hPjWmz_vQG5gyQ-381" value="Function B&lt;div&gt;&amp;lt;Physical&amp;gt;&lt;/div&gt;" style="rounded=0;whiteSpace=wrap;html=1;" vertex="1" parent="1">
          <mxGeometry x="2540" y="573.25" width="120" height="60" as="geometry" />
        </mxCell>
        <mxCell id="Xeo_94hPjWmz_vQG5gyQ-382" value="External Energy&lt;br&gt;In" style="ellipse;whiteSpace=wrap;html=1;aspect=fixed;" vertex="1" parent="1">
          <mxGeometry x="2310" y="703.25" width="50" height="50" as="geometry" />
        </mxCell>
        <mxCell id="Xeo_94hPjWmz_vQG5gyQ-383" value="External Material&lt;br&gt;Out" style="ellipse;whiteSpace=wrap;html=1;aspect=fixed;" vertex="1" parent="1">
          <mxGeometry x="2651.5" y="803.25" width="50" height="50" as="geometry" />
        </mxCell>
        <mxCell id="Xeo_94hPjWmz_vQG5gyQ-384" style="edgeStyle=orthogonalEdgeStyle;rounded=0;orthogonalLoop=1;jettySize=auto;html=1;exitX=0.5;exitY=1;exitDx=0;exitDy=0;entryX=0;entryY=0.5;entryDx=0;entryDy=0;startArrow=classic;startFill=1;endArrow=classic;endFill=1;" edge="1" parent="1" source="Xeo_94hPjWmz_vQG5gyQ-390" target="Xeo_94hPjWmz_vQG5gyQ-383">
          <mxGeometry relative="1" as="geometry" />
        </mxCell>
        <mxCell id="Xeo_94hPjWmz_vQG5gyQ-385" value="&lt;font style=&quot;font-size: 8px;&quot;&gt;[provided]&amp;gt;o&lt;br style=&quot;border-color: var(--border-color);&quot;&gt;(taken)&amp;gt;□&lt;/font&gt;" style="edgeLabel;html=1;align=center;verticalAlign=middle;resizable=0;points=[];" vertex="1" connectable="0" parent="Xeo_94hPjWmz_vQG5gyQ-384">
          <mxGeometry x="-0.1072" y="2" relative="1" as="geometry">
            <mxPoint x="-8" y="2" as="offset" />
          </mxGeometry>
        </mxCell>
        <mxCell id="Xeo_94hPjWmz_vQG5gyQ-386" style="edgeStyle=orthogonalEdgeStyle;rounded=0;orthogonalLoop=1;jettySize=auto;html=1;entryX=0;entryY=0.5;entryDx=0;entryDy=0;endArrow=none;endFill=0;startArrow=classic;startFill=1;exitX=0;exitY=0.25;exitDx=0;exitDy=0;" edge="1" parent="1" source="Xeo_94hPjWmz_vQG5gyQ-390" target="Xeo_94hPjWmz_vQG5gyQ-394">
          <mxGeometry relative="1" as="geometry">
            <mxPoint x="2570" y="783.25" as="sourcePoint" />
            <Array as="points">
              <mxPoint x="2510" y="759.25" />
              <mxPoint x="2510" y="708.25" />
            </Array>
          </mxGeometry>
        </mxCell>
        <mxCell id="Xeo_94hPjWmz_vQG5gyQ-387" value="&lt;font style=&quot;font-size: 11px;&quot;&gt;usage (r)&lt;/font&gt;" style="edgeLabel;html=1;align=center;verticalAlign=middle;resizable=0;points=[];" vertex="1" connectable="0" parent="Xeo_94hPjWmz_vQG5gyQ-386">
          <mxGeometry x="0.1424" y="1" relative="1" as="geometry">
            <mxPoint x="1" y="1" as="offset" />
          </mxGeometry>
        </mxCell>
        <mxCell id="Xeo_94hPjWmz_vQG5gyQ-388" style="edgeStyle=orthogonalEdgeStyle;rounded=0;orthogonalLoop=1;jettySize=auto;html=1;exitX=0.5;exitY=0;exitDx=0;exitDy=0;endArrow=classic;endFill=1;startArrow=classic;startFill=1;entryX=0;entryY=0.5;entryDx=0;entryDy=0;" edge="1" parent="1" source="Xeo_94hPjWmz_vQG5gyQ-390" target="Xeo_94hPjWmz_vQG5gyQ-395">
          <mxGeometry relative="1" as="geometry">
            <Array as="points">
              <mxPoint x="2598" y="719.25" />
              <mxPoint x="2650" y="719.25" />
            </Array>
          </mxGeometry>
        </mxCell>
        <mxCell id="Xeo_94hPjWmz_vQG5gyQ-389" value="&lt;font style=&quot;font-size: 8px;&quot;&gt;[heat]&amp;gt;o&lt;br style=&quot;border-color: var(--border-color);&quot;&gt;(evac rate)&amp;gt;□&lt;/font&gt;" style="edgeLabel;html=1;align=center;verticalAlign=middle;resizable=0;points=[];" vertex="1" connectable="0" parent="Xeo_94hPjWmz_vQG5gyQ-388">
          <mxGeometry x="-0.2538" y="2" relative="1" as="geometry">
            <mxPoint x="9" y="-4" as="offset" />
          </mxGeometry>
        </mxCell>
        <mxCell id="Xeo_94hPjWmz_vQG5gyQ-390" value="Function C&lt;div&gt;&amp;lt;Physical&amp;gt;&lt;/div&gt;" style="rounded=0;whiteSpace=wrap;html=1;" vertex="1" parent="1">
          <mxGeometry x="2537.5" y="744.75" width="120" height="60" as="geometry" />
        </mxCell>
        <mxCell id="Xeo_94hPjWmz_vQG5gyQ-391" style="edgeStyle=orthogonalEdgeStyle;rounded=0;orthogonalLoop=1;jettySize=auto;html=1;exitX=1;exitY=0.5;exitDx=0;exitDy=0;entryX=0;entryY=0.5;entryDx=0;entryDy=0;" edge="1" parent="1" source="Xeo_94hPjWmz_vQG5gyQ-393" target="Xeo_94hPjWmz_vQG5gyQ-401">
          <mxGeometry relative="1" as="geometry" />
        </mxCell>
        <mxCell id="Xeo_94hPjWmz_vQG5gyQ-392" value="new&lt;br style=&quot;font-size: 8px;&quot;&gt;signal" style="edgeLabel;html=1;align=center;verticalAlign=middle;resizable=0;points=[];fontSize=8;" vertex="1" connectable="0" parent="Xeo_94hPjWmz_vQG5gyQ-391">
          <mxGeometry x="-0.0291" relative="1" as="geometry">
            <mxPoint x="-4" as="offset" />
          </mxGeometry>
        </mxCell>
        <mxCell id="Xeo_94hPjWmz_vQG5gyQ-393" value="Control&lt;br&gt;Signal" style="ellipse;whiteSpace=wrap;html=1;aspect=fixed;" vertex="1" parent="1">
          <mxGeometry x="2450" y="558.25" width="50" height="50" as="geometry" />
        </mxCell>
        <mxCell id="Xeo_94hPjWmz_vQG5gyQ-394" value="Internal Energy" style="ellipse;whiteSpace=wrap;html=1;aspect=fixed;" vertex="1" parent="1">
          <mxGeometry x="2523.99" y="677.5" width="50" height="50" as="geometry" />
        </mxCell>
        <mxCell id="Xeo_94hPjWmz_vQG5gyQ-395" value="External Energy&lt;br&gt;Out" style="ellipse;whiteSpace=wrap;html=1;aspect=fixed;" vertex="1" parent="1">
          <mxGeometry x="2650" y="693.25" width="51.5" height="51.5" as="geometry" />
        </mxCell>
        <mxCell id="Xeo_94hPjWmz_vQG5gyQ-396" value="External Material&lt;br&gt;In" style="ellipse;whiteSpace=wrap;html=1;aspect=fixed;" vertex="1" parent="1">
          <mxGeometry x="2362.5" y="744.75" width="60" height="60" as="geometry" />
        </mxCell>
        <mxCell id="Xeo_94hPjWmz_vQG5gyQ-397" value="" style="group" vertex="1" connectable="0" parent="1">
          <mxGeometry x="2313.99" y="618.25" width="30" height="20" as="geometry" />
        </mxCell>
        <mxCell id="Xeo_94hPjWmz_vQG5gyQ-398" value="i:dt:o" style="shape=offPageConnector;whiteSpace=wrap;html=1;" vertex="1" parent="Xeo_94hPjWmz_vQG5gyQ-397">
          <mxGeometry width="30" height="20" as="geometry" />
        </mxCell>
        <mxCell id="Xeo_94hPjWmz_vQG5gyQ-399" style="edgeStyle=orthogonalEdgeStyle;rounded=0;orthogonalLoop=1;jettySize=auto;html=1;exitX=0;exitY=0;exitDx=0;exitDy=0;entryX=0.75;entryY=0;entryDx=0;entryDy=0;startArrow=baseDash;startFill=0;" edge="1" parent="Xeo_94hPjWmz_vQG5gyQ-397">
          <mxGeometry relative="1" as="geometry">
            <mxPoint x="22.5" as="targetPoint" />
            <Array as="points" />
            <mxPoint as="sourcePoint" />
          </mxGeometry>
        </mxCell>
        <mxCell id="Xeo_94hPjWmz_vQG5gyQ-400" value="" style="group" vertex="1" connectable="0" parent="1">
          <mxGeometry x="2540" y="573.25" width="30" height="20" as="geometry" />
        </mxCell>
        <mxCell id="Xeo_94hPjWmz_vQG5gyQ-401" value="i:dt:o" style="shape=offPageConnector;whiteSpace=wrap;html=1;" vertex="1" parent="Xeo_94hPjWmz_vQG5gyQ-400">
          <mxGeometry width="30" height="20" as="geometry" />
        </mxCell>
        <mxCell id="Xeo_94hPjWmz_vQG5gyQ-402" value="i:dt:off" style="shape=offPageConnector;whiteSpace=wrap;html=1;" vertex="1" parent="1">
          <mxGeometry x="2537.5" y="744.75" width="40" height="20" as="geometry" />
        </mxCell>
        <mxCell id="Xeo_94hPjWmz_vQG5gyQ-403" style="edgeStyle=orthogonalEdgeStyle;rounded=0;orthogonalLoop=1;jettySize=auto;html=1;exitX=0;exitY=0;exitDx=0;exitDy=0;entryX=1;entryY=0;entryDx=0;entryDy=0;endArrow=ERmany;endFill=0;" edge="1" parent="1" target="Xeo_94hPjWmz_vQG5gyQ-402">
          <mxGeometry relative="1" as="geometry">
            <mxPoint x="2552.5" y="744.75" as="targetPoint" />
            <Array as="points">
              <mxPoint x="2547.5" y="744.75" />
              <mxPoint x="2547.5" y="744.75" />
            </Array>
            <mxPoint x="2537.5" y="744.75" as="sourcePoint" />
          </mxGeometry>
        </mxCell>
        <mxCell id="Xeo_94hPjWmz_vQG5gyQ-404" value="&lt;b&gt;IR&lt;/b&gt;" style="rounded=0;whiteSpace=wrap;html=1;" vertex="1" parent="1">
          <mxGeometry x="2640" y="613.25" width="20" height="20" as="geometry" />
        </mxCell>
        <mxCell id="Xeo_94hPjWmz_vQG5gyQ-405" value="&lt;b&gt;IR&lt;/b&gt;" style="rounded=0;whiteSpace=wrap;html=1;" vertex="1" parent="1">
          <mxGeometry x="2410" y="658.25" width="23.99" height="20" as="geometry" />
        </mxCell>
        <mxCell id="Xeo_94hPjWmz_vQG5gyQ-406" value="&lt;b&gt;IS&lt;/b&gt;" style="rounded=0;whiteSpace=wrap;html=1;" vertex="1" parent="1">
          <mxGeometry x="2637.5" y="784.75" width="20" height="20" as="geometry" />
        </mxCell>
        <mxCell id="Xeo_94hPjWmz_vQG5gyQ-407" style="edgeStyle=orthogonalEdgeStyle;rounded=0;orthogonalLoop=1;jettySize=auto;html=1;exitX=0.5;exitY=0;exitDx=0;exitDy=0;startArrow=classic;startFill=1;endArrow=classic;endFill=1;entryX=1;entryY=0.5;entryDx=0;entryDy=0;" edge="1" parent="1" source="Xeo_94hPjWmz_vQG5gyQ-378" target="Xeo_94hPjWmz_vQG5gyQ-409">
          <mxGeometry relative="1" as="geometry">
            <Array as="points">
              <mxPoint x="2373.99" y="583.25" />
            </Array>
            <mxPoint x="2341.45" y="543.25" as="sourcePoint" />
          </mxGeometry>
        </mxCell>
        <mxCell id="Xeo_94hPjWmz_vQG5gyQ-408" value="&lt;font style=&quot;font-size: 8px;&quot;&gt;[feedback]&amp;gt;o&lt;br style=&quot;border-color: var(--border-color);&quot;&gt;(control)&amp;gt;□&lt;/font&gt;" style="edgeLabel;html=1;align=center;verticalAlign=middle;resizable=0;points=[];" vertex="1" connectable="0" parent="Xeo_94hPjWmz_vQG5gyQ-407">
          <mxGeometry x="-0.0612" y="2" relative="1" as="geometry">
            <mxPoint x="2" y="2" as="offset" />
          </mxGeometry>
        </mxCell>
        <mxCell id="Xeo_94hPjWmz_vQG5gyQ-409" value="External Signals" style="ellipse;whiteSpace=wrap;html=1;aspect=fixed;" vertex="1" parent="1">
          <mxGeometry x="2290" y="558.25" width="50" height="50" as="geometry" />
        </mxCell>
        <mxCell id="Xeo_94hPjWmz_vQG5gyQ-410" style="edgeStyle=orthogonalEdgeStyle;rounded=0;orthogonalLoop=1;jettySize=auto;html=1;exitX=0;exitY=0.75;exitDx=0;exitDy=0;entryX=1;entryY=0.5;entryDx=0;entryDy=0;startArrow=classic;startFill=1;endArrow=classic;endFill=1;" edge="1" parent="1" source="Xeo_94hPjWmz_vQG5gyQ-381" target="Xeo_94hPjWmz_vQG5gyQ-382">
          <mxGeometry relative="1" as="geometry">
            <Array as="points">
              <mxPoint x="2460" y="618.25" />
              <mxPoint x="2460" y="728.25" />
            </Array>
            <mxPoint x="2477.5" y="688.25" as="sourcePoint" />
            <mxPoint x="2430" y="658.25" as="targetPoint" />
          </mxGeometry>
        </mxCell>
        <mxCell id="Xeo_94hPjWmz_vQG5gyQ-411" value="&lt;font style=&quot;font-size: 8px;&quot;&gt;[rate]&amp;gt;o&lt;br style=&quot;border-color: var(--border-color);&quot;&gt;(potential)&amp;gt;□&lt;/font&gt;" style="edgeLabel;html=1;align=center;verticalAlign=middle;resizable=0;points=[];" vertex="1" connectable="0" parent="Xeo_94hPjWmz_vQG5gyQ-410">
          <mxGeometry x="-0.0612" y="2" relative="1" as="geometry">
            <mxPoint as="offset" />
          </mxGeometry>
        </mxCell>
        <mxCell id="Xeo_94hPjWmz_vQG5gyQ-412" style="edgeStyle=orthogonalEdgeStyle;rounded=0;orthogonalLoop=1;jettySize=auto;html=1;entryX=1;entryY=0.5;entryDx=0;entryDy=0;exitX=0;exitY=0.5;exitDx=0;exitDy=0;endArrow=classic;endFill=1;startArrow=classic;startFill=1;" edge="1" parent="1" source="Xeo_94hPjWmz_vQG5gyQ-390" target="Xeo_94hPjWmz_vQG5gyQ-396">
          <mxGeometry relative="1" as="geometry">
            <Array as="points">
              <mxPoint x="2437.5" y="774.75" />
              <mxPoint x="2437.5" y="774.75" />
            </Array>
            <mxPoint x="2477.5" y="854.75" as="sourcePoint" />
            <mxPoint x="2453.5" y="874.75" as="targetPoint" />
          </mxGeometry>
        </mxCell>
        <mxCell id="Xeo_94hPjWmz_vQG5gyQ-413" value="&lt;font style=&quot;font-size: 8px;&quot;&gt;[used]&amp;gt;o&lt;br style=&quot;border-color: var(--border-color);&quot;&gt;(provided)&amp;gt;□&lt;/font&gt;" style="edgeLabel;html=1;align=center;verticalAlign=middle;resizable=0;points=[];" vertex="1" connectable="0" parent="Xeo_94hPjWmz_vQG5gyQ-412">
          <mxGeometry x="-0.0915" y="2" relative="1" as="geometry">
            <mxPoint x="-6" y="-2" as="offset" />
          </mxGeometry>
        </mxCell>
        <mxCell id="Xeo_94hPjWmz_vQG5gyQ-414" value="" style="endArrow=none;dashed=1;html=1;dashPattern=1 3;strokeWidth=2;rounded=0;" edge="1" parent="1">
          <mxGeometry width="50" height="50" relative="1" as="geometry">
            <mxPoint x="2197" y="450" as="sourcePoint" />
            <mxPoint x="2837" y="450" as="targetPoint" />
          </mxGeometry>
        </mxCell>
        <mxCell id="Xeo_94hPjWmz_vQG5gyQ-415" value="" style="endArrow=none;dashed=1;html=1;dashPattern=1 3;strokeWidth=2;rounded=0;" edge="1" parent="1">
          <mxGeometry width="50" height="50" relative="1" as="geometry">
            <mxPoint x="2198.99" y="940" as="sourcePoint" />
            <mxPoint x="2838.99" y="940" as="targetPoint" />
          </mxGeometry>
        </mxCell>
        <mxCell id="Xeo_94hPjWmz_vQG5gyQ-416" value="Input Material" style="text;html=1;strokeColor=none;fillColor=none;align=right;verticalAlign=middle;whiteSpace=wrap;rounded=0;" vertex="1" parent="1">
          <mxGeometry x="-280" y="181" width="80" height="30" as="geometry" />
        </mxCell>
      </root>
    </mxGraphModel>
  </diagram>
</mxfile>
